<?xml version="1.0" encoding="iso-8859-1"?>
<!-- Generator: Adobe Illustrator 19.0.0, SVG Export Plug-In . SVG Version: 6.00 Build 0)  -->
<svg version="1.1" id="Capa_1" xmlns="http://www.w3.org/2000/svg" xmlns:xlink="http://www.w3.org/1999/xlink" x="0px" y="0px"
	 viewBox="0 0 438.4 438.4" style="enable-background:new 0 0 438.4 438.4;" xml:space="preserve">
<g>
	<path style="fill:#FDC75B;" d="M379.45,97v300.1c0,17.4-14.1,31.4-31.4,31.4H90.35c-17.3,0-31.4-14-31.4-31.4V97
		c0-17.4,14.1-31.4,31.4-31.4h53.4h3.1v26.2h-46.1v294.8h236.7V91.8h-43.7h-2.9V65.6h57.1C365.35,65.6,379.45,79.6,379.45,97z"/>
	<polygon style="fill:#FDC75B;" points="337.55,91.8 337.55,386.6 100.75,386.6 100.75,91.8 146.85,91.8 146.85,101.9 290.95,101.9 
		290.95,91.8 293.75,91.8 	"/>
</g>
<path style="fill:#ED664C;" d="M290.95,65.6v26.2V102h-144V91.8V65.6V41.7h33c4.2-17.8,19.4-31.4,38.8-31.4s35.1,13.6,38.8,31.4
	h33.5v23.9H290.95z"/>
<path d="M90.35,438.4h257.7c22.8,0,41.2-18.5,41.2-41.3V97c0-22.8-18.3-41.6-41.2-41.6h-46.9V41.7c0-5.5-4.7-10.3-10.2-10.3h-26.1
	c-7.3-18-25.6-31.4-46.2-31.4c-20.5,0-38.4,13.4-46,31.4h-25.7c-5.5,0-9.7,4.8-9.7,10.3v13.7h-46.8c-23,0-41.3,18.8-41.3,41.6v300.1
	C49.15,419.9,67.45,438.4,90.35,438.4z M157.15,51.4h22.7c4.6,0,8.7-3,9.7-7.5c3.3-14.2,15-23.6,29-23.6s26.2,9.7,29,23.3
	c1,4.6,5,7.9,9.8,7.9h23.8v41h-124V51.4z M146.85,112.4h144c5.5,0,10.2-5,10.2-10.5v-0.5h26v275h-215.9v-275h26v0.5
	C137.15,107.4,141.35,112.4,146.85,112.4z M69.15,97c0-11.8,9.3-21.6,21.2-21.6h46.8v6h-36.4c-5.5,0-9.6,4.8-9.6,10.4v294.8
	c0,5.5,4.1,9.8,9.6,9.8h236.7c5.5,0,9.6-4.3,9.6-9.8V91.8c0-5.5-4.1-10.4-9.6-10.4h-36.3v-6h46.8c11.8,0,21.2,9.8,21.2,21.6v300.1
	c0,11.8-9.3,21.3-21.2,21.3H90.35c-11.8,0-21.2-9.5-21.2-21.3V97z"/>
<path d="M135.85,219.4c0,5.5,4.5,10,10,10h146.6c5.5,0,10-4.5,10-10s-4.5-10-10-10h-146.6C140.35,209.4,135.85,213.9,135.85,219.4z"
	/>
<path d="M145.85,177.4h68.1c5.5,0,10-4.5,10-10s-4.5-10-10-10h-68.1c-5.5,0-10,4.5-10,10S140.35,177.4,145.85,177.4z"/>
<path d="M292.45,261.4h-146.6c-5.5,0-10,4.5-10,10s4.5,10,10,10h146.6c5.5,0,10-4.5,10-10S297.95,261.4,292.45,261.4z"/>
<path d="M292.45,314.4h-146.6c-5.5,0-10,4.5-10,10s4.5,10,10,10h146.6c5.5,0,10-4.5,10-10S297.95,314.4,292.45,314.4z"/>
<g>
</g>
<g>
</g>
<g>
</g>
<g>
</g>
<g>
</g>
<g>
</g>
<g>
</g>
<g>
</g>
<g>
</g>
<g>
</g>
<g>
</g>
<g>
</g>
<g>
</g>
<g>
</g>
<g>
</g>
</svg>
