<?xml version="1.0"?>
<svg xmlns="http://www.w3.org/2000/svg" xmlns:xlink="http://www.w3.org/1999/xlink" version="1.1" id="Capa_1" x="0px" y="0px" viewBox="0 0 438.907 438.907" style="enable-background:new 0 0 438.907 438.907;" xml:space="preserve" width="512px" height="512px" class=""><g transform="matrix(0.9996 0 0 0.9996 0.0877681 -0.0117069)"><g>
	<g>
		<path style="fill:#D4E1F4;" d="M379.323,99.837v299.363c0,17.312-14.035,31.347-31.347,31.347H90.931    c-17.312,0-31.347-14.035-31.347-31.347V99.837c0-17.312,14.034-31.347,31.347-31.347h51.2v36.571h154.122V68.49h51.722    C365.288,68.49,379.323,82.525,379.323,99.837z M169.821,210.074V153.65h-62.171v56.424H169.821z" data-original="#D4E1F4" class=""/>
		<path style="fill:#00CEB4;" d="M296.253,68.49v36.571H142.131V39.756h38.139c3.926-18.232,20.012-31.274,38.661-31.347    c18.721-0.129,34.917,13.004,38.661,31.347h38.661L296.253,68.49z" data-original="#00CEB4" class=""/>
		<rect x="107.649" y="153.65" style="fill:#00ACEA;" width="62.171" height="56.79" data-original="#00ACEA" class=""/>
	</g>
	<g>
		<path style="fill:#083863" d="M347.976,57.519H308.27V39.756c0-5.747-6.269-8.359-12.016-8.359h-30.824    c-6.891-19.559-25.782-32.295-46.498-31.347c-20.668-0.777-39.467,11.896-46.498,31.347h-30.302    c-5.747,0-11.494,2.612-11.494,8.359v17.763H90.931c-23.53,0.251-42.78,18.813-43.886,42.318v299.363    c0,22.988,20.898,39.706,43.886,39.706h257.045c22.988,0,43.886-16.718,43.886-39.706V99.837    C390.755,76.332,371.506,57.77,347.976,57.519z M151.535,52.294h28.735c5.097-0.437,9.215-4.339,9.927-9.404    c3.094-13.474,14.915-23.146,28.735-23.51c13.692,0.415,25.335,10.118,28.212,23.51c0.937,5.148,5.232,9.013,10.449,9.404h29.78    V94.09H151.535V52.294z M370.964,399.201c0,11.494-11.494,18.808-22.988,18.808H90.931c-11.494,0-22.988-7.314-22.988-18.808    V99.837c1.066-11.964,10.978-21.201,22.988-21.42h39.706v26.645c0.552,5.854,5.622,10.233,11.494,9.927h154.122    c5.98,0.327,11.209-3.992,12.016-9.927V78.417h39.706c12.009,0.22,21.922,9.456,22.988,21.42V399.201z" data-original="#083863" class="active-path"/>
		<path style="fill:#083863" d="M131.159,290.009c-2.782,0.089-5.46-1.059-7.314-3.135l-21.42-21.943    c-4.047-4.24-4.047-10.911,0-15.151c4.204-3.841,10.709-3.609,14.629,0.522l14.106,14.629l33.437-31.869    c4.204-3.841,10.709-3.609,14.629,0.522c4.04,3.706,4.31,9.986,0.603,14.025c-0.192,0.21-0.394,0.411-0.603,0.603l-40.751,38.661    C136.545,288.843,133.916,289.969,131.159,290.009z" data-original="#083863" class="active-path"/>
		<path style="fill:#083863" d="M329.168,276.947H209.004c-5.771,0-10.449-4.678-10.449-10.449c0-5.771,4.678-10.449,10.449-10.449    h120.163c5.771,0,10.449,4.678,10.449,10.449C339.617,272.269,334.938,276.947,329.168,276.947z" data-original="#083863" class="active-path"/>
		<path style="fill:#083863" d="M329.168,193.356H209.004c-5.771,0-10.449-4.678-10.449-10.449c0-5.771,4.678-10.449,10.449-10.449    h120.163c5.771,0,10.449,4.678,10.449,10.449C339.617,188.677,334.938,193.356,329.168,193.356z" data-original="#083863" class="active-path"/>
		<path style="fill:#083863" d="M131.159,373.601c-2.782,0.089-5.46-1.059-7.314-3.135l-21.42-21.943    c-4.047-4.24-4.047-10.911,0-15.151c4.204-3.841,10.709-3.609,14.629,0.522l14.106,14.629l33.437-31.869    c4.204-3.841,10.709-3.609,14.629,0.522c4.04,3.706,4.31,9.986,0.603,14.025c-0.192,0.21-0.394,0.411-0.603,0.603l-40.751,38.661    C136.545,372.435,133.916,373.561,131.159,373.601z" data-original="#083863" class="active-path"/>
		<path style="fill:#083863" d="M329.168,360.539H209.004c-5.771,0-10.449-4.678-10.449-10.449c0-5.771,4.678-10.449,10.449-10.449    h120.163c5.771,0,10.449,4.678,10.449,10.449C339.617,355.861,334.938,360.539,329.168,360.539z" data-original="#083863" class="active-path"/>
		<path style="fill:#083863" d="M169.821,220.523h-62.171c-5.474,0.297-10.152-3.901-10.449-9.375    c-0.019-0.358-0.019-0.716,0-1.074V153.65c0-5.771,4.678-10.449,10.449-10.449h62.171c5.771,0,10.449,4.678,10.449,10.449v56.424    c0.297,5.474-3.901,10.152-9.375,10.449C170.537,220.542,170.178,220.542,169.821,220.523z M118.098,199.625h41.273v-35.527    h-41.273V199.625z" data-original="#083863" class="active-path"/>
	</g>
</g></g> </svg>
