<svg height="512pt" viewBox="-42 0 512 512" width="512pt" xmlns="http://www.w3.org/2000/svg"><path d="m352.726562 348.175781-54.632812-89.441406c-4.660156-7.625-12.949219-12.273437-21.882812-12.273437h-29.15625v-42.371094h-43.558594v42.371094h-34.457032c-6.230468 0-12.246093 2.265624-16.925781 6.375l-53.050781 46.601562 5.792969-39.707031 9.703125-66.535157 4.355468-6.585937c4.269532-6.457031 3.925782-14.917969-.855468-21.003906l-14.628906-18.625 1.285156-27.75c.238281-5.15625-3.402344-9.683594-8.492188-10.558594-5.484375-.941406-10.71875 2.675781-11.78125 8.140625l-6.460937 33.335938c-1.746094 9.023437-.710938 18.363281 2.972656 26.78125l4.476563 10.234374-22.324219 153.050782c-2.207031 15.105468 15.601562 24.769531 27.070312 14.695312l43.066407-37.847656 26.828124-23.566406 6.261719 160.59375h117.886719l5.472656-140.433594 30.523438 49.957031c1.671875 2.742188 1.90625 6.128907.621094 9.074219l-32.964844 75.585938 25.230468 11.007812 40.828126-93.621094c2.472656-5.675781 2.023437-12.199218-1.203126-17.484375zm0 0" fill="#ffc999"/><path d="m330.980469 418.28125c-1.203125-11.007812-9.855469-19.765625-20.808594-21.144531l-12.574219 28.832031h30.03125zm0 0" fill="#e89c5d"/><path d="m203.496094 238.71875c8.230468 3.390625 17.242187 5.273438 26.699218 5.273438 5.8125 0 11.457032-.71875 16.859376-2.050782v-37.851562h-43.558594zm0 0" fill="#e89c5d"/><path d="m139.234375 110.203125c-13.730469 0-24.867187 11.136719-24.867187 24.867187 0 13.734376 11.136718 24.867188 24.867187 24.867188h20.8125v-49.734375zm0 0" fill="#40c6c2"/><path d="m311.3125 110.203125c13.734375 0 24.867188 11.136719 24.867188 24.867187 0 13.734376-11.132813 24.867188-24.867188 24.867188h-20.808594v-49.734375zm0 0" fill="#40c6c2"/><path d="m155.121094 100.554688v53.953124c0 38.746094 31.410156 70.152344 70.152344 70.152344 38.746093 0 70.152343-31.410156 70.152343-70.152344v-53.953124c0-33.355469-27.042969-60.398438-60.398437-60.398438h-19.507813c-33.355469 0-60.398437 27.042969-60.398437 60.398438zm0 0" fill="#ffc999"/><path d="m235.03125 40.15625h-19.511719c-.34375 0-.683593.019531-1.03125.027344 32.878907.550781 59.367188 27.359375 59.367188 60.371094v53.953124c0 35.078126-25.742188 64.136719-59.367188 69.324219 3.519531.542969 7.117188.828125 10.785157.828125 38.742187 0 70.152343-31.410156 70.152343-70.152344v-53.953124c0-33.355469-27.039062-60.398438-60.394531-60.398438zm0 0" fill="#e89c5d"/><path d="m292.09375 251.96875c-4.460938-3.515625-10.035156-5.507812-15.882812-5.507812h-17.699219c0 18.355468-14.878907 33.234374-33.238281 33.234374-18.355469 0-33.234376-14.878906-33.234376-33.234374h-23c-3.722656 0-7.371093.808593-10.703124 2.339843l1.734374 44.6875v.011719l6.261719 160.589844h117.886719l5.472656-140.429688zm0 0" fill="#7393d8"/><path d="m276.210938 246.460938h-5.914063l-2.324219 61.960937-5.476562 145.667969h21.71875l5.476562-140.433594 2.402344-61.6875c-4.460938-3.515625-10.035156-5.507812-15.882812-5.507812zm0 0" fill="#3d6fb7"/><path d="m49.867188 469.121094v35.378906h327.789062v-35.378906c0-8.300782-6.730469-15.03125-15.03125-15.03125h-297.726562c-8.300782 0-15.03125 6.730468-15.03125 15.03125zm0 0" fill="#4a4a68"/><path d="m362.625 454.089844h-27.167969c8.300781 0 15.03125 6.730468 15.03125 15.03125v35.378906h27.167969v-35.378906c0-8.300782-6.730469-15.03125-15.03125-15.03125zm0 0" fill="#333356"/><path d="m216.03125 440.03125c0-7.765625 6.433594-14.0625 14.367188-14.0625h109.3125c7.933593 0 14.367187 6.296875 14.367187 14.0625s-6.433594 14.058594-14.367187 14.058594h-109.3125c-7.933594 0-14.367188-6.292969-14.367188-14.058594zm0 0" fill="#ededed"/><path d="m339.710938 425.96875h-28c7.933593 0 14.367187 6.296875 14.367187 14.058594 0 7.765625-6.433594 14.0625-14.367187 14.0625h28c7.933593 0 14.367187-6.296875 14.367187-14.0625 0-7.761719-6.433594-14.058594-14.367187-14.058594zm0 0" fill="#c9c9c9"/><path d="m297.015625 402.664062h-10.507813c-10.628906 0-19.246093 8.617188-19.246093 19.246094v4.058594h49v-4.058594c0-10.628906-8.617188-19.246094-19.246094-19.246094zm0 0" fill="#ffc999"/><path d="m89.761719 430.839844v23.25h27.929687v-23.25c0-3.304688-2.679687-5.984375-5.988281-5.984375h-15.957031c-3.304688 0-5.984375 2.679687-5.984375 5.984375zm0 0" fill="#40c6c2"/><path d="m148.527344 430.839844v23.25h27.925781v-23.25c0-3.304688-2.675781-5.984375-5.984375-5.984375h-15.957031c-3.308594 0-5.984375 2.679687-5.984375 5.984375zm0 0" fill="#e8626c"/><path d="m273.066406 96.515625h-29.292968c-1.789063 0-3.410157.976563-4.332032 2.511719-2.894531 4.800781-8.148437 8.019531-14.167968 8.019531-6.015626 0-11.269532-3.21875-14.164063-8.019531-.921875-1.535156-2.542969-2.511719-4.332031-2.511719h-29.503906c-13.480469 0-25.683594 8.582031-29.636719 21.46875-6.601563 21.527344 9.320312 41.25 29.847656 41.25 10.582031 0 19.921875-5.246094 25.59375-13.277344 4.886719-6.921875 13.015625-10.816406 21.488281-10.816406h1.410156c8.574219 0 16.652344 4.089844 21.660157 11.046875 5.917969 8.226562 15.714843 13.464844 26.726562 13.023438 15.828125-.640626 28.882813-13.289063 29.984375-29.09375 1.273438-18.332032-13.222656-33.601563-31.28125-33.601563zm0 0" fill="#4a4a68"/><path d="m273.066406 96.515625h-20.570312c18.0625 0 32.558594 15.269531 31.28125 33.601563-.882813 12.691406-9.476563 23.339843-21.019532 27.375 3.609376 1.261718 7.523438 1.882812 11.605469 1.71875 15.828125-.640626 28.882813-13.289063 29.984375-29.09375 1.273438-18.332032-13.222656-33.601563-31.28125-33.601563zm0 0" fill="#333356"/><g fill="#4a4a68"><path d="m359.796875 212.578125c0 7.84375-6.359375 14.203125-14.203125 14.203125s-14.199219-6.359375-14.199219-14.203125 6.355469-14.199219 14.199219-14.199219 14.203125 6.355469 14.203125 14.199219zm0 0"/><path d="m420.023438 203.347656c0 7.84375-6.359376 14.203125-14.203126 14.203125-7.839843 0-14.199218-6.359375-14.199218-14.203125s6.359375-14.199218 14.199218-14.199218c7.84375 0 14.203126 6.355468 14.203126 14.199218zm0 0"/><path d="m35.902344 430.328125c0 7.84375-6.359375 14.203125-14.203125 14.203125s-14.199219-6.359375-14.199219-14.203125c0-7.839844 6.355469-14.199219 14.199219-14.199219s14.203125 6.359375 14.203125 14.199219zm0 0"/></g><path d="m231.328125 332.859375h-5.773437l6.691406-16.410156c1.566406-3.835938-.273438-8.214844-4.109375-9.777344-3.835938-1.5625-8.214844.277344-9.777344 4.113281l-9.085937 22.277344c-1.351563 3.320312-.964844 7.074219 1.035156 10.050781 1.996094 2.972657 5.328125 4.746094 8.914062 4.746094h5.769532l-6.691407 16.414063c-1.566406 3.835937.273438 8.210937 4.109375 9.777343.929688.378907 1.886719.554688 2.832032.554688 2.957031 0 5.761718-1.761719 6.945312-4.667969l9.085938-22.28125c1.355468-3.316406.96875-7.074219-1.03125-10.046875s-5.332032-4.75-8.914063-4.75zm0 0"/><path d="m362.625 446.589844h-2.082031c.671875-2.070313 1.035156-4.273438 1.035156-6.5625 0-11.886719-9.8125-21.558594-21.867187-21.558594h-.625l21.722656-49.820312c3.4375-7.90625 2.8125-17.019532-1.675782-24.378907l-54.644531-89.453125c-1.949219-3.191406-4.417969-5.988281-7.257812-8.308594-.15625-.148437-.324219-.289062-.492188-.425781-13.570312-10.710937-26.941406-5.976562-42.1875-7.121093v-12.488282c9.476563-3.855468 18.179688-9.605468 25.628907-17.058594 11.578124-11.566406 19.046874-26.144531 21.6875-41.976562 5.160156-.660156 19.816406 3.042969 32.335937-9.476562 6.113281-6.109376 9.476563-14.242188 9.476563-22.894532 0-12.625-7.269532-23.585937-17.847657-28.914062v-5.59375c0-55.449219-45.113281-100.558594-100.5625-100.558594-26.855469 0-52.105469 10.460938-71.101562 29.457031-18.988281 19-29.445313 44.253907-29.445313 71.101563v5.589844c-5.101562 2.570312-9.4375 6.453124-12.554687 11.199218-.632813-7.960937-6.613281-14.675781-14.671875-16.070312-.992188-.171875-2.007813-.257813-3.015625-.257813-8.460938 0-15.78125 6.039063-17.402344 14.363281l-6.457031 33.339844c-2.050782 10.550782-.851563 21.347656 3.460937 31.214844l3.617188 8.265625-4.617188 31.703125c-.597656 4.101562 2.238281 7.90625 6.339844 8.503906 4.089844.601563 7.90625-2.238281 8.503906-6.339844l4.929688-33.828124c.203125-1.390626.011719-2.804688-.550781-4.089844l-4.480469-10.226563c-3.085938-7.066406-3.945313-14.792969-2.476563-22.351562l6.457032-33.332031c.28125-1.441407 1.667968-2.441407 3.140624-2.183594 1.363282.234375 2.339844 1.449218 2.277344 2.824218l-1.28125 27.75c-.082031 1.796876.480469 3.5625 1.59375 4.976563l14.632813 18.632813c2.785156 3.546874 2.984375 8.460937.488281 12.234374l-4.351562 6.589844c-.609376.917969-1.003907 1.960938-1.164063 3.050782l-15.5 106.238281c-.007813.074219-.019531.144531-.027344.21875l-3.292969 22.574219c-.597656 4.097656 2.242188 7.90625 6.339844 8.5.367188.054687.730469.082031 1.09375.082031 3.660156 0 6.867188-2.6875 7.410156-6.417969l2.925782-20.0625 45.316406-39.804688 1.035156 26.777344-67.21875 59.054688c-4.328125 3.808594-8.84375 1.835937-10.125 1.140625-1.285156-.695313-5.402344-3.410157-4.570312-9.113281l12.859375-88.132813c.597656-4.097656-2.242188-7.90625-6.339844-8.503906-4.082031-.597657-7.90625 2.238281-8.503906 6.339843l-12.859375 88.132813c-1.460938 10.027344 3.351562 19.628906 12.261718 24.460937 8.90625 4.832032 19.574219 3.632813 27.179688-3.058593l58.066406-51.019531 4.203125 107.832031h-2.882812c-7.433594 0-13.484375 6.050781-13.484375 13.488281v15.746094h-15.835938v-15.746094c0-7.4375-6.046875-13.488281-13.480468-13.488281h-15.960938c-7.4375 0-13.484375 6.050781-13.484375 13.488281v15.746094h-17.363281c-12.425782 0-22.53125 10.109375-22.53125 22.53125v35.378906c0 4.140625 3.355468 7.5 7.5 7.5h43.0625c4.144531 0 7.5-3.359375 7.5-7.5s-3.355469-7.5-7.5-7.5h-35.566406v-27.878906c0-4.152344 3.375-7.53125 7.527343-7.53125h297.730469c4.152344 0 7.53125 3.378906 7.53125 7.53125v27.878906h-246.128906c-4.144532 0-7.5 3.359375-7.5 7.5s3.355468 7.5 7.5 7.5h253.628906c4.144531 0 7.5-3.359375 7.5-7.5v-35.378906c0-12.425782-10.109375-22.53125-22.53125-22.53125zm-48.667969-76.898438-11.367187 26.058594c-1.796875-.382812-3.664063-.585938-5.574219-.585938h-2.988281l2.195312-56.429687 17.585938 28.785156c.410156.664063.460937 1.453125.148437 2.171875zm-27.773437 40.476563h.042968.019532c.097656 0 .1875 0 .28125-.003907h10.488281c2.042969 0 3.964844.523438 5.640625 1.445313.144531.089844.289062.175781.4375.253906 2.441406 1.480469 4.300781 3.828125 5.152344 6.605469h-32.972656c1.445312-4.703125 5.769531-8.160156 10.910156-8.300781zm-1.753906-154.21875-.785157 20.140625c-.160156 4.136718 3.066407 7.625 7.203125 7.785156 4.15625.152344 7.625-3.0625 7.785156-7.203125l.097657-2.503906 47.597656 77.917969c1.945313 3.191406 2.21875 7.148437.726563 10.574218l-23.730469 54.421875c-1.003907-5.484375-3.6875-10.390625-7.496094-14.164062l11.875-27.222657c2.265625-5.183593 1.859375-11.164062-1.09375-15.996093l-29.339844-48.015625.117188-2.914063c.160156-4.136719-3.066407-7.625-7.207031-7.785156-4.167969-.132813-7.621094 3.066406-7.78125 7.207031l-3.433594 88.054688c-10.019532 2.953125-17.617188 11.625-18.984375 22.222656h-29.582031c-12.058594 0-21.867188 9.671875-21.867188 21.5625 0 2.285156.363281 4.488281 1.035156 6.558594h-25.613281v-15.746094c0-6.777344-5.023437-12.402344-11.542969-13.347656l-4.84375-124.21875c0-.023438 0-.050782 0-.074219l-1.511718-38.992187c3.25-.542969 7.042968-.148438 19.179687-.25 3.527344 18.894531 20.140625 33.242187 40.035156 33.242187 19.90625 0 36.519531-14.347656 40.050781-33.242187 9.105469.492187 12.871094-1.191407 19.109376 1.988281zm-37.378907-1.988281h2.84375c-3.214843 10.546874-13.039062 18.238281-24.625 18.238281-11.578125 0-21.398437-7.691407-24.613281-18.238281h2.847656c4.140625 0 7.5-3.359376 7.5-7.5v-15.613282c4.625.863282 9.394532 1.3125 14.269532 1.3125 4.839843 0 9.617187-.441406 14.277343-1.300781v15.601563c0 4.140624 3.355469 7.5 7.5 7.5zm22.527344-55.152344c-6.972656 6.972656-15.300781 12.097656-24.390625 15.132812-.3125.082032-.617188.179688-.914062.300782-6.066407 1.921874-12.457032 2.917968-19.003907 2.917968-31.300781 0-57.3125-23.074218-61.921875-53.105468 4.457032 1.746093 9.25 2.683593 14.136719 2.683593 12.585937 0 24.445313-6.152343 31.71875-16.453125 3.378906-4.785156 9.121094-7.644531 15.363281-7.644531h1.410156c6.179688 0 12 2.964844 15.570313 7.929687 7.652344 10.628907 20.046875 16.644532 33.117187 16.132813 4.410157-.175781 8.628907-1.085937 12.539063-2.605469-1.996094 13.097656-8.082031 25.171875-17.625 34.710938zm-108.828125-53.917969c-.175781-.195313-.355469-.378906-.546875-.558594-.679687-.714843-1.320313-1.480469-1.921875-2.289062-4.570312-6.183594-5.835938-14.152344-3.472656-21.859375 2.917968-9.519532 12.15625-16.167969 22.445312-16.167969h28.148438c4.484375 6.617187 11.816406 10.53125 19.871094 10.53125 8.054687 0 15.390624-3.914063 19.875-10.53125h27.917968c13.847656 0 24.761719 11.6875 23.800782 25.582031-.832032 11.917969-10.847657 21.632813-22.808594 22.117188-8.054688.3125-15.636719-3.378906-20.332032-9.90625-6.386718-8.871094-16.757812-14.167969-27.75-14.167969h-1.410156c-11.105468 0-21.429687 5.230469-27.617187 13.992187-4.464844 6.324219-11.742188 10.101563-19.464844 10.101563-6.375 0-12.300781-2.453125-16.734375-6.84375zm112.316406-55.875h-29.292968c-4.355469 0-8.476563 2.355469-10.757813 6.140625-1.65625 2.75-4.550781 4.390625-7.742187 4.390625-3.1875 0-6.085938-1.640625-7.738282-4.390625-2.28125-3.785156-6.402344-6.140625-10.757812-6.140625h-29.503906c-4.839844 0-9.539063.910156-13.890626 2.582031 4.265626-24.914062 26.023438-43.9375 52.140626-43.9375h19.507812c26.148438 0 47.929688 19.070313 52.15625 44.027344-4.464844-1.746094-9.253906-2.671875-14.121094-2.671875zm50.53125 58.339844c-7.074218 7.074219-15.425781 4.5625-20.375 5.085937 4.898438-6.011718 8.03125-13.535156 8.605469-21.800781.308594-4.441406-.117187-8.792969-1.230469-12.929687h.710938c9.59375 0 17.371094 7.804687 17.371094 17.359374 0 4.644532-1.804688 9.007813-5.082032 12.285157zm-158.824218-107.292969c16.164062-16.160156 37.648437-25.0625 60.496093-25.0625 47.179688 0 85.5625 38.382812 85.5625 85.558594v2.152344h-7.898437v-2.160157c0-37.4375-30.460938-67.890625-67.902344-67.890625h-19.507812c-37.441407 0-67.902344 30.453125-67.902344 67.890625v2.160157h-7.898438v-2.152344c0-22.84375 8.894532-44.332032 25.050782-60.496094zm-25.542969 77.648438h.695312c-3 11.707031-.746093 23.722656 6.296875 33.25.371094.503906.753906.996093 1.148438 1.480468h-8.140625c-4.636719 0-9-1.804687-12.277344-5.085937-3.277344-3.277344-5.082031-7.640625-5.082031-12.285157 0-9.542968 7.761718-17.359374 17.359375-17.359374zm-29.800781 162.640624 12.3125-84.414062 3.421874-5.1875c5.210938-7.867188 5.59375-17.796875 1.304688-25.914062 3.976562 1.707031 8.300781 2.605468 12.761719 2.605468h9.46875c4.511719 26.796875 22.796875 48.984375 47.300781 58.992188v12.527344c-26.769531 0-31.003906-.726563-38.507812 2.074218-.058594.023438-.121094.046875-.183594.070313-.027344.007812-.054688.019531-.085938.03125-3.65625 1.398437-7.066406 3.441406-10.0625 6.066406zm-12.167969 166.238282v-14.234375h12.929687v14.234375zm58.765625 0v-14.234375h8.941406c.070312.003906.144531.003906.21875.003906.070312 0 .140625 0 .210938-.003906h3.554687v14.234375zm74.371094 0c-3.785157 0-6.867188-2.941406-6.867188-6.5625 0-3.617188 3.082031-6.558594 6.867188-6.558594h97.039062c.0625.003906.125.003906.191406.003906.058594 0 .117188-.003906.179688-.003906h11.902344c3.785156 0 6.867187 2.941406 6.867187 6.558594 0 3.621094-3.082031 6.5625-6.867187 6.5625zm0 0"/><path d="m103.308594 471.796875h-13.167969c-4.140625 0-7.5 3.355469-7.5 7.5 0 4.140625 3.359375 7.5 7.5 7.5h13.167969c4.140625 0 7.5-3.359375 7.5-7.5 0-4.144531-3.359375-7.5-7.5-7.5zm0 0"/><path d="m150.808594 486.796875c4.140625 0 7.5-3.359375 7.5-7.5 0-4.144531-3.359375-7.5-7.5-7.5h-13.167969c-4.140625 0-7.5 3.355469-7.5 7.5 0 4.140625 3.359375 7.5 7.5 7.5zm0 0"/><path d="m292.554688 483.597656v-8.605468c0-4.140626-3.359376-7.5-7.5-7.5-4.144532 0-7.5 3.359374-7.5 7.5v8.605468c0 4.140625 3.355468 7.5 7.5 7.5 4.140624 0 7.5-3.359375 7.5-7.5zm0 0"/><path d="m328.59375 483.597656v-8.605468c0-4.140626-3.355469-7.5-7.5-7.5s-7.5 3.359374-7.5 7.5v8.605468c0 4.140625 3.355469 7.5 7.5 7.5s7.5-3.359375 7.5-7.5zm0 0"/><path d="m423.667969 143.59375c-2.449219-2.105469-5.683594-3.03125-8.878907-2.542969l-53.109374 8.140625c-5.4375.832032-9.382813 5.429688-9.382813 10.929688v31.816406c-2.113281-.6875-4.367187-1.058594-6.703125-1.058594-11.964844 0-21.699219 9.734375-21.699219 21.699219s9.734375 21.699219 21.699219 21.699219 21.703125-9.734375 21.703125-21.699219v-49.070313l45.226563-6.933593v26.128906c-2.109376-.683594-4.363282-1.058594-6.699219-1.058594-11.96875 0-21.703125 9.738281-21.703125 21.703125s9.734375 21.699219 21.703125 21.699219c11.964843 0 21.699219-9.734375 21.699219-21.699219v-51.367187c0-3.226563-1.40625-6.285157-3.855469-8.386719zm-78.074219 75.6875c-3.695312 0-6.699219-3.007812-6.699219-6.703125s3.003907-6.699219 6.699219-6.699219 6.703125 3.003906 6.703125 6.699219-3.007813 6.703125-6.703125 6.703125zm60.230469-9.230469c-3.695313 0-6.703125-3.007812-6.703125-6.703125 0-3.695312 3.007812-6.699218 6.703125-6.699218 3.695312 0 6.699219 3.003906 6.699219 6.699218 0 3.695313-3.003907 6.703125-6.699219 6.703125zm0 0"/><path d="m43.402344 392.1875 10.515625 7.285156c3.40625 2.355469 8.078125 1.507813 10.4375-1.898437 2.355469-3.402344 1.507812-8.078125-1.898438-10.433594l-11.507812-7.96875c-4.410157-3.054687-10.097657-3.402344-14.847657-.914063-4.75 2.484376-7.699218 7.363282-7.699218 12.726563v18.703125c-2.113282-.6875-4.363282-1.058594-6.703125-1.058594-11.964844 0-21.699219 9.734375-21.699219 21.699219 0 11.96875 9.734375 21.703125 21.699219 21.703125 11.96875 0 21.703125-9.734375 21.703125-21.703125zm-21.703125 44.84375c-3.695313 0-6.703125-3.007812-6.703125-6.703125 0-3.691406 3.007812-6.699219 6.703125-6.699219 3.695312 0 6.699219 3.007813 6.699219 6.699219 0 3.695313-3.003907 6.703125-6.699219 6.703125zm0 0"/><path d="m233.742188 187.796875h-15.121094c-15.828125 0-20.910156-10.832031-21.390625-16.558594-.015625-.207031-.023438-.414062-.023438-.621093v-.347657c0-4.140625 3.355469-7.5 7.5-7.5 4.023438 0 7.3125 3.171875 7.492188 7.15625.277343 1.011719 1.46875 2.871094 6.421875 2.871094h15.121094c4.144531 0 7.5 3.355469 7.5 7.5 0 4.140625-3.355469 7.5-7.5 7.5zm-21.5625-17.804687"/></svg>