<svg id="Capa_1" enable-background="new 0 0 512 512" height="512" viewBox="0 0 512 512" width="512" xmlns="http://www.w3.org/2000/svg"><g><g><path d="m409.6 375.467c0-37.703-30.564-68.267-68.267-68.267h-170.666c-37.703 0-68.267 30.564-68.267 68.267v46.615h307.2z" fill="#8efcb4"/><path d="m341.333 307.201h-23.694c37.703 0 68.267 30.564 68.267 68.267v46.615h23.694v-46.615c0-37.704-30.564-68.267-68.267-68.267z" fill="#7bd9c2"/><path d="m221.867 267.795v39.405c0 18.851 15.282 34.133 34.133 34.133s34.133-15.282 34.133-34.133v-39.406h-68.266z" fill="#edbc98"/><path d="m266.326 267.795v39.406c0 14.664-9.249 27.164-22.229 31.996 3.707 1.379 7.716 2.137 11.904 2.137 18.851 0 34.133-15.282 34.133-34.133v-39.406z" fill="#d9997c"/><path d="m140.8 85.334h-55.467c-9.426 0-17.067 7.641-17.067 17.067s7.641 17.067 17.067 17.067h55.467z" fill="#1c3173"/><path d="m112.839 85.334h27.961v34.133h-27.961z" fill="#162664"/><path d="m136.533 110.642v-25.308c0-47.129 38.205-85.334 85.334-85.334h68.267c47.128 0 85.333 38.205 85.333 85.333v25.308h-238.934z" fill="#355b90"/><path d="m290.133 0h-23.694c47.128 0 85.333 38.205 85.333 85.334v25.308h23.694v-25.308c0-47.129-38.204-85.334-85.333-85.334z" fill="#2b4983"/><path d="m376.05 102.4c9.103 0 16.483 7.38 16.483 16.483v69.434c0 9.103-7.38 16.483-16.483 16.483h-240.1c-9.103 0-16.483-7.38-16.483-16.483v-69.434c0-9.103 7.38-16.483 16.483-16.483z" fill="#e9f5fc"/><path d="m376.05 102.4h-23.797c9.103 0 16.483 7.38 16.483 16.483v69.435c0 9.103-7.38 16.483-16.483 16.483h23.797c9.103 0 16.483-7.38 16.483-16.483v-69.435c0-9.103-7.379-16.483-16.483-16.483z" fill="#c5e0fa"/><path d="m170.667 102.4v102.4c0 47.128 38.205 85.333 85.333 85.333 3.488 0 6.927-.209 10.306-.616l22.812-6.491c30.13-13.171 51.186-43.24 51.186-78.227v-102.399z" fill="#edbc98"/><path d="m317.639 102.4v102.4c0 43.106-31.968 78.726-73.486 84.496 3.874.538 7.825.837 11.847.837 47.128 0 85.333-38.205 85.333-85.333v-102.4z" fill="#d9997c"/><path d="m341.333 119.467h-170.666v-34.133c0-28.277 22.923-51.2 51.2-51.2h68.267c28.277 0 51.2 22.923 51.2 51.2v34.133z" fill="#7fe0fc"/><path d="m290.133 34.133h-23.716c28.277 0 51.2 22.923 51.2 51.2v34.133h23.716v-34.132c0-28.277-22.923-51.201-51.2-51.201z" fill="#6cbef2"/><path d="m273.067 102.4c0-9.426-7.641-17.067-17.067-17.067s-17.067 7.641-17.067 17.067v17.067h34.133v-17.067z" fill="#edbc98"/><path d="m443.733 414.751v-22.218c0-9.426-7.641-17.067-17.067-17.067h-34.133c-9.426 0-17.067 7.641-17.067 17.067v22.218z" fill="#edbc98"/><path d="m426.667 375.467h-23.694c9.426 0 17.067 7.641 17.067 17.066v22.218h23.694v-22.218c-.001-9.425-7.642-17.066-17.067-17.066z" fill="#d9997c"/><g><g><g><path d="m68.267 280.793c-13.671 0-24.794-11.122-24.794-24.793s11.123-24.794 24.794-24.794 24.793 11.123 24.793 24.794-11.122 24.793-24.793 24.793zm0-34.134c-5.151 0-9.341 4.19-9.341 9.341 0 5.15 4.19 9.34 9.341 9.34 5.15 0 9.34-4.19 9.34-9.34s-4.19-9.341-9.34-9.341z" fill="#7fe0fc"/></g><g><path d="m443.734 280.793c-13.671 0-24.794-11.122-24.794-24.793s11.123-24.794 24.794-24.794 24.793 11.123 24.793 24.794-11.122 24.793-24.793 24.793zm0-34.134c-5.151 0-9.341 4.19-9.341 9.341 0 5.15 4.19 9.34 9.341 9.34 5.15 0 9.34-4.19 9.34-9.34s-4.19-9.341-9.34-9.341z" fill="#7fe0fc"/></g></g></g><g><g fill="#f5de84"><path d="m51.2 43.473h-9.34v-9.34c0-4.268-3.459-7.726-7.726-7.726s-7.726 3.459-7.726 7.726v9.34h-9.34c-4.268 0-7.726 3.459-7.726 7.726s3.459 7.726 7.726 7.726h9.34v9.341c0 4.268 3.459 7.726 7.726 7.726s7.726-3.459 7.726-7.726v-9.341h9.34c4.268 0 7.726-3.459 7.726-7.726s-3.459-7.726-7.726-7.726z"/><path d="m494.933 43.473h-9.34v-9.34c0-4.268-3.459-7.726-7.726-7.726s-7.726 3.459-7.726 7.726v9.34h-9.34c-4.268 0-7.726 3.459-7.726 7.726s3.459 7.726 7.726 7.726h9.34v9.341c0 4.268 3.459 7.726 7.726 7.726s7.726-3.459 7.726-7.726v-9.341h9.34c4.268 0 7.726-3.459 7.726-7.726s-3.459-7.726-7.726-7.726z"/></g></g><g><g><path d="m332.062 187.734h-43.392c-4.526 0-8.867-1.798-12.068-4.999l-8.533-8.533c-6.665-6.665-17.471-6.665-24.136 0l-8.533 8.533c-3.201 3.201-7.542 4.999-12.068 4.999h-44.423c-4.552 0-8.241-3.69-8.241-8.242v-60.025h169.636v60.025c-.001 4.552-3.691 8.242-8.242 8.242z" fill="#355b90"/></g></g><path d="m317.639 119.467v60.025c0 4.552-3.69 8.241-8.241 8.241h23.694c4.552 0 8.242-3.69 8.242-8.241v-60.025z" fill="#2b4983"/><path d="m136.533 414.751v-22.218c0-9.426-7.641-17.067-17.067-17.067h-34.133c-9.426 0-17.067 7.641-17.067 17.067v22.218z" fill="#edbc98"/><path d="m119.467 375.467h-23.695c9.426 0 17.067 7.641 17.067 17.066v22.218h23.694v-22.218c0-9.425-7.641-17.066-17.066-17.066z" fill="#d9997c"/><g><g><g><g><path d="m221.867 417.326c-4.268 0-7.726-3.459-7.726-7.726v-8.533c0-4.268 3.459-7.726 7.726-7.726 4.268 0 7.726 3.459 7.726 7.726v8.533c0 4.268-3.459 7.726-7.726 7.726z" fill="#7fe0fc"/></g></g><g><g><path d="m256 417.326c-4.268 0-7.726-3.459-7.726-7.726v-8.533c0-4.268 3.459-7.726 7.726-7.726s7.726 3.459 7.726 7.726v8.533c.001 4.268-3.458 7.726-7.726 7.726z" fill="#f5de84"/></g></g><path d="m477.866 486.4v-59.733c0-9.426-7.641-17.067-17.067-17.067h-409.599c-9.426 0-17.067 7.641-17.067 17.067v59.733z" fill="#e9f5fc"/><g fill="#c5e0fa"><path d="m460.8 409.6h-23.694c9.426 0 17.067 7.641 17.067 17.066v59.734h23.694v-59.733c-.001-9.426-7.641-17.067-17.067-17.067z"/><path d="m331.993 486.4v-76.8h-15.453v76.8z"/><path d="m195.46 486.4v-76.8h-15.453v76.8z"/></g></g><path d="m503.466 477.867c4.713 0 8.533 3.82 8.533 8.533v17.067c0 4.713-3.82 8.533-8.533 8.533h-494.933c-4.712 0-8.533-3.82-8.533-8.533v-17.067c0-4.713 3.821-8.533 8.533-8.533z" fill="#355b90"/><path d="m153.6 512h-34.133v-35.2c0-8.836 7.163-16 16-16h2.133c8.837 0 16 7.164 16 16z" fill="#7fe0fc"/><path d="m503.466 477.866h-23.694c4.713 0 8.533 3.821 8.533 8.533v17.067c0 4.713-3.821 8.533-8.533 8.533h23.694c4.713 0 8.533-3.82 8.533-8.533v-17.066c.001-4.712-3.82-8.534-8.533-8.534z" fill="#2b4983"/><path d="m137.117 460.8h-1.168c-4.342 0-8.28 1.692-11.224 4.436 3.228 3.009 5.258 7.286 5.258 12.047v34.717h23.617v-34.717c0-9.104-7.38-16.483-16.483-16.483z" fill="#6cbef2"/></g></g><g><path d="m256 246.659c-11.86 0-22.92-6.382-28.863-16.656-2.137-3.694-.874-8.421 2.819-10.557 3.694-2.136 8.42-.873 10.557 2.819 3.19 5.515 9.125 8.942 15.487 8.942 6.36 0 12.295-3.426 15.486-8.94 2.139-3.694 6.866-4.953 10.557-2.817 3.693 2.138 4.955 6.864 2.817 10.557-5.944 10.272-17.003 16.652-28.86 16.652z" fill="#d9997c"/></g></g></svg>