<svg xmlns="http://www.w3.org/2000/svg" xmlns:xlink="http://www.w3.org/1999/xlink" version="1.1" x="0px" y="0px" viewBox="0 0 64 80" style="enable-background:new 0 0 64 64;" xml:space="preserve"><path d="M19,22.25c-0.965,0-1.75,0.785-1.75,1.75s0.785,1.75,1.75,1.75s1.75-0.785,1.75-1.75S19.965,22.25,19,22.25z M18.75,24  c0-0.138,0.112-0.25,0.25-0.25s0.25,0.112,0.25,0.25C19.25,24.275,18.75,24.275,18.75,24z"/><path style="fill:#AB7C94;" d="M29,22.25c-0.965,0-1.75,0.785-1.75,1.75s0.785,1.75,1.75,1.75s1.75-0.785,1.75-1.75S29.965,22.25,29,22.25z M28.75,24  c0-0.138,0.112-0.25,0.25-0.25s0.25,0.112,0.25,0.25C29.25,24.275,28.75,24.275,28.75,24z"/><path d="M61,56h-2v-2h-2v2h-2v-2c0-0.552-0.447-1-1-1h-7c-0.553,0-1,0.448-1,1v2h-4v-2.697l9.832-14.748  c0.061-0.091,0.106-0.191,0.134-0.297l4.004-15.015l0.881-3.523c0.479-0.212,0.9-0.543,1.198-0.991l1.887-2.829  c0.796-1.194,0.564-2.786-0.537-3.703L55,8.532V4.799C55,3.255,53.744,2,52.201,2h-0.402C50.256,2,49,3.255,49,4.799v5.247  c0,0.337-0.16,0.639-0.439,0.828c-0.278,0.188-0.619,0.226-0.932,0.101l-0.486-0.195c-0.713-0.285-1.522-0.263-2.218,0.06  c-0.696,0.323-1.234,0.926-1.477,1.654c-0.37,1.108-0.005,2.342,0.906,3.071l3.413,2.73l-6.927,15.239  C39.332,36.854,36,39,32.352,39H31v-3.052l2.321-1.272c0.057-0.031,0.11-0.067,0.16-0.109c0.61-0.509,1.12-1.109,1.519-1.772V33  c3.309,0,6-2.691,6-6v-3c0-1.627-0.793-3.061-2-3.974v-3.108c2.387-1.386,4-3.964,4-6.918V7c0-0.552-0.447-1-1-1h-6.14  C35.274,3.881,32.782,2,28,2h-8h-4c-2.191,0-4.285,1.047-5.6,2.8C9.497,6.003,9,7.495,9,9v10.417C7.235,20.19,6,21.954,6,24v4  c0,2.414,1.721,4.434,4,4.899v8.605C5.798,42.977,2,44.89,2,47v14c0,0.552,0.447,1,1,1h28h30c0.553,0,1-0.448,1-1v-4  C62,56.448,61.553,56,61,56z M48,55h5v1h-5V55z M49.625,17.219l-4.021-3.217c-0.26-0.208-0.363-0.56-0.259-0.876  c0.07-0.21,0.221-0.378,0.422-0.472c0.203-0.093,0.428-0.1,0.633-0.018l0.486,0.195c0.927,0.371,1.972,0.256,2.797-0.302  C50.508,11.971,51,11.042,51,10.046V4.799C51,4.358,51.358,4,51.799,4h0.402C52.642,4,53,4.358,53,4.799V9  c0,0.297,0.132,0.578,0.359,0.768l4.759,3.966c0.314,0.262,0.38,0.716,0.153,1.057l-1.887,2.83  c-0.183,0.273-0.445,0.337-0.585,0.351c-0.14,0.014-0.411,0.003-0.645-0.23l-2.448-2.448l-1.414,1.414l2.448,2.448  c0.295,0.295,0.646,0.515,1.026,0.653l-0.733,2.934l-3.958,14.84l-4.623,6.934l-2.479-10.742l-0.053,0.012l6.988-15.373  C50.1,17.997,49.982,17.505,49.625,17.219z M19,39.052v-2.008l0.382,0.209C20.272,37.742,21.28,38,22.298,38h3.404  c0.002,0,0.004,0,0.006,0h0.001c0.002,0,0.003,0,0.005,0h0.001c0.002,0,0.004,0,0.005,0h0.001c0.003,0,0.006-0.001,0.006,0  c0.004,0,0.006,0,0.006,0c0.004,0,0.006,0,0.006,0c0.004,0,0.006,0,0.006,0c0.004,0,0.006,0,0.006,0c0.002,0,0.004,0,0.006,0  c0.004-0.001,0.005,0,0.007,0s0.006,0,0.006,0c0.002,0,0.005,0,0.007,0h0.001c0.992-0.012,1.973-0.27,2.842-0.746L29,37.044v2.008  C29,41.229,27.229,43,25.052,43h-2.104C20.771,43,19,41.229,19,39.052z M34,29.19c0,1.457-0.629,2.83-1.729,3.781L27.657,35.5  c-0.52,0.285-1.099,0.453-1.689,0.492L22.298,36c-0.682,0-1.357-0.173-1.955-0.5l-4.614-2.529C14.629,32.02,14,30.647,14,29.19V21  c0.189,0,0.355-0.066,0.506-0.157l0.009,0.015L19.277,18H34v2v8V29.19z M35,8v2c0,3.309-2.691,6-6,6h-0.726  C29.941,14.533,31,12.39,31,10V8H35z M29,10c0,3.309-2.691,6-6,6h-3v-2c0-3.309,2.691-6,6-6h3V10z M39,27  c0,1.94-1.389,3.559-3.225,3.922C35.918,30.361,36,29.782,36,29.19V28v-7c1.654,0,3,1.346,3,3V27z M37,19.101  C36.677,19.035,36.342,19,36,19v-1.069c0.341-0.043,0.674-0.109,1-0.194V19.101z M41,10c0,3.309-2.691,6-6,6h-0.726  C35.941,14.533,37,12.39,37,10V8h4V10z M20,4h8c3.044,0,4.952,0.903,5.668,2H26c-4.411,0-8,3.589-8,8v2.434l-3,1.8V9  c0-1.075,0.355-2.141,1-3C16.939,4.748,18.435,4,20,4z M11,9c0-1.075,0.355-2.141,1-3c0.736-0.982,1.814-1.653,3-1.898  C14.786,4.32,14.585,4.553,14.4,4.8C13.497,6.003,13,7.495,13,9v10h-2V9z M8,28v-4c0-1.654,1.346-3,3-3h1v8.19  c0,0.62,0.091,1.225,0.247,1.81H11C9.346,31,8,29.654,8,28z M12,33h1.136c0.378,0.581,0.837,1.112,1.384,1.567  c0.049,0.041,0.103,0.078,0.159,0.108L17,35.948v3.104c0,0.133,0.011,0.263,0.02,0.394c-1.485,0.369-3.24,0.84-5.02,1.397V33z M4,47  c0-0.76,2.424-2.038,6-3.336V60H4V47z M24,60h-8v-8h8V60z M30,57v3h-4v-9c0-0.552-0.447-1-1-1H15c-0.553,0-1,0.448-1,1v9h-2V42.975  c1.69-0.552,3.549-1.09,5.484-1.578C18.395,43.514,20.501,45,22.948,45h2.104c2.597,0,4.805-1.675,5.614-4h1.686  c3.66,0,7.055-1.782,9.159-4.674l2.418,10.479l-3.76,5.641C40.059,52.609,40,52.803,40,53v3h-2v-2h-2v2h-2v-2h-2v2h-1  C30.447,56,30,56.448,30,57z M60,60H32v-2h28V60z"/><text x="0" y="79" fill="#000000" font-size="5px" font-weight="bold" font-family="'Helvetica Neue', Helvetica, Arial-Unicode, Arial, Sans-serif">Created by dDara</text><text x="0" y="84" fill="#000000" font-size="5px" font-weight="bold" font-family="'Helvetica Neue', Helvetica, Arial-Unicode, Arial, Sans-serif">from the Noun Project</text></svg>