<?xml version="1.0" encoding="iso-8859-1"?>
<!-- Generator: Adobe Illustrator 19.0.0, SVG Export Plug-In . SVG Version: 6.00 Build 0)  -->
<svg version="1.1" id="Capa_1" xmlns="http://www.w3.org/2000/svg" xmlns:xlink="http://www.w3.org/1999/xlink" x="0px" y="0px"
	 viewBox="0 0 480.005 480.005" style="enable-background:new 0 0 480.005 480.005;" xml:space="preserve">
<g>
	<path style="fill:#7FCAC9;" d="M128.003,240.005h-16v-80h72v16h-56V240.005z"/>
	<path style="fill:#7FCAC9;" d="M368.003,176.005h-72v-16h56v-64h16V176.005z"/>
	<path style="fill:#7FCAC9;" d="M104.003,456.005c-2.122,0-4.156-0.844-5.656-2.344l-40-40c-3.07-3.178-2.982-8.242,0.196-11.312
		c3.1-2.995,8.016-2.995,11.116,0l32.688,32.688l74.76-127.088c2.24-3.809,7.143-5.08,10.952-2.84
		c3.809,2.24,5.08,7.143,2.84,10.952l0,0l-80,136c-1.254,2.133-3.425,3.566-5.88,3.88
		C104.682,455.982,104.342,456.004,104.003,456.005L104.003,456.005z"/>
	<path style="fill:#7FCAC9;" d="M376.003,456.005c-0.34-0.002-0.679-0.023-1.016-0.064c-2.455-0.314-4.626-1.747-5.88-3.88l-80-136
		c-2.24-3.809-0.969-8.712,2.84-10.952c3.809-2.24,8.712-0.969,10.952,2.84l0,0l74.76,127.088l32.688-32.688
		c3.178-3.07,8.242-2.982,11.312,0.196c2.995,3.1,2.995,8.016,0,11.116l-40,40C380.159,455.162,378.124,456.005,376.003,456.005z"/>
</g>
<circle style="fill:#FFD782;" cx="240.003" cy="96.005" r="72"/>
<g>
	<path style="fill:#E9686A;" d="M184.003,168.005h112v144h-112V168.005z"/>
	<path style="fill:#E9686A;" d="M304.003,320.005h-128v-160h128V320.005z M192.003,304.005h96v-128h-96V304.005z"/>
</g>
<path style="fill:#FDBD40;" d="M408.003,96.005c-4.418,0-8-3.582-8-8c-0.026-22.08-17.92-39.974-40-40c-4.418,0-8-3.582-8-8
	s3.582-8,8-8c30.911,0.04,55.96,25.089,56,56C416.003,92.424,412.421,96.005,408.003,96.005z"/>
<g>
	<circle style="fill:#FFD782;" cx="360.003" cy="88.005" r="16"/>
	<path style="fill:#FFD782;" d="M360.003,112.005c-13.255,0-24-10.745-24-24s10.745-24,24-24s24,10.745,24,24
		S373.258,112.005,360.003,112.005z M360.003,80.005c-4.418,0-8,3.582-8,8s3.582,8,8,8s8-3.582,8-8S364.421,80.005,360.003,80.005z"
		/>
</g>
<path style="fill:#FDBD40;" d="M120.003,304.005c-30.911-0.04-55.96-25.089-56-56c0-4.418,3.582-8,8-8s8,3.582,8,8
	c0.026,22.08,17.92,39.974,40,40c4.418,0,8,3.582,8,8S124.421,304.005,120.003,304.005z"/>
<g>
	<circle style="fill:#FFD782;" cx="120.003" cy="248.005" r="16"/>
	<path style="fill:#FFD782;" d="M120.003,272.005c-13.255,0-24-10.745-24-24c0-13.255,10.745-24,24-24s24,10.745,24,24
		C144.003,261.26,133.258,272.005,120.003,272.005z M120.003,240.005c-4.418,0-8,3.582-8,8s3.582,8,8,8s8-3.582,8-8
		S124.421,240.005,120.003,240.005z"/>
</g>
<g>
	<path style="fill:#5A6470;" d="M200.003,64.005h16v16h-16V64.005z"/>
	<path style="fill:#5A6470;" d="M264.003,64.005h16v16h-16V64.005z"/>
</g>
<path style="fill:#E9686A;" d="M208.003,104.005h64l-32,32L208.003,104.005z"/>
<g>
	<circle style="fill:#FDBD40;" cx="24.003" cy="88.005" r="16"/>
	<path style="fill:#FDBD40;" d="M24.003,112.005c-13.255,0-24-10.745-24-24s10.745-24,24-24s24,10.745,24,24
		S37.258,112.005,24.003,112.005z M24.003,80.005c-4.418,0-8,3.582-8,8s3.582,8,8,8s8-3.582,8-8S28.421,80.005,24.003,80.005z"/>
	<path style="fill:#FDBD40;" d="M40.003,96.005c-4.418,0-8-3.582-8-8v-80C32,5.432,33.236,3.015,35.323,1.509
		c2.081-1.51,4.766-1.916,7.2-1.088c13.99,4.673,27.696,10.156,41.048,16.424c3.954,1.975,5.559,6.782,3.584,10.736
		s-6.782,5.559-10.736,3.584c-9.263-4.434-18.747-8.388-28.416-11.848v68.688C48.003,92.424,44.421,96.005,40.003,96.005z"/>
	<circle style="fill:#FDBD40;" cx="456.003" cy="456.005" r="16"/>
	<path style="fill:#FDBD40;" d="M456.003,480.005c-13.255,0-24-10.745-24-24s10.745-24,24-24s24,10.745,24,24
		S469.258,480.005,456.003,480.005z M456.003,448.005c-4.418,0-8,3.582-8,8s3.582,8,8,8s8-3.582,8-8
		S460.421,448.005,456.003,448.005z"/>
	<path style="fill:#FDBD40;" d="M464.003,368.005h16v88h-16V368.005z"/>
</g>
<path d="M410.347,402.349l-32.688,32.688l-73.656-125.216V176.005h64v-65.472c12.497-4.418,19.046-18.131,14.627-30.627
	S364.5,60.86,352.003,65.279s-19.046,18.131-14.627,30.627c2.416,6.835,7.793,12.211,14.627,14.627v49.472h-64.208
	c35.432-26.395,42.758-76.515,16.363-111.947C277.763,12.626,227.643,5.3,192.211,31.695s-42.758,76.515-16.363,111.947
	c4.633,6.219,10.145,11.731,16.363,16.363h-80.208v65.472c-12.497,4.418-19.046,18.131-14.627,30.627
	c4.418,12.497,18.131,19.046,30.627,14.627c12.497-4.418,19.046-18.131,14.627-30.627c-2.416-6.835-7.793-12.211-14.627-14.627
	v-49.472h48v133.816l-73.656,125.216l-32.688-32.688c-3.178-3.069-8.243-2.982-11.312,0.196c-2.994,3.1-2.994,8.015,0,11.116l40,40
	c1.5,1.5,3.534,2.344,5.656,2.344c0.34-0.002,0.679-0.023,1.016-0.064c2.455-0.314,4.626-1.747,5.88-3.88l77.68-132.056h102.848
	l77.68,132.056c1.254,2.133,3.425,3.566,5.88,3.88c0.337,0.041,0.676,0.062,1.016,0.064c2.122,0,4.156-0.844,5.656-2.344l40-40
	c3.07-3.178,2.982-8.242-0.196-11.312C418.363,399.355,413.447,399.355,410.347,402.349z M360.003,80.005c4.418,0,8,3.582,8,8
	s-3.582,8-8,8s-8-3.582-8-8S355.584,80.005,360.003,80.005z M120.003,256.005c-4.418,0-8-3.582-8-8s3.582-8,8-8s8,3.582,8,8
	S124.421,256.005,120.003,256.005z M176.003,96.005c0-35.346,28.654-64,64-64s64,28.654,64,64s-28.654,64-64,64
	C204.673,159.966,176.042,131.335,176.003,96.005z M288.003,304.005h-96v-128h96V304.005z"/>
<path d="M400.003,88.005c0,4.418,3.582,8,8,8s8-3.582,8-8c-0.04-30.912-25.089-55.96-56-56c-4.418,0-8,3.582-8,8s3.582,8,8,8
	C382.083,48.032,399.976,65.925,400.003,88.005z"/>
<path d="M72.003,240.005c-4.418,0-8,3.582-8,8c0.04,30.911,25.089,55.96,56,56c4.418,0,8-3.582,8-8s-3.582-8-8-8
	c-22.08-0.026-39.974-17.92-40-40C80.003,243.587,76.421,240.005,72.003,240.005z"/>
<path d="M200.003,64.005h16v16h-16V64.005z"/>
<path d="M264.003,64.005h16v16h-16V64.005z"/>
<path d="M272.003,96.005h-64c-4.418,0.001-7.999,3.583-7.998,8.002c0,2.121,0.843,4.154,2.342,5.654l32,32
	c3.124,3.123,8.188,3.123,11.312,0l32-32c3.124-3.125,3.123-8.19-0.002-11.314C276.157,96.848,274.123,96.006,272.003,96.005z
	 M240.003,124.693l-12.688-12.688h25.376L240.003,124.693z"/>
<path d="M87.203,27.581c1.976-3.952,0.374-8.757-3.578-10.733c-0.002-0.001-0.004-0.002-0.006-0.003
	C70.254,10.577,56.534,5.093,42.531,0.421c-2.434-0.828-5.119-0.422-7.2,1.088c-2.09,1.504-3.329,3.921-3.328,6.496v57.472
	c-2.562-0.948-5.268-1.445-8-1.472c-13.255,0-24,10.745-24,24s10.745,24,24,24s24-10.745,24-24V19.317
	c9.672,3.473,19.159,7.441,28.424,11.888c3.947,1.985,8.756,0.394,10.741-3.554C87.18,27.628,87.191,27.605,87.203,27.581z
	 M24.003,96.005c-4.418,0-8-3.582-8-8s3.582-8,8-8s8,3.582,8,8S28.421,96.005,24.003,96.005z"/>
<path d="M464.003,433.477c-2.562-0.948-5.268-1.445-8-1.472c-13.255,0-24,10.745-24,24s10.745,24,24,24s24-10.745,24-24v-88h-16
	V433.477z M456.003,464.005c-4.418,0-8-3.582-8-8s3.582-8,8-8s8,3.582,8,8S460.421,464.005,456.003,464.005z"/>
<g>
</g>
<g>
</g>
<g>
</g>
<g>
</g>
<g>
</g>
<g>
</g>
<g>
</g>
<g>
</g>
<g>
</g>
<g>
</g>
<g>
</g>
<g>
</g>
<g>
</g>
<g>
</g>
<g>
</g>
</svg>
