<?xml version="1.0" encoding="UTF-8"?>
<svg xmlns="http://www.w3.org/2000/svg" xmlns:xlink="http://www.w3.org/1999/xlink" width="100pt" height="100pt" viewBox="0 0 100 100" version="1.1">
<g id="surface180837">
<path style=" stroke:none;fill-rule:nonzero;fill:rgb(80%,80%,80%);fill-opacity:1;" d="M 50 63.5 C 42.542969 63.5 36.5 57.457031 36.5 50 C 36.5 42.542969 42.542969 36.5 50 36.5 C 57.457031 36.5 63.5 42.542969 63.5 50 C 63.5 57.457031 57.457031 63.5 50 63.5 Z M 50 63.5 "/>
<path style=" stroke:none;fill-rule:nonzero;fill:rgb(47.058824%,62.745098%,81.176471%);fill-opacity:1;" d="M 2.269531 20.328125 C 0.84375 20.328125 -0.308594 21.484375 -0.308594 22.910156 C -0.308594 24.335938 0.84375 25.488281 2.269531 25.488281 C 3.695312 25.488281 4.851562 24.335938 4.851562 22.910156 C 4.851562 21.484375 3.695312 20.328125 2.269531 20.328125 Z M 2.269531 20.328125 "/>
<path style=" stroke:none;fill-rule:nonzero;fill:rgb(94.509804%,73.72549%,9.803922%);fill-opacity:1;" d="M 84.828125 0.980469 C 84.117188 0.980469 83.539062 1.558594 83.539062 2.269531 C 83.539062 2.984375 84.117188 3.558594 84.828125 3.558594 C 85.542969 3.558594 86.121094 2.984375 86.121094 2.269531 C 86.121094 1.558594 85.542969 0.980469 84.828125 0.980469 Z M 84.828125 0.980469 "/>
<path style=" stroke:none;fill-rule:nonzero;fill:rgb(0%,0%,0%);fill-opacity:1;" d="M 50 2.269531 C 23.640625 2.269531 2.269531 23.640625 2.269531 50 C 2.269531 76.359375 23.640625 97.730469 50 97.730469 C 76.359375 97.730469 97.730469 76.359375 97.730469 50 C 97.730469 23.640625 76.359375 2.269531 50 2.269531 Z M 50 2.269531 "/>
<path style=" stroke:none;fill-rule:nonzero;fill:rgb(94.509804%,73.72549%,9.803922%);fill-opacity:1;" d="M 92.570312 -0.308594 C 89.71875 -0.308594 87.410156 2 87.410156 4.851562 C 87.410156 7.699219 89.71875 10.011719 92.570312 10.011719 C 95.417969 10.011719 97.730469 7.699219 97.730469 4.851562 C 97.730469 2 95.417969 -0.308594 92.570312 -0.308594 Z M 92.570312 -0.308594 "/>
<path style=" stroke:none;fill-rule:nonzero;fill:rgb(47.058824%,62.745098%,81.176471%);fill-opacity:1;" d="M 97.730469 13.878906 C 96.304688 13.878906 95.148438 15.035156 95.148438 16.460938 C 95.148438 17.886719 96.304688 19.039062 97.730469 19.039062 C 99.15625 19.039062 100.308594 17.886719 100.308594 16.460938 C 100.308594 15.035156 99.15625 13.878906 97.730469 13.878906 Z M 97.730469 13.878906 "/>
<path style=" stroke:none;fill-rule:nonzero;fill:rgb(98.431373%,80.392157%,34.901961%);fill-opacity:1;" d="M 89.988281 80.960938 C 88.566406 80.960938 87.410156 82.113281 87.410156 83.539062 C 87.410156 84.964844 88.566406 86.121094 89.988281 86.121094 C 91.414062 86.121094 92.570312 84.964844 92.570312 83.539062 C 92.570312 82.113281 91.414062 80.960938 89.988281 80.960938 Z M 4.851562 61.609375 C 2 61.609375 -0.308594 63.921875 -0.308594 66.769531 C -0.308594 69.621094 2 71.929688 4.851562 71.929688 C 7.699219 71.929688 10.011719 69.621094 10.011719 66.769531 C 10.011719 63.921875 7.699219 61.609375 4.851562 61.609375 Z M 4.851562 61.609375 "/>
<path style=" stroke:none;fill-rule:nonzero;fill:rgb(47.058824%,62.745098%,81.176471%);fill-opacity:1;" d="M 17.75 95.148438 C 16.324219 95.148438 15.171875 96.304688 15.171875 97.730469 C 15.171875 99.15625 16.324219 100.308594 17.75 100.308594 C 19.175781 100.308594 20.328125 99.15625 20.328125 97.730469 C 20.328125 96.304688 19.175781 95.148438 17.75 95.148438 Z M 17.75 95.148438 "/>
<path style=" stroke:none;fill-rule:nonzero;fill:rgb(100%,100%,100%);fill-opacity:1;" d="M 9.363281 51.289062 C 7.582031 51.289062 6.140625 52.734375 6.140625 54.515625 C 6.140625 56.296875 7.582031 57.738281 9.363281 57.738281 C 11.144531 57.738281 12.589844 56.296875 12.589844 54.515625 C 12.589844 52.734375 11.144531 51.289062 9.363281 51.289062 Z M 9.363281 51.289062 "/>
<path style=" stroke:none;fill-rule:nonzero;fill:rgb(94.509804%,73.72549%,9.803922%);fill-opacity:1;" d="M 12.589844 70.640625 C 11.878906 70.640625 11.300781 71.21875 11.300781 71.929688 C 11.300781 72.640625 11.878906 73.21875 12.589844 73.21875 C 13.300781 73.21875 13.878906 72.640625 13.878906 71.929688 C 13.878906 71.21875 13.300781 70.640625 12.589844 70.640625 Z M 12.589844 70.640625 "/>
<path style=" stroke:none;fill-rule:nonzero;fill:rgb(100%,100%,100%);fill-opacity:1;" d="M 88.699219 28.070312 C 87.988281 28.070312 87.410156 28.648438 87.410156 29.359375 C 87.410156 30.074219 87.988281 30.648438 88.699219 30.648438 C 89.414062 30.648438 89.988281 30.074219 89.988281 29.359375 C 89.988281 28.648438 89.414062 28.070312 88.699219 28.070312 Z M 88.699219 28.070312 "/>
<path style=" stroke:none;fill-rule:nonzero;fill:rgb(91.764706%,31.764706%,40.392157%);fill-opacity:1;" d="M 30.949219 46.707031 C 32.515625 37.589844 40.4375 30.648438 50 30.648438 C 54.34375 30.648438 58.339844 32.097656 61.570312 34.515625 L 69.816406 25.632812 C 64.417969 21.210938 57.519531 18.554688 50 18.554688 C 34.59375 18.554688 21.800781 29.695312 19.207031 44.359375 Z M 30.949219 46.707031 "/>
<path style=" stroke:none;fill-rule:nonzero;fill:rgb(0%,65.098039%,59.607843%);fill-opacity:1;" d="M 61.488281 65.566406 C 58.273438 67.941406 54.300781 69.351562 50 69.351562 C 39.882812 69.351562 31.59375 61.585938 30.734375 51.691406 L 19.242188 55.523438 C 21.917969 70.085938 34.664062 81.121094 50 81.121094 C 58.078125 81.121094 65.4375 78.058594 70.988281 73.03125 Z M 61.488281 65.566406 "/>
<path style=" stroke:none;fill-rule:nonzero;fill:rgb(28.235294%,74.509804%,84.705882%);fill-opacity:1;" d="M 73.863281 44.195312 L 50.644531 44.195312 L 50.644531 55.804688 L 68.460938 55.804688 C 67.078125 60.210938 64.160156 63.933594 60.339844 66.355469 L 69.683594 74.144531 C 76.757812 68.410156 81.28125 59.65625 81.28125 49.839844 C 81.28125 47.910156 81.097656 46.027344 80.765625 44.195312 Z M 73.863281 44.195312 "/>
<path style=" stroke:none;fill-rule:nonzero;fill:rgb(99.215686%,90.588235%,31.764706%);fill-opacity:1;" d="M 30.648438 50 C 30.648438 47.183594 31.265625 44.515625 32.347656 42.101562 L 22.261719 35.378906 C 20.003906 39.703125 18.71875 44.621094 18.71875 49.839844 C 18.71875 54.71875 19.835938 59.339844 21.832031 63.457031 L 31.941406 56.449219 C 31.46875 54.777344 30.648438 51.824219 30.648438 50 Z M 30.648438 50 "/>
<path style=" stroke:none;fill-rule:nonzero;fill:rgb(27.843137%,16.862745%,16.078431%);fill-opacity:1;" d="M 50 82.023438 C 32.253906 82.023438 17.816406 67.585938 17.816406 49.839844 C 17.816406 32.089844 32.253906 17.652344 50 17.652344 C 57.417969 17.652344 64.65625 20.238281 70.386719 24.9375 L 71.128906 25.546875 L 61.679688 35.726562 L 61.027344 35.238281 C 57.804688 32.828125 53.992188 31.554688 50 31.554688 C 39.828125 31.554688 31.554688 39.828125 31.554688 50 C 31.554688 60.171875 39.828125 68.445312 50 68.445312 C 57.683594 68.445312 64.441406 63.78125 67.1875 56.707031 L 50 56.71875 L 49.988281 43.582031 L 81.507812 43.570312 L 81.640625 44.3125 C 81.996094 46.25 82.183594 47.925781 82.183594 49.839844 C 82.183594 67.585938 67.746094 82.023438 50 82.023438 Z M 50 19.460938 C 33.25 19.460938 19.621094 33.085938 19.621094 49.839844 C 19.621094 66.589844 33.25 80.21875 50 80.21875 C 66.75 80.21875 80.378906 66.589844 80.378906 49.839844 C 80.378906 48.277344 80.242188 46.964844 79.992188 45.378906 L 51.539062 45.378906 L 51.546875 54.902344 L 69.691406 54.902344 L 69.324219 56.074219 C 66.660156 64.554688 58.894531 70.253906 50 70.253906 C 38.832031 70.253906 29.746094 61.167969 29.746094 50 C 29.746094 38.832031 38.832031 29.746094 50 29.746094 C 54.113281 29.746094 58.054688 30.980469 61.449219 33.316406 L 68.488281 25.734375 C 63.207031 21.683594 56.679688 19.460938 50 19.460938 Z M 50 19.460938 "/>
</g>
</svg>
