<svg xmlns="http://www.w3.org/2000/svg" data-name="Layer 1" viewBox="0 0 64 80" x="0px" y="0px"><title>Hand-gestures2</title><path d="M49.75421,9.7107a4.96453,4.96453,0,0,0-4.95852,4.959v5.73867a4.895,4.895,0,0,0-6.93473.997,4.89568,4.89568,0,0,0-6.93388-.99809V4.95852a4.95852,4.95852,0,0,0-9.917,0V26.39223l-2.60331-4.01651a4.95876,4.95876,0,0,0-8.32456,5.39062L22.49959,46.97994a10.81057,10.81057,0,0,0,4.43757,3.88754V58.589a.99433.99433,0,1,0,1.98865,0v-6.9811a10.91337,10.91337,0,0,0,2.68924.33591h.00146a.99433.99433,0,0,0,0-1.98865h-.00146a8.83109,8.83109,0,0,1-7.4453-4.0545L11.75185,26.68609A2.97,2.97,0,1,1,16.73755,23.457L23.693,34.18868A.99452.99452,0,0,0,25.36216,33.107L22.9987,29.46048V4.95852a2.96987,2.96987,0,1,1,5.93974,0V35.79669a4.94308,4.94308,0,0,0,8.92271,2.9479,4.9434,4.9434,0,0,0,8.9232-2.9479V14.6697a2.96987,2.96987,0,1,1,5.93974,0V41.33734a8.62781,8.62781,0,0,1-8.61781,8.61781.99433.99433,0,1,0,0,1.98865,10.55506,10.55506,0,0,0,2.6907-.3591v11.421a.99433.99433,0,1,0,1.98865,0V50.84133a10.60875,10.60875,0,0,0,5.92711-9.504V14.6697A4.96453,4.96453,0,0,0,49.75421,9.7107ZM33.897,38.767a2.9736,2.9736,0,0,1-2.96987-2.97035V24.35175a2.96987,2.96987,0,0,1,5.93974,0V35.79669A2.9736,2.9736,0,0,1,33.897,38.767Zm10.89874-2.97035a2.97011,2.97011,0,1,1-5.94022,0V24.35175a2.97011,2.97011,0,0,1,5.94022,0V35.79669Z"/><text x="0" y="79" fill="#000000" font-size="5px" font-weight="bold" font-family="'Helvetica Neue', Helvetica, Arial-Unicode, Arial, Sans-serif">Created by Mooms</text><text x="0" y="84" fill="#000000" font-size="5px" font-weight="bold" font-family="'Helvetica Neue', Helvetica, Arial-Unicode, Arial, Sans-serif">from the Noun Project</text></svg>