<?xml version="1.0"?>
<svg xmlns="http://www.w3.org/2000/svg" id="Layer_3" enable-background="new 0 0 64 64" height="512px" viewBox="0 0 64 64" width="512px" class=""><g><g><g><path d="m2 58h60v4h-60z" fill="#8892a0" data-original="#8892A0" class=""/></g><g><path d="m44 42h-24c-4.418 0-8 3.582-8 8v8h40v-8c0-4.418-3.582-8-8-8z" fill="#efbe9a" data-original="#EFBE9A" class="active-path" style="fill:#FFDECC" data-old_color="#efbe9a"/></g><g><path d="m32 53-11-11h-1c-4.418 0-8 3.582-8 8v8h15z" fill="#59ac98" data-original="#59AC98" class=""/></g><g><path d="m52 58v-8c0-4.418-3.582-8-8-8h-1l-16 16z" fill="#70ce90" data-original="#70CE90" class="" style="fill:#EB7D16" data-old_color="#70ce90"/></g><g><path d="m42.345 38.874c-2.375 3.116-6.125 5.126-10.345 5.126-7.18 0-13-5.82-13-13v-19c0-3.314 2.686-6 6-6h14c3.314 0 6 2.686 6 6v19c0 1.553-.272 3.043-.772 4.424" fill="#efbe9a" data-original="#EFBE9A" class="active-path" style="fill:#FFDECC" data-old_color="#efbe9a"/></g><g><path d="m43 39h-2c-1.105 0-2-.895-2-2 0-1.105.895-2 2-2h2c1.105 0 2 .895 2 2 0 1.105-.895 2-2 2z" fill="#4d5d7a" data-original="#4D5D7A" class=""/></g><g><path d="m19 19h9v-4c0-1.105.895-2 2-2h4c1.105 0 2 .895 2 2v4h9v-7c0-3.314-2.686-6-6-6h-14c-3.314 0-6 2.686-6 6z" fill="#3d98f7" data-original="#3D98F7"/></g><g><path d="m50 33h-3c-1.105 0-2-.895-2-2v-6c0-1.105.895-2 2-2h3c1.105 0 2 .895 2 2v6c0 1.105-.895 2-2 2z" fill="#4d5d7a" data-original="#4D5D7A" class=""/></g><g><path d="m17 33h-3c-1.105 0-2-.895-2-2v-6c0-1.105.895-2 2-2h3c1.105 0 2 .895 2 2v6c0 1.105-.895 2-2 2z" fill="#4d5d7a" data-original="#4D5D7A" class=""/></g><g><path d="m54 58v-4h-8v4" fill="#4d5d7a" data-original="#4D5D7A" class=""/></g><g><path d="m18 58v-4h-8v4" fill="#4d5d7a" data-original="#4D5D7A" class=""/></g><g><path d="m32 45c-7.72 0-14-6.28-14-14v-19c0-3.859 3.141-7 7-7h14c3.859 0 7 3.141 7 7v19c0 1.637-.28 3.239-.832 4.765l-1.881-.682c.473-1.306.713-2.68.713-4.083v-19c0-2.757-2.243-5-5-5h-14c-2.757 0-5 2.243-5 5v19c0 6.617 5.383 12 12 12 3.776 0 7.257-1.725 9.55-4.732l1.59 1.213c-2.674 3.507-6.735 5.519-11.14 5.519z" data-original="#000000" class="" style="fill:#000000"/></g><g><path d="m37 19h-2v-4c0-.552-.448-1-1-1h-4c-.552 0-1 .448-1 1v4h-2v-4c0-1.654 1.346-3 3-3h4c1.654 0 3 1.346 3 3z" data-original="#000000" class="" style="fill:#000000"/></g><g><path d="m50 34h-3c-1.654 0-3-1.346-3-3v-6c0-1.654 1.346-3 3-3h3c1.654 0 3 1.346 3 3v6c0 1.654-1.346 3-3 3zm-3-10c-.552 0-1 .448-1 1v6c0 .552.448 1 1 1h3c.552 0 1-.448 1-1v-6c0-.552-.448-1-1-1z" data-original="#000000" class="" style="fill:#000000"/></g><g><path d="m17 34h-3c-1.654 0-3-1.346-3-3v-6c0-1.654 1.346-3 3-3h3c1.654 0 3 1.346 3 3v6c0 1.654-1.346 3-3 3zm-3-10c-.552 0-1 .448-1 1v6c0 .552.448 1 1 1h3c.552 0 1-.448 1-1v-6c0-.552-.448-1-1-1z" data-original="#000000" class="" style="fill:#000000"/></g><g><path d="m50 23h-2v-8c0-6.617-5.383-12-12-12h-8c-6.617 0-12 5.383-12 12v8h-2v-8c0-7.72 6.28-14 14-14h8c7.72 0 14 6.28 14 14z" data-original="#000000" class="" style="fill:#000000"/></g><g><path d="m37.5 29c-.827 0-1.5-.673-1.5-1.5s.673-1.5 1.5-1.5 1.5.673 1.5 1.5-.673 1.5-1.5 1.5z" data-original="#000000" class="" style="fill:#000000"/></g><g><path d="m26.5 29c-.827 0-1.5-.673-1.5-1.5s.673-1.5 1.5-1.5 1.5.673 1.5 1.5-.673 1.5-1.5 1.5z" data-original="#000000" class="" style="fill:#000000"/></g><g><path d="m43 40h-2c-1.654 0-3-1.346-3-3s1.346-3 3-3h2c1.654 0 3 1.346 3 3s-1.346 3-3 3zm-2-4c-.552 0-1 .448-1 1s.448 1 1 1h2c.552 0 1-.448 1-1s-.448-1-1-1z" data-original="#000000" class="" style="fill:#000000"/></g><g><path d="m49 38h-4v-2h3v-3h2v4c0 .553-.447 1-1 1z" data-original="#000000" class="" style="fill:#000000"/></g><g><path d="m23.686 49h22.627v2h-22.627z" transform="matrix(.707 -.707 .707 .707 -25.105 39.393)" data-original="#000000" class="" style="fill:#000000"/></g><g><path d="m25.5 39.722h2v15.556h-2z" transform="matrix(.707 -.707 .707 .707 -25.826 32.65)" data-original="#000000" class="" style="fill:#000000"/></g><g><path d="m53 54h-2v-4c0-3.859-3.141-7-7-7h-5v-2h5c4.963 0 9 4.037 9 9z" data-original="#000000" class="" style="fill:#000000"/></g><g><path d="m13 54h-2v-4c0-4.963 4.037-9 9-9h5v2h-5c-3.859 0-7 3.141-7 7z" data-original="#000000" class="" style="fill:#000000"/></g><g><path d="m32 41c-3.859 0-7-3.141-7-7h2c0 2.757 2.243 5 5 5s5-2.243 5-5h2c0 3.859-3.141 7-7 7z" data-original="#000000" class="" style="fill:#000000"/></g><g><path d="m62 63h-60c-.553 0-1-.447-1-1v-4c0-.553.447-1 1-1h60c.553 0 1 .447 1 1v4c0 .553-.447 1-1 1zm-59-2h58v-2h-58z" data-original="#000000" class="" style="fill:#000000"/></g><g><path d="m55 58h-2v-3h-6v3h-2v-4c0-.553.447-1 1-1h8c.553 0 1 .447 1 1z" data-original="#000000" class="" style="fill:#000000"/></g><g><path d="m19 58h-2v-3h-6v3h-2v-4c0-.553.447-1 1-1h8c.553 0 1 .447 1 1z" data-original="#000000" class="" style="fill:#000000"/></g><g><path d="m58 51c-1.654 0-3-1.346-3-3s1.346-3 3-3 3 1.346 3 3-1.346 3-3 3zm0-4c-.552 0-1 .448-1 1s.448 1 1 1 1-.448 1-1-.448-1-1-1z" data-original="#000000" class="" style="fill:#000000"/></g><g><path d="m61 48h-2v-6c0-.553.447-1 1-1h3v2h-2z" data-original="#000000" class="" style="fill:#000000"/></g><g><path d="m4 51c-1.654 0-3-1.346-3-3s1.346-3 3-3 3 1.346 3 3-1.346 3-3 3zm0-4c-.552 0-1 .448-1 1s.448 1 1 1 1-.448 1-1-.448-1-1-1z" data-original="#000000" class="" style="fill:#000000"/></g><g><path d="m7 48h-2v-6c0-.553.447-1 1-1h3v2h-2z" data-original="#000000" class="" style="fill:#000000"/></g><g><path d="m35 34h-3c-.553 0-1-.447-1-1v-8h2v7h2z" data-original="#000000" class="" style="fill:#000000"/></g><g><path d="m23 22h7v2h-7z" data-original="#000000" class="" style="fill:#000000"/></g><g><path d="m34 22h7v2h-7z" data-original="#000000" class="" style="fill:#000000"/></g><g><path d="m19 18h26v2h-26z" data-original="#000000" class="" style="fill:#000000"/></g></g></g> </svg>
