<?xml version="1.0"?>
<svg xmlns="http://www.w3.org/2000/svg" enable-background="new 0 0 256 256" height="512px" viewBox="0 0 256 256" width="512px" class=""><g><path d="m178.865 80.32c3.577-8.138 5.258-17.297 4.476-26.924-2.245-27.636-25.045-49.575-52.744-50.837-31.849-1.45-58.126 23.941-58.126 55.47 0 7.703 1.572 15.037 4.41 21.702 4.46 10.474 4.407 22.294-.583 32.527-8.854 18.156-16.71 42.284-16.71 70.744 0 65.198 68.412 61.247 68.412 61.247s68.412 3.951 68.412-61.247c0-28.333-7.787-52.373-16.593-70.502-4.909-10.107-5.476-21.893-.954-32.18z" fill="#e3e4e5" data-original="#E3E4E5" class="active-path" style="fill:#C7EBFF" data-old_color="#e3e4e5"/><path d="m179.82 112.5c-4.91-10.107-5.477-21.893-.955-32.18 3.577-8.138 5.258-17.297 4.476-26.924-2.245-27.636-25.045-49.575-52.744-50.837-31.849-1.45-58.126 23.941-58.126 55.47 0 7.703 1.572 15.037 4.41 21.702 4.46 10.474 4.407 22.294-.583 32.527-8.854 18.157-16.71 42.284-16.71 70.744 0 6.782.749 12.805 2.076 18.173-.177-49.097 26.812-87.81 37.468-101.173 2.149-2.695 1.677-6.609-1.007-8.771-23.135-18.626-14.341-45.011-14.341-45.011 2.954-8.861 9.787-14.806 18.818-15.045 8.939-.237 17.075 5.749 19.236 14.426.948 3.807.727 9.169-.344 13.28l1.016-.723c3.032-2.157 7.948-2.157 10.98 0l1.016.723c-1.071-4.112-1.292-9.473-.344-13.28 2.161-8.677 10.297-14.663 19.236-14.426 9.031.239 15.864 6.185 18.818 15.045 0 0 8.795 26.385-14.34 45.011-2.685 2.161-3.156 6.076-1.007 8.771 10.656 13.363 37.646 52.076 37.468 101.173 1.326-5.368 2.076-11.391 2.076-18.173-.001-28.333-7.788-52.373-16.593-70.502z" fill="#52565b" data-original="#52565B" class=""/><path d="m76.298 112.258c1.014-2.08 1.814-4.227 2.423-6.413-8.994 5.068-25.026 12.319-38.23 8.718-22.111-6.03-38.192-9.045-23.116 13.066 10.137 14.867 27.543 26.085 44.581 28.488 2.982-16.95 8.433-31.741 14.342-43.859z" fill="#52565b" data-original="#52565B" class=""/><path d="m215.509 114.564c-13.194 3.598-29.213-3.64-38.211-8.707.644 2.269 1.479 4.496 2.522 6.644 5.864 12.073 11.262 26.78 14.223 43.617 17.039-2.403 34.445-13.621 44.582-28.488 15.076-22.112-1.005-19.097-23.116-13.066z" fill="#52565b" data-original="#52565B" class=""/><g fill="#f9bd55"><path d="m170.172 234.077c-9.278 5.526-19.38 8.087-27.372 9.26-.761 4.044-.139 8.712 7.676 6.908 13.066-3.015 21.906 8.646 39.197 0 8.005-4.002-7.9-11.546-19.501-16.168z" data-original="#F9BD55" class=""/><path d="m85.828 234.077c-11.602 4.621-27.507 12.165-19.501 16.168 17.292 8.646 26.131-3.015 39.197 0 7.815 1.803 8.437-2.865 7.676-6.908-7.992-1.172-18.094-3.734-27.372-9.26z" data-original="#F9BD55" class=""/><path d="m142.484 64.557-8.994-6.398c-3.032-2.157-7.948-2.157-10.98 0l-8.994 6.398c-3.032 2.157-3.032 5.654 0 7.811l8.994 6.398c3.032 2.157 7.948 2.157 10.98 0l8.994-6.398c3.032-2.157 3.032-5.654 0-7.811z" data-original="#F9BD55" class=""/><path d="m128 69.235c5.939 0 11.583-.439 16.697-1.226-.145-1.258-.86-2.49-2.213-3.452l-8.994-6.398c-3.032-2.157-7.948-2.157-10.98 0l-8.994 6.398c-1.353.963-2.068 2.194-2.213 3.452 5.114.787 10.758 1.226 16.697 1.226z" data-original="#F9BD55" class=""/></g><path d="m130.456 246.804c-1.253 0-2.101-.034-2.456-.051-2.665.133-33.078 1.177-53.384-17.988-11.631-10.979-17.528-26.375-17.528-45.762 0-24.586 5.707-48.756 16.963-71.839 4.579-9.389 4.772-20.488.53-30.451-3.06-7.186-4.61-14.817-4.61-22.682 0-16.001 6.373-30.903 17.946-41.961 11.565-11.053 26.764-16.734 42.793-16.008 29.072 1.324 52.77 24.166 55.123 53.132.783 9.657-.835 19.385-4.68 28.132-4.135 9.407-3.802 20.372.915 30.083 11.177 23.01 16.844 47.098 16.844 71.594 0 19.387-5.897 34.784-17.528 45.762-17.597 16.609-42.786 18.039-50.928 18.039zm-2.479-241.804c-13.724 0-26.64 5.162-36.605 14.683-10.576 10.105-16.4 23.724-16.4 38.346 0 7.188 1.417 14.161 4.21 20.723 4.811 11.297 4.579 23.909-.636 34.602-10.92 22.395-16.457 45.828-16.457 69.648 0 17.957 5.37 32.13 15.961 42.126 19.246 18.168 49.499 16.645 49.807 16.625.096-.005.191-.005.287 0 .301.016 30.632 1.502 49.833-16.648 10.575-9.995 15.937-24.161 15.937-42.103 0-23.733-5.498-47.085-16.342-69.409-5.358-11.032-5.721-23.526-.995-34.279 3.563-8.105 5.001-16.757 4.273-25.715-2.149-26.463-23.802-47.332-50.365-48.542-.84-.038-1.675-.057-2.508-.057z" data-original="#000000" class=""/><path d="m176.829 256c-4.492 0-8.434-1.055-12.118-2.041-4.775-1.277-8.899-2.379-13.673-1.278-3.993.922-6.993.45-8.92-1.4-1.887-1.811-2.484-4.64-1.775-8.407.197-1.048 1.038-1.856 2.094-2.011 10.086-1.479 18.987-4.485 26.456-8.935.668-.398 1.484-.462 2.204-.174 20.353 8.107 23.11 12.649 23.239 15.7.062 1.454-.504 3.506-3.545 5.027-5.268 2.634-9.846 3.519-13.962 3.519zm-21.821-8.766c3.909 0 7.494.959 10.995 1.896 6.804 1.82 13.231 3.539 22.552-1.12.396-.198.614-.36.729-.461-.367-.729-2.877-4.198-18.909-10.696-7.319 4.166-15.821 7.074-25.315 8.661-.029 1.035.148 1.802.521 2.161.599.573 2.217.625 4.333.135 1.766-.408 3.458-.576 5.094-.576z" data-original="#000000" class=""/><path d="m79.171 256c-4.116 0-8.693-.885-13.962-3.519-3.041-1.521-3.606-3.573-3.545-5.027.129-3.051 2.887-7.593 23.239-15.7.72-.288 1.536-.224 2.204.174 7.469 4.449 16.37 7.455 26.456 8.935 1.056.155 1.896.963 2.094 2.011.709 3.767.111 6.596-1.775 8.407-1.926 1.851-4.928 2.321-8.92 1.4-4.777-1.103-8.899.001-13.672 1.278-3.685.987-7.627 2.041-12.119 2.041zm-12.454-8.452c.114.102.333.264.729.461 9.319 4.66 15.748 2.941 22.552 1.12 4.966-1.328 10.102-2.703 16.09-1.32 2.114.489 3.734.438 4.333-.135.373-.358.551-1.126.521-2.161-9.494-1.587-17.996-4.496-25.315-8.661-16.033 6.498-18.543 9.968-18.91 10.696z" data-original="#000000" class=""/><path d="m194.338 203.675c-.102 0-.205-.006-.309-.019-1.256-.155-2.198-1.225-2.193-2.49.174-47.892-25.763-85.611-36.923-99.605-2.986-3.746-2.361-9.253 1.394-12.276 21.453-17.271 13.869-41.265 13.536-42.278-2.716-8.145-8.888-13.13-16.511-13.333-7.843-.2-14.885 5.062-16.744 12.531-.806 3.235-.667 8.188.337 12.046.266 1.018-.135 2.092-1 2.688-.866.596-2.013.587-2.869-.022l-1.016-.723c-2.15-1.53-5.929-1.531-8.081 0l-1.015.723c-.856.609-2.003.618-2.869.022-.865-.597-1.266-1.671-1-2.688 1.004-3.858 1.143-8.812.337-12.046-1.859-7.47-8.9-12.736-16.744-12.532-7.623.202-13.795 5.188-16.512 13.337-.332 1.008-7.916 25.002 13.536 42.273 3.756 3.023 4.381 8.531 1.395 12.276-11.16 13.994-37.097 51.713-36.923 99.605.005 1.266-.938 2.335-2.193 2.49-1.262.16-2.431-.653-2.733-1.881-1.427-5.769-2.149-12.085-2.149-18.773 0-24.586 5.707-48.756 16.963-71.839 4.579-9.389 4.772-20.488.53-30.452-3.06-7.185-4.61-14.816-4.61-22.682 0-16.001 6.374-30.904 17.947-41.962 11.565-11.049 26.77-16.731 42.792-16.003 29.071 1.324 52.769 24.166 55.122 53.132.784 9.654-.834 19.382-4.679 28.132-4.136 9.407-3.803 20.372.914 30.082 11.177 23.011 16.844 47.099 16.844 71.594 0 6.688-.723 13.005-2.149 18.773-.279 1.127-1.29 1.9-2.425 1.9zm-66.361-198.675c-13.724 0-26.64 5.161-36.604 14.683-10.578 10.105-16.402 23.724-16.402 38.346 0 7.188 1.417 14.161 4.21 20.723 4.811 11.298 4.579 23.91-.636 34.602-8.821 18.091-14.13 36.858-15.845 55.96 7.616-33.981 25.594-59.731 34.477-70.871 1.276-1.6.998-3.962-.62-5.265-24.208-19.49-15.238-47.468-15.145-47.748 3.411-10.231 11.308-16.494 21.123-16.754 10.218-.276 19.308 6.595 21.729 16.321.671 2.694.84 6.086.525 9.44 2.08-.523 4.342-.522 6.422 0-.314-3.354-.146-6.747.525-9.441 2.42-9.726 11.538-16.615 21.729-16.321 9.815.26 17.712 6.523 21.123 16.754.093.28 9.063 28.258-15.146 47.749-1.617 1.303-1.896 3.665-.619 5.265 8.882 11.139 26.859 36.893 34.477 70.87-1.708-19.016-6.978-37.704-15.729-55.721-5.358-11.033-5.721-23.526-.994-34.279 3.563-8.107 5.001-16.758 4.272-25.714-2.149-26.463-23.802-47.332-50.366-48.542-.838-.038-1.674-.057-2.506-.057z" data-original="#000000" class=""/><path d="m128 82.878c-2.497 0-4.994-.692-6.939-2.076l-8.994-6.398c-2.113-1.503-3.325-3.669-3.325-5.942s1.212-4.439 3.325-5.942l8.994-6.398c3.891-2.769 9.986-2.769 13.879 0l8.994 6.398c2.113 1.503 3.325 3.669 3.325 5.942s-1.212 4.439-3.325 5.942l-8.994 6.398c-1.946 1.385-4.443 2.076-6.94 2.076zm0-23.831c-1.482 0-2.965.383-4.041 1.148l-8.994 6.398c-.789.561-1.224 1.225-1.224 1.868s.435 1.307 1.224 1.868l8.994 6.398c2.152 1.531 5.93 1.531 8.082 0l8.994-6.398c.789-.561 1.224-1.225 1.224-1.868s-.435-1.307-1.224-1.868l-8.994-6.398c-1.076-.765-2.559-1.148-4.041-1.148z" data-original="#000000" class=""/><path d="m128 71.735c-5.917 0-11.662-.422-17.077-1.255-1.329-.204-2.258-1.422-2.104-2.758.235-2.032 1.388-3.88 3.247-5.202l8.994-6.398c3.891-2.769 9.986-2.769 13.879 0l8.994 6.398c1.859 1.322 3.012 3.17 3.247 5.202.154 1.335-.774 2.554-2.104 2.758-5.414.832-11.159 1.255-17.076 1.255zm-12.299-5.665c7.924.884 16.674.884 24.598 0l-8.258-5.874c-2.152-1.531-5.93-1.531-8.082 0z" data-original="#000000" class=""/><path d="m160.371 56.504c-1.381 0-2.5-1.119-2.5-2.5 0-1.908-1.553-3.46-3.461-3.46s-3.461 1.552-3.461 3.46c0 1.381-1.119 2.5-2.5 2.5s-2.5-1.119-2.5-2.5c0-4.665 3.796-8.46 8.461-8.46s8.461 3.795 8.461 8.46c0 1.381-1.119 2.5-2.5 2.5z" data-original="#000000" class=""/><path d="m107.551 56.504c-1.381 0-2.5-1.119-2.5-2.5 0-1.908-1.553-3.46-3.461-3.46s-3.461 1.552-3.461 3.46c0 1.381-1.119 2.5-2.5 2.5s-2.5-1.119-2.5-2.5c0-4.665 3.796-8.46 8.461-8.46s8.461 3.795 8.461 8.46c0 1.381-1.119 2.5-2.5 2.5z" data-original="#000000" class=""/><path d="m61.96 158.618c-.116 0-.233-.008-.353-.025-17.573-2.479-35.746-14.08-46.298-29.556-6.139-9.004-7.729-14.629-5.155-18.24 3.582-5.025 13.247-3.486 30.995 1.354 12.477 3.406 28.128-3.854 36.345-8.484.879-.496 1.973-.415 2.771.211.795.624 1.137 1.666.865 2.64-.667 2.387-1.536 4.687-2.585 6.836-6.775 13.895-11.528 28.428-14.126 43.196-.213 1.21-1.265 2.068-2.459 2.068zm-43.933-45.963c-1.886 0-3.271.299-3.802 1.045-.283.398-1.364 2.871 5.215 12.521 9.32 13.67 25.008 24.078 40.502 27.029 2.759-14.39 7.501-28.537 14.108-42.087.015-.029.028-.058.042-.087-9.382 4.5-22.745 9.039-34.26 5.9-4.859-1.327-15.839-4.321-21.805-4.321z" data-original="#000000" class=""/><path d="m194.04 158.618c-1.195 0-2.246-.858-2.459-2.067-2.583-14.684-7.297-29.138-14.011-42.958-1.08-2.226-1.981-4.599-2.678-7.054-.276-.975.062-2.02.858-2.646.797-.626 1.891-.712 2.773-.214 8.212 4.625 23.854 11.878 36.326 8.473 17.748-4.84 27.413-6.378 30.995-1.354 2.574 3.61.983 9.235-5.155 18.24-10.552 15.476-28.725 27.077-46.298 29.556-.117.016-.235.024-.351.024zm-12.131-47.542c.053.111.105.222.159.332 6.545 13.474 11.246 27.539 13.989 41.842 15.494-2.951 31.182-13.359 40.502-27.029 6.579-9.65 5.498-12.123 5.215-12.521-2.213-3.104-19.209 1.53-25.607 3.275-11.513 3.141-24.879-1.402-34.258-5.899z" data-original="#000000" class=""/></g> </svg>
