<svg xmlns="http://www.w3.org/2000/svg" xmlns:xlink="http://www.w3.org/1999/xlink" version="1.1" x="0px" y="0px" viewBox="0 0 100 125" enable-background="new 0 0 100 100" xml:space="preserve"><path d="M52.5,55.2c-0.5,0-1-0.4-1.5-0.8c-0.3-0.2-0.8-0.6-1-0.6s-0.7,0.3-1,0.6c-0.5,0.4-1,0.8-1.5,0.8c-0.2,0-0.3,0-0.5-0.1  c-0.7-0.4-0.5-1.3-0.4-2.1c0-0.3,0.1-0.9,0-1.1c-0.1-0.1-0.6-0.4-0.9-0.5c-0.8-0.3-1.6-0.7-1.6-1.5s0.9-1.1,1.6-1.5  c0.3-0.1,0.8-0.4,0.9-0.5c0.1-0.2,0-0.7,0-1.1c-0.1-0.8-0.2-1.7,0.4-2.1c0.1-0.1,0.3-0.1,0.5-0.1c0.5,0,1,0.4,1.5,0.8  c0.3,0.2,0.8,0.6,1,0.6s0.7-0.3,1-0.6c0.5-0.4,1-0.8,1.5-0.8c0.2,0,0.3,0,0.5,0.1c0.7,0.4,0.5,1.3,0.4,2.1c0,0.3-0.1,0.9,0,1.1  c0.1,0.1,0.6,0.4,0.9,0.5c0.8,0.3,1.6,0.7,1.6,1.5s-0.9,1.1-1.6,1.5c-0.3,0.1-0.8,0.4-0.9,0.5c-0.1,0.2,0,0.7,0,1.1  c0.1,0.8,0.2,1.7-0.4,2.1C52.8,55.2,52.6,55.2,52.5,55.2z M52.5,54.2v0.5V54.2L52.5,54.2L52.5,54.2z M47.5,45.8c0,0.1,0,0.7,0.1,1.1  c0.1,0.6,0.2,1.3-0.1,1.7c-0.2,0.4-0.8,0.7-1.4,0.9c-0.3,0.1-0.9,0.4-1,0.5c0.1,0.1,0.7,0.4,1,0.5c0.6,0.2,1.1,0.5,1.4,0.9  c0.3,0.4,0.2,1.1,0.1,1.7c0,0.3-0.1,1,0,1.1c0.1,0,0.6-0.4,0.8-0.6c0.5-0.4,1-0.8,1.6-0.8s1.1,0.4,1.6,0.8c0.3,0.2,0.7,0.5,0.9,0.6  c0.1-0.2,0-0.7-0.1-1.1c-0.1-0.7-0.2-1.3,0.1-1.7c0.2-0.4,0.8-0.7,1.4-0.9c0.3-0.1,0.9-0.4,1-0.5c-0.1-0.1-0.7-0.4-1-0.5  c-0.6-0.2-1.1-0.5-1.4-0.9c-0.3-0.4-0.2-1.1-0.1-1.7c0-0.3,0.1-1,0-1.1c-0.1,0-0.6,0.4-0.8,0.6c-0.5,0.4-1,0.8-1.6,0.8  s-1.1-0.4-1.6-0.8C48.2,46.1,47.7,45.8,47.5,45.8z"/><path d="M52.3,58.1l-0.1,0c-0.5-0.1-0.9-0.4-1.3-0.8c-0.2-0.2-0.6-0.6-0.8-0.6c-0.1,0-0.6,0.4-0.8,0.6c-0.4,0.4-0.9,0.8-1.3,0.8  l-0.1,0c-0.6,0-0.9-0.4-1.1-0.7c-0.1-0.1-0.2-0.3-0.2-0.3c-0.2,0-0.5,0.1-0.8,0.1c-0.8,0.2-1.5,0.3-1.9-0.1c-0.7-0.6-0.3-1.7,0-2.7  c0.2-0.6,0.4-1.4,0.3-1.7c-0.1-0.3-0.9-0.6-1.5-0.8c-1.1-0.5-2.2-0.9-2.2-1.9s1.1-1.4,2.2-1.9c0.6-0.2,1.4-0.6,1.5-0.8  c0.1-0.3-0.1-1.1-0.3-1.7c-0.3-1.1-0.6-2.2,0-2.7c0.4-0.4,1.2-0.2,1.9-0.1c0.3,0.1,0.6,0.1,0.8,0.1c0.1,0,0.2-0.2,0.3-0.3  c0.2-0.3,0.5-0.7,1.1-0.7l0.1,0c0.5,0.1,0.9,0.4,1.3,0.8c0.2,0.2,0.6,0.6,0.8,0.6c0.1,0,0.6-0.4,0.8-0.6c0.4-0.4,0.9-0.8,1.3-0.8  l0.1,0c0.6,0,0.9,0.4,1.1,0.7c0.1,0.1,0.2,0.3,0.2,0.3c0.2,0,0.5-0.1,0.8-0.1c0.7-0.2,1.5-0.3,1.9,0.1c0.7,0.6,0.3,1.7,0,2.7  c-0.2,0.6-0.4,1.4-0.3,1.7c0.1,0.3,0.9,0.6,1.5,0.8c1.1,0.5,2.2,0.9,2.2,1.9s-1.1,1.4-2.2,1.9c-0.6,0.2-1.4,0.6-1.5,0.8  c-0.1,0.3,0.1,1.1,0.3,1.7c0.3,1.1,0.6,2.2,0,2.7c-0.4,0.4-1.2,0.2-1.9,0.1c-0.3-0.1-0.6-0.1-0.8-0.1c-0.1,0-0.2,0.2-0.3,0.3  C53.1,57.7,52.8,58.1,52.3,58.1z M50,55.7c0.5,0,1,0.4,1.5,0.8c0.2,0.2,0.6,0.5,0.8,0.5h0c0,0,0.2-0.1,0.3-0.2  c0.2-0.3,0.5-0.6,1-0.7l0.1,0c0.3,0,0.6,0.1,1,0.2c0.3,0.1,0.7,0.2,0.9,0.2c0.1,0,0.1,0,0.1,0c0.2-0.2-0.1-1.2-0.3-1.7  c-0.3-0.9-0.5-1.8-0.2-2.4c0.3-0.6,1.1-0.9,2-1.3c0.6-0.2,1.6-0.7,1.6-1s-1-0.7-1.6-1c-0.9-0.4-1.7-0.7-2-1.3  c-0.3-0.6,0-1.5,0.2-2.4c0.1-0.5,0.4-1.5,0.3-1.7c0,0,0,0-0.1,0c-0.2,0-0.6,0.1-0.9,0.2c-0.4,0.1-0.7,0.2-1,0.2l-0.1,0  c-0.5,0-0.8-0.4-1-0.7c-0.1-0.1-0.2-0.3-0.3-0.3c-0.2,0-0.6,0.4-0.8,0.6c-0.5,0.4-0.9,0.9-1.5,0.9s-1-0.4-1.5-0.9  c-0.2-0.2-0.6-0.6-0.8-0.6c0,0,0,0,0,0c-0.1,0-0.2,0.2-0.3,0.3c-0.2,0.3-0.5,0.7-1,0.7l-0.1,0c-0.3,0-0.6-0.1-1-0.2  c-0.3-0.1-0.7-0.2-0.9-0.2c-0.1,0-0.1,0-0.1,0c-0.2,0.2,0.1,1.2,0.3,1.7c0.3,0.9,0.5,1.8,0.2,2.4c-0.3,0.6-1.1,0.9-2,1.3  c-0.6,0.2-1.6,0.7-1.6,1s1,0.7,1.6,1c0.9,0.4,1.7,0.7,2,1.3c0.3,0.6,0,1.5-0.2,2.4c-0.1,0.5-0.4,1.5-0.3,1.7c0,0,0,0,0.1,0  c0.2,0,0.6-0.1,0.9-0.2c0.4-0.1,0.7-0.2,1-0.2l0.1,0c0.5,0,0.8,0.4,1,0.7c0.1,0.1,0.2,0.3,0.3,0.3c0.2,0,0.6-0.4,0.8-0.6  C49,56.1,49.5,55.7,50,55.7z"/><path d="M53.4,61.9c-0.7,0-1.4-0.7-2.1-1.4c-0.4-0.4-1.1-1.1-1.4-1.1s-0.9,0.7-1.4,1.1c-0.7,0.7-1.3,1.4-2.1,1.4  c-0.9,0-1.2-1-1.5-1.7c-0.1-0.4-0.3-1-0.5-1c0,0-0.1,0-0.2,0c-0.3,0-0.8,0.1-1.3,0.2c-1.1,0.3-2.3,0.4-2.8-0.1  c-0.7-0.8-0.2-2.1,0.3-3.4c0.3-0.9,0.8-1.9,0.6-2.4c-0.2-0.4-1.2-0.8-2.1-1.2c-1.4-0.6-2.8-1.2-2.8-2.3c0-1.1,1.4-1.7,2.8-2.3  c0.8-0.4,1.9-0.8,2.1-1.2c0.2-0.4-0.2-1.5-0.6-2.4c-0.5-1.4-1-2.7-0.3-3.4c0.5-0.5,1.6-0.4,2.8-0.1c0.5,0.1,1,0.2,1.3,0.2  c0.1,0,0.2,0,0.2,0c0.2-0.1,0.4-0.7,0.5-1c0.2-0.8,0.5-1.8,1.4-1.8c0,0,0,0,0,0c0.8,0,1.4,0.7,2.1,1.4c0.4,0.4,1.1,1.1,1.4,1.1  s0.9-0.6,1.4-1.1c0.7-0.7,1.3-1.4,2.1-1.4c0.9,0,1.2,1,1.5,1.7c0.1,0.4,0.3,1,0.5,1c0,0,0.1,0,0.2,0c0.3,0,0.8-0.1,1.3-0.2  c1.1-0.3,2.3-0.4,2.8,0.1c0.7,0.8,0.2,2.1-0.3,3.4c-0.3,0.9-0.8,1.9-0.6,2.4c0.2,0.4,1.2,0.8,2.1,1.2c1.4,0.6,2.8,1.2,2.8,2.3  s-1.4,1.7-2.8,2.3c-0.8,0.4-1.9,0.8-2.1,1.2c-0.2,0.4,0.2,1.5,0.6,2.4c0.5,1.4,1,2.7,0.3,3.4c-0.5,0.5-1.6,0.4-2.8,0.1  c-0.5-0.1-1-0.2-1.3-0.2c-0.1,0-0.2,0-0.2,0c-0.2,0.1-0.4,0.7-0.5,1C54.7,60.9,54.4,61.9,53.4,61.9L53.4,61.9z M50,58.5  c0.7,0,1.2,0.7,1.9,1.4c0.4,0.4,1.1,1.1,1.1,1.1v0.5l0.2-0.5c0.2,0,0.5-0.7,0.6-1c0.2-0.7,0.5-1.4,1.2-1.7c0.5-0.2,1.3,0,2.1,0.2  c0.5,0.1,1.1,0.3,1.5,0.3c0.3,0,0.3-0.1,0.3-0.1c0.3-0.3-0.2-1.6-0.5-2.4c-0.5-1.2-0.9-2.3-0.6-3.1c0.3-0.8,1.4-1.2,2.6-1.7  c0.9-0.4,2.2-0.9,2.2-1.4s-1.3-1-2.2-1.4c-1.2-0.5-2.3-1-2.6-1.7c-0.3-0.8,0.1-1.9,0.6-3.1c0.3-0.8,0.8-2.1,0.5-2.4  c0,0-0.1-0.1-0.3-0.1c-0.4,0-0.9,0.1-1.5,0.3c-0.8,0.2-1.6,0.4-2.1,0.2c-0.7-0.2-0.9-1-1.1-1.7c-0.1-0.4-0.3-1-0.5-1l0,0  c-0.3,0-0.9,0.6-1.3,1.1c-0.7,0.7-1.4,1.4-2.1,1.4s-1.4-0.7-2.1-1.4c-0.4-0.4-1.1-1.1-1.3-1.1c-0.2,0-0.4,0.7-0.5,1  c-0.2,0.7-0.4,1.4-1.1,1.7c-0.5,0.2-1.3,0-2.1-0.2c-0.5-0.1-1.1-0.3-1.5-0.3c-0.2,0-0.3,0-0.3,0.1c-0.3,0.3,0.2,1.6,0.5,2.4  c0.5,1.2,0.9,2.3,0.6,3.1c-0.3,0.8-1.4,1.2-2.6,1.7c-0.9,0.4-2.2,0.9-2.2,1.4c0,0.5,1.3,1,2.2,1.4c1.2,0.5,2.3,1,2.6,1.7  c0.3,0.8-0.1,1.9-0.6,3.1c-0.3,0.8-0.8,2.1-0.5,2.4c0,0,0.1,0.1,0.3,0.1c0.4,0,0.9-0.1,1.5-0.3c0.8-0.2,1.6-0.4,2.1-0.2  c0.7,0.2,0.9,1,1.1,1.7c0.1,0.4,0.3,1,0.5,1c0.3,0,0.9-0.6,1.3-1.1C48.6,59.2,49.3,58.5,50,58.5z"/><path d="M45.4,65.8c-0.1,0-0.1,0-0.2,0c-1.1-0.2-1.3-1.4-1.6-2.7c-0.1-0.7-0.3-1.7-0.7-1.8c0,0-0.2-0.1-0.4-0.1  c-0.5,0-1.2,0.2-1.9,0.3c-0.8,0.2-1.6,0.4-2.3,0.4c-0.6,0-1-0.2-1.3-0.5c-0.8-0.9-0.1-2.5,0.6-4.1c0.5-1.1,1.1-2.5,0.9-3  c-0.2-0.5-1.6-1.1-2.6-1.5c-1.8-0.7-3.4-1.4-3.4-2.7c0-1.3,1.7-2,3.4-2.7c1.1-0.5,2.4-1,2.6-1.5c0.2-0.6-0.4-1.9-0.9-3  c-0.7-1.7-1.4-3.2-0.6-4.1c0.3-0.3,0.7-0.5,1.3-0.5c0.7,0,1.5,0.2,2.3,0.4c0.7,0.2,1.4,0.3,1.9,0.3c0.2,0,0.3,0,0.4-0.1  c0.3-0.2,0.5-1.1,0.7-1.8c0.3-1.2,0.5-2.5,1.6-2.7c0.9-0.1,1.8,0.8,2.8,1.9c0.7,0.7,1.5,1.6,2,1.6s1.3-0.9,2-1.6c1-1,1.9-2,2.8-1.9  c1.1,0.2,1.3,1.4,1.6,2.7c0.1,0.7,0.3,1.7,0.7,1.8c0,0,0.2,0.1,0.4,0.1c0.5,0,1.2-0.2,1.9-0.3c0.8-0.2,1.6-0.4,2.3-0.4  c0.6,0,1,0.2,1.3,0.5c0.8,0.9,0.1,2.5-0.6,4.1c-0.5,1.1-1.1,2.5-0.9,3c0.2,0.5,1.6,1.1,2.6,1.5c1.8,0.7,3.4,1.4,3.4,2.7  s-1.7,2-3.4,2.7c-1.1,0.5-2.4,1-2.6,1.5c-0.2,0.6,0.4,1.9,0.9,3c0.7,1.7,1.4,3.2,0.6,4.1c-0.3,0.3-0.7,0.5-1.3,0.5  c-0.7,0-1.5-0.2-2.3-0.4c-0.7-0.2-1.4-0.3-1.9-0.3c-0.2,0-0.3,0-0.4,0.1c-0.3,0.2-0.5,1.1-0.7,1.8c-0.3,1.2-0.5,2.5-1.6,2.7  c-0.9,0.1-1.8-0.8-2.8-1.9c-0.7-0.7-1.5-1.6-2-1.6s-1.3,0.9-2,1.6C47.1,64.9,46.3,65.8,45.4,65.8C45.4,65.8,45.4,65.8,45.4,65.8z   M50,61.3c0.9,0,1.8,0.9,2.7,1.9c0.7,0.7,1.5,1.6,1.9,1.6l0,0c0.4-0.1,0.6-1.1,0.8-1.9c0.2-1.1,0.5-2.2,1.2-2.5  c0.6-0.3,1.8-0.1,3,0.2c0.7,0.2,1.5,0.4,2,0.4c0.4,0,0.5-0.1,0.6-0.1c0.4-0.4-0.3-1.9-0.8-3.1c-0.7-1.5-1.3-2.8-0.9-3.8  c0.4-0.9,1.7-1.5,3.2-2.1c1.2-0.5,2.8-1.2,2.8-1.8s-1.6-1.3-2.8-1.8c-1.5-0.6-2.8-1.2-3.2-2.1c-0.4-1,0.2-2.3,0.9-3.8  c0.5-1.1,1.2-2.6,0.8-3.1c0-0.1-0.2-0.1-0.6-0.1c-0.6,0-1.3,0.2-2,0.4c-1.2,0.3-2.3,0.5-3,0.2c-0.8-0.4-1-1.4-1.2-2.5  c-0.2-0.8-0.4-1.8-0.8-1.9h0c-0.5,0-1.3,0.9-1.9,1.6c-0.9,1-1.8,1.9-2.7,1.9s-1.8-0.9-2.7-1.9c-0.7-0.7-1.5-1.6-1.9-1.6  c-0.4,0.1-0.6,1.1-0.8,1.9c-0.2,1.1-0.5,2.2-1.2,2.5c-0.6,0.3-1.8,0.1-3-0.2c-0.7-0.2-1.5-0.4-2-0.4c-0.3,0-0.5,0-0.6,0.1  c-0.4,0.4,0.3,1.9,0.8,3.1c0.7,1.5,1.3,2.8,0.9,3.8c-0.4,0.9-1.7,1.5-3.2,2.1c-1.2,0.5-2.8,1.2-2.8,1.8s1.6,1.3,2.8,1.8  c1.5,0.6,2.8,1.2,3.2,2.1c0.4,1-0.2,2.3-0.9,3.8c-0.5,1.1-1.2,2.6-0.8,3.1c0,0.1,0.2,0.1,0.6,0.1c0.6,0,1.3-0.2,2-0.4  c1.2-0.3,2.3-0.5,3-0.2c0.8,0.4,1,1.5,1.2,2.6c0.2,0.8,0.4,2,0.8,2c0,0,0,0,0,0c0.5,0,1.3-1,1.9-1.7C48.2,62.3,49.1,61.3,50,61.3z"/><path d="M55.8,69.6c-1,0-2.1-1.2-3.2-2.4c-0.9-0.9-1.9-2.1-2.6-2.1s-1.7,1.2-2.6,2.1c-1.2,1.3-2.4,2.6-3.5,2.4  c-1.2-0.2-1.5-1.9-1.8-3.6c-0.2-1.1-0.4-2.4-0.9-2.7c-0.1,0-0.3-0.1-0.6-0.1c-0.7,0-1.6,0.2-2.5,0.4c-1,0.2-2,0.5-2.9,0.5  c-0.7,0-1.2-0.2-1.6-0.6c-0.9-1.1,0-2.9,0.9-4.8c0.7-1.4,1.4-3,1.2-3.7c-0.3-0.7-1.8-1.3-3.2-1.9c-2.1-0.9-4.1-1.7-4.1-3.2  c0-1.5,2-2.3,4.1-3.2c1.4-0.6,3-1.3,3.2-1.9c0.3-0.7-0.5-2.3-1.2-3.7c-0.9-1.9-1.8-3.8-0.9-4.8c0.3-0.4,0.8-0.6,1.6-0.6  c0.8,0,1.9,0.2,2.8,0.5c0.9,0.2,1.9,0.4,2.5,0.4c0.3,0,0.5-0.1,0.6-0.1c0.5-0.3,0.7-1.6,0.9-2.7c0.3-1.6,0.5-3.3,1.8-3.6  c1.1-0.2,2.3,1,3.5,2.4c0.9,0.9,1.9,2.1,2.6,2.1s1.7-1.2,2.6-2.1c1.2-1.3,2.4-2.6,3.5-2.4c1.2,0.2,1.5,1.9,1.8,3.6  c0.2,1.1,0.4,2.4,0.9,2.7c0.1,0,0.3,0.1,0.6,0.1c0.7,0,1.6-0.2,2.5-0.4c1-0.2,2-0.5,2.9-0.5c0.7,0,1.2,0.2,1.6,0.6  c0.9,1.1,0,2.9-0.9,4.8c-0.7,1.4-1.4,3-1.2,3.7c0.3,0.7,1.8,1.3,3.2,1.9c2.1,0.9,4.1,1.7,4.1,3.2c0,1.5-2,2.3-4.1,3.2  c-1.4,0.6-3,1.3-3.2,1.9c-0.3,0.7,0.5,2.3,1.2,3.7c0.9,1.9,1.8,3.8,0.9,4.8c-0.3,0.4-0.8,0.6-1.6,0.6c-0.8,0-1.9-0.2-2.9-0.5  c-0.9-0.2-1.9-0.4-2.5-0.4c-0.3,0-0.5,0.1-0.6,0.1c-0.5,0.3-0.7,1.6-0.9,2.7c-0.3,1.6-0.5,3.3-1.8,3.6C56,69.6,55.9,69.6,55.8,69.6  C55.8,69.6,55.8,69.6,55.8,69.6z M50,64.1c1.1,0,2.2,1.2,3.3,2.5c0.9,1,2,2.2,2.6,2.1c0.6-0.1,0.8-1.6,1-2.7  c0.2-1.5,0.5-2.9,1.4-3.4c0.8-0.4,2.2-0.1,3.8,0.2c0.9,0.2,1.9,0.4,2.6,0.4c0.3,0,0.6,0,0.8-0.2c0.5-0.6-0.4-2.3-1.1-3.7  c-0.8-1.7-1.6-3.4-1.2-4.5c0.4-1.1,2-1.8,3.8-2.5c1.5-0.6,3.4-1.4,3.4-2.3s-1.9-1.6-3.4-2.3c-1.7-0.7-3.4-1.4-3.8-2.5  c-0.4-1.1,0.4-2.7,1.2-4.5c0.7-1.4,1.5-3.2,1.1-3.7c-0.1-0.2-0.5-0.2-0.8-0.2c-0.7,0-1.7,0.2-2.6,0.4c-1.6,0.4-3.1,0.7-3.8,0.2  c-0.9-0.5-1.1-1.9-1.4-3.4c-0.2-1.2-0.4-2.6-1-2.7c-0.7,0-1.7,1.1-2.6,2.1c-1.2,1.3-2.2,2.5-3.3,2.5c-1.1,0-2.2-1.2-3.3-2.5  c-0.8-0.9-1.9-2.1-2.5-2.1c-0.6,0.1-0.9,1.6-1.1,2.7c-0.2,1.5-0.5,2.9-1.4,3.4c-0.8,0.4-2.2,0.1-3.8-0.2c-0.9-0.2-1.9-0.4-2.6-0.4  c-0.3,0-0.6,0-0.8,0.2c-0.5,0.6,0.4,2.3,1.1,3.7c0.8,1.7,1.6,3.4,1.2,4.5c-0.4,1.1-2,1.8-3.8,2.5c-1.5,0.6-3.4,1.4-3.4,2.3  s1.9,1.6,3.4,2.3c1.7,0.7,3.4,1.4,3.8,2.5c0.4,1.1-0.4,2.8-1.2,4.5c-0.7,1.4-1.5,3.2-1.1,3.7c0.1,0.2,0.5,0.2,0.8,0.2  c0.7,0,1.7-0.2,2.6-0.4c1.6-0.4,3.1-0.7,3.8-0.2c0.9,0.5,1.1,2.1,1.4,3.6c0.2,1.2,0.4,1.9,1,2.9c0,0,0,0,0,0c0.7,0,1.7-1.3,2.6-2.3  C47.8,65.5,48.9,64.1,50,64.1z"/><path d="M43,73.4c-0.1,0-0.2,0-0.3,0c-1.4-0.3-1.7-2.3-2-4.5c-0.2-1.5-0.4-3.1-1-3.5c-0.6-0.3-2.3,0-3.9,0.4  c-1.2,0.3-2.4,0.6-3.4,0.6c-0.9,0-1.4-0.2-1.8-0.7c-1-1.2,0.1-3.3,1.2-5.5c0.8-1.6,1.8-3.5,1.5-4.3c-0.3-0.8-2.2-1.6-3.8-2.3  c-2.4-1-4.7-2-4.7-3.6c0-1.6,2.3-2.6,4.7-3.6c1.7-0.7,3.5-1.5,3.8-2.3c0.3-0.9-0.6-2.7-1.5-4.3c-1.1-2.2-2.2-4.3-1.2-5.5  c0.4-0.5,1-0.7,1.8-0.7c1,0,2.2,0.3,3.4,0.6c1.6,0.4,3.4,0.7,3.9,0.4c0.6-0.4,0.8-2,1-3.5c0.3-2.1,0.6-4.1,2-4.5  c1.3-0.3,2.7,1.2,4.2,2.9c1.1,1.2,2.4,2.6,3.2,2.6s2.1-1.4,3.2-2.6c1.3-1.5,2.6-2.9,3.8-2.9c0.1,0,0.2,0,0.3,0  c1.4,0.3,1.7,2.3,2,4.5c0.2,1.5,0.4,3.1,1,3.5c0.6,0.3,2.3,0,3.9-0.4c1.2-0.3,2.4-0.6,3.4-0.6c0.9,0,1.4,0.2,1.8,0.7  c1,1.2-0.1,3.3-1.2,5.5c-0.8,1.6-1.8,3.5-1.5,4.3c0.3,0.8,2.2,1.6,3.8,2.3c2.4,1,4.7,2,4.7,3.6c0,1.6-2.3,2.6-4.7,3.6  c-1.7,0.7-3.5,1.5-3.8,2.3c-0.3,0.9,0.6,2.7,1.5,4.3c1.1,2.2,2.2,4.3,1.2,5.5c-0.4,0.5-1,0.7-1.8,0.7c-1,0-2.2-0.3-3.4-0.6  c-1.6-0.4-3.4-0.7-3.9-0.4c-0.6,0.4-0.8,2-1,3.5c-0.3,2.1-0.6,4.1-2,4.5c-1.3,0.3-2.7-1.2-4.2-2.9c-1.1-1.2-2.4-2.7-3.2-2.7  s-2.1,1.4-3.2,2.6C45.4,72,44.2,73.4,43,73.4L43,73.4z M50,66.9c1.3,0,2.6,1.4,4,3c1.1,1.3,2.5,2.7,3.2,2.6c0.8-0.2,1-2.1,1.2-3.6  c0.3-1.8,0.5-3.6,1.5-4.2c0.3-0.2,0.8-0.3,1.3-0.3c0.9,0,2.2,0.3,3.3,0.6c1.8,0.4,3.8,0.8,4.2,0.2c0.6-0.7-0.5-2.8-1.4-4.4  c-1-2-2-3.9-1.5-5.1c0.4-1.2,2.3-2,4.4-2.9c1.8-0.8,4.1-1.7,4.1-2.7s-2.3-1.9-4.1-2.7c-2-0.8-3.9-1.6-4.4-2.9  c-0.5-1.3,0.5-3.2,1.5-5.1c0.9-1.7,1.9-3.7,1.4-4.4c-0.4-0.5-2.4-0.2-4.2,0.2c-1.2,0.3-2.4,0.6-3.3,0.6c-0.6,0-1-0.1-1.3-0.3  c-1-0.6-1.3-2.4-1.5-4.2c-0.2-1.5-0.5-3.4-1.2-3.6c-0.7-0.2-2.1,1.3-3.2,2.6c-1.4,1.5-2.7,3-4,3c-1.3,0-2.6-1.4-4-3  c-1.1-1.3-2.5-2.7-3.2-2.6c-0.8,0.2-1,2.1-1.2,3.6c-0.3,1.8-0.5,3.6-1.5,4.2c-0.3,0.2-0.8,0.3-1.3,0.3c-0.9,0-2.2-0.3-3.3-0.6  c-1.8-0.4-3.8-0.8-4.2-0.2c-0.6,0.7,0.5,2.8,1.4,4.4c1,2,2,3.9,1.5,5.1c-0.4,1.2-2.3,2-4.4,2.9c-1.8,0.8-4.1,1.7-4.1,2.7  s2.3,1.9,4.1,2.7c2,0.8,3.9,1.6,4.4,2.9c0.5,1.3-0.5,3.2-1.5,5.1c-0.9,1.7-1.9,3.7-1.4,4.4c0.4,0.5,2.4,0.2,4.2-0.2  c1.2-0.3,2.4-0.6,3.3-0.6c0.6,0,1,0.1,1.3,0.3c1,0.6,1.3,2.4,1.5,4.2c0.2,1.5,0.5,3.4,1.2,3.6c0.7,0.2,2.1-1.3,3.2-2.6  C47.4,68.3,48.7,66.9,50,66.9z"/><path d="M58.2,77.3c-1.4,0-2.9-1.7-4.4-3.4c-1.3-1.5-2.8-3.2-3.8-3.2c-1,0-2.5,1.7-3.8,3.2c-1.6,1.8-3,3.4-4.4,3.4  c-0.1,0-0.3,0-0.4-0.1c-1.6-0.4-1.9-2.8-2.2-5.3c-0.2-1.8-0.5-3.8-1.2-4.3c-0.7-0.4-2.8,0-4.7,0.4c-1.4,0.3-2.9,0.7-4,0.7  c-1,0-1.7-0.3-2.1-0.8c-1.1-1.4,0.2-3.7,1.6-6.2c1-1.9,2.1-4,1.8-5c-0.3-0.9-2.5-1.9-4.4-2.7c-2.7-1.1-5.3-2.2-5.3-4  c0-1.8,2.6-2.9,5.3-4c1.9-0.8,4.1-1.7,4.4-2.7c0.4-1-0.8-3.1-1.8-5c-1.3-2.5-2.6-4.8-1.6-6.2c0.4-0.5,1.1-0.8,2.1-0.8  c1.1,0,2.6,0.3,4,0.7c2,0.5,4.1,0.9,4.7,0.4c0.8-0.5,1-2.5,1.2-4.3c0.3-2.5,0.6-4.9,2.2-5.3c1.5-0.4,3.1,1.4,4.8,3.4  c1.3,1.5,2.8,3.2,3.8,3.2c1,0,2.5-1.7,3.8-3.2c1.6-1.8,3-3.4,4.4-3.4c0.1,0,0.3,0,0.4,0.1c1.6,0.4,1.9,2.8,2.2,5.3  c0.2,1.8,0.5,3.8,1.2,4.3c0.7,0.4,2.8,0,4.7-0.4c1.4-0.3,2.9-0.7,4-0.7c1,0,1.7,0.3,2.1,0.8c1.1,1.4-0.2,3.7-1.6,6.2  c-1,1.9-2.1,4-1.8,5c0.3,0.9,2.5,1.9,4.4,2.7c2.7,1.1,5.3,2.2,5.3,4c0,1.8-2.6,2.9-5.3,4c-1.9,0.8-4.1,1.7-4.4,2.7  c-0.4,1,0.8,3.1,1.8,5c1.3,2.5,2.6,4.8,1.6,6.2c-0.4,0.5-1.1,0.8-2.1,0.8c-1.1,0-2.6-0.3-4-0.7c-2-0.5-4-0.9-4.7-0.4  c-0.8,0.5-1,2.5-1.2,4.3c-0.3,2.5-0.6,4.9-2.2,5.3C58.5,77.2,58.4,77.3,58.2,77.3z M50,69.7c1.5,0,3,1.7,4.6,3.5  c1.4,1.5,2.9,3.3,3.8,3c0.9-0.2,1.2-2.5,1.5-4.5c0.3-2.2,0.5-4.3,1.7-5c0.4-0.2,0.9-0.4,1.6-0.4c1.1,0,2.5,0.3,3.9,0.7  c1.4,0.3,2.8,0.6,3.8,0.6c0.6,0,1.1-0.1,1.3-0.4c0.7-0.8-0.6-3.1-1.6-5.1c-1.2-2.2-2.4-4.4-1.8-5.8c0.5-1.4,2.7-2.3,5-3.2  c2.2-0.9,4.7-2,4.7-3.1c0-1.2-2.5-2.2-4.7-3.1c-2.3-1-4.5-1.9-5-3.2c-0.5-1.4,0.6-3.6,1.8-5.8c1.1-2,2.3-4.3,1.6-5.1  c-0.2-0.3-0.6-0.4-1.3-0.4c-1,0-2.4,0.3-3.8,0.6c-1.4,0.3-2.8,0.7-3.9,0.7c-0.7,0-1.2-0.1-1.6-0.4c-1.2-0.7-1.4-2.8-1.7-5  c-0.2-2-0.5-4.2-1.5-4.5c-0.9-0.2-2.5,1.5-3.8,3c-1.6,1.8-3.1,3.5-4.6,3.5s-3-1.7-4.6-3.5c-1.4-1.5-2.9-3.3-3.8-3  c-0.9,0.2-1.2,2.5-1.5,4.5c-0.3,2.2-0.5,4.3-1.7,5c-0.4,0.2-0.9,0.4-1.6,0.4c-1.1,0-2.5-0.3-3.9-0.7c-1.4-0.3-2.8-0.6-3.8-0.6  c-0.6,0-1.1,0.1-1.3,0.4c-0.7,0.8,0.6,3.1,1.6,5.1c1.2,2.2,2.4,4.4,1.8,5.8c-0.5,1.4-2.7,2.3-5,3.2c-2.2,0.9-4.7,2-4.7,3.1  c0,1.2,2.5,2.2,4.7,3.1c2.3,1,4.5,1.9,5,3.2c0.5,1.4-0.6,3.6-1.8,5.8c-1.1,2-2.3,4.3-1.6,5.1c0.2,0.3,0.6,0.4,1.3,0.4  c1,0,2.4-0.3,3.8-0.6c1.4-0.3,2.8-0.7,3.9-0.7c0.7,0,1.2,0.1,1.6,0.4c1.2,0.7,1.4,2.8,1.7,5c0.2,2,0.5,4.2,1.5,4.5  c0.9,0.2,2.5-1.5,3.8-3.1C47,71.4,48.5,69.7,50,69.7z"/><path d="M59.5,81.1c-1.5,0-3.2-1.9-5-3.9c-1.5-1.7-3.3-3.7-4.5-3.7s-2.9,2-4.5,3.7c-1.8,2-3.5,3.9-5,3.9c-0.2,0-0.3,0-0.5-0.1  c-1.8-0.5-2.1-3.3-2.4-6.2c-0.2-2.1-0.5-4.6-1.4-5.2c-0.8-0.5-3.2-0.1-5.5,0.5c-1.6,0.4-3.3,0.8-4.6,0.8c-1.1,0-1.9-0.3-2.3-0.9  c-1.1-1.5,0.3-4.1,1.9-6.9c1.2-2.1,2.5-4.5,2.1-5.6c-0.4-1.1-2.8-2.1-5-3c-3-1.3-5.9-2.5-5.9-4.5s2.9-3.2,5.9-4.5  c2.2-0.9,4.6-1.9,5-3c0.4-1.2-0.9-3.5-2.1-5.6c-1.5-2.8-3-5.4-1.9-6.9c0.4-0.6,1.2-0.9,2.3-0.9c1.3,0,3,0.4,4.6,0.8  c2.3,0.5,4.7,1,5.5,0.5c0.9-0.6,1.2-3,1.4-5.2c0.3-2.9,0.6-5.7,2.4-6.2c0.2,0,0.3-0.1,0.5-0.1c1.5,0,3.2,1.9,5,3.9  c1.5,1.7,3.3,3.7,4.5,3.7c1.2,0,2.9-2,4.5-3.7c1.8-2,3.5-3.9,5-3.9c0.2,0,0.3,0,0.5,0.1c1.8,0.5,2.1,3.3,2.4,6.2  c0.2,2.1,0.5,4.6,1.4,5.2c0.8,0.5,3.2,0.1,5.5-0.5c1.6-0.4,3.3-0.8,4.6-0.8c1.1,0,1.9,0.3,2.3,0.9c1.1,1.5-0.3,4.1-1.9,6.9  c-1.2,2.1-2.5,4.5-2.1,5.6c0.4,1.1,2.8,2.1,5,3c3,1.3,5.9,2.5,5.9,4.5s-2.9,3.2-5.9,4.5c-2.2,0.9-4.6,1.9-5,3  c-0.4,1.2,0.9,3.5,2.1,5.6c1.5,2.8,3,5.4,1.9,6.9c-0.4,0.6-1.2,0.9-2.3,0.9c-1.3,0-3-0.4-4.6-0.8c-2.3-0.5-4.7-1-5.5-0.5  c-0.9,0.6-1.2,3-1.4,5.2c-0.3,2.9-0.6,5.7-2.4,6.2C59.8,81.1,59.6,81.1,59.5,81.1C59.5,81.1,59.5,81.1,59.5,81.1z M50,72.5  c1.6,0,3.4,2,5.2,4c1.5,1.7,3.2,3.6,4.3,3.6l0,0c0.1,0,0.1,0,0.2,0c1.1-0.3,1.4-3,1.7-5.4c0.3-2.6,0.5-5,1.8-5.9  c0.4-0.3,1-0.4,1.8-0.4c1.3,0,2.9,0.4,4.5,0.8c1.6,0.4,3.2,0.7,4.4,0.7c0.8,0,1.3-0.2,1.5-0.5c0.7-1-0.7-3.5-1.9-5.8  c-1.4-2.5-2.7-4.9-2.2-6.5c0.5-1.5,3-2.5,5.5-3.6c2.5-1,5.3-2.2,5.3-3.6s-2.8-2.5-5.3-3.6c-2.6-1.1-5-2.1-5.5-3.6  c-0.5-1.6,0.8-4,2.2-6.5c1.3-2.3,2.7-4.8,1.9-5.8c-0.2-0.3-0.8-0.5-1.5-0.5c-1.2,0-2.8,0.4-4.4,0.7c-1.6,0.4-3.2,0.8-4.5,0.8  c-0.8,0-1.4-0.1-1.8-0.4c-1.3-0.9-1.6-3.3-1.8-5.9c-0.3-2.4-0.6-5-1.7-5.4c-1.1-0.3-2.9,1.8-4.5,3.5c-1.8,2.1-3.6,4-5.2,4  c-1.6,0-3.4-2-5.2-4c-1.6-1.8-3.4-3.8-4.5-3.5c-1.1,0.3-1.4,3-1.7,5.4c-0.3,2.6-0.5,5-1.8,5.9c-0.4,0.3-1,0.4-1.8,0.4  c-1.3,0-2.9-0.4-4.5-0.8c-1.6-0.4-3.2-0.7-4.4-0.7c-0.8,0-1.3,0.2-1.5,0.5c-0.7,1,0.7,3.5,1.9,5.8c1.4,2.5,2.7,4.9,2.2,6.5  c-0.5,1.5-3,2.5-5.5,3.6c-2.5,1-5.3,2.2-5.3,3.6s2.8,2.5,5.3,3.6c2.6,1.1,5,2.1,5.5,3.6c0.5,1.6-0.8,4-2.2,6.5  c-1.3,2.3-2.7,4.8-1.9,5.8c0.2,0.3,0.8,0.5,1.5,0.5c1.2,0,2.8-0.4,4.4-0.7c1.6-0.4,3.2-0.8,4.5-0.8c0.8,0,1.4,0.1,1.8,0.4  c1.3,0.9,1.6,3.3,1.8,5.9c0.3,2.4,0.6,5,1.7,5.4c1.1,0.3,2.9-1.8,4.5-3.5C46.6,74.5,48.4,72.5,50,72.5z"/><path d="M39.3,84.9c-0.2,0-0.4,0-0.6-0.1c-2-0.6-2.3-3.7-2.6-7.1c-0.2-2.5-0.5-5.3-1.6-6c-0.3-0.2-0.8-0.3-1.5-0.3  c-1.3,0-3.1,0.4-4.9,0.8c-1.8,0.4-3.7,0.9-5.2,0.9c-1.2,0-2.1-0.3-2.6-1c-1.2-1.6,0.4-4.5,2.2-7.6c1.3-2.3,2.9-5,2.4-6.3  c-0.4-1.2-3.2-2.4-5.6-3.4C16.1,53.5,13,52.2,13,50c0-2.2,3.2-3.5,6.5-4.9c2.4-1,5.2-2.2,5.6-3.4c0.4-1.3-1.1-4-2.4-6.3  c-1.7-3-3.4-5.9-2.2-7.6c0.5-0.6,1.3-1,2.6-1c1.5,0,3.3,0.4,5.2,0.9c1.8,0.4,3.6,0.8,4.9,0.8c0.7,0,1.2-0.1,1.5-0.3  c1-0.7,1.3-3.5,1.6-6c0.3-3.4,0.7-6.5,2.6-7.1c0.2-0.1,0.4-0.1,0.6-0.1c1.7,0,3.6,2.1,5.6,4.4c1.7,2,3.7,4.2,5.1,4.2  s3.3-2.2,5.1-4.2c2-2.3,3.9-4.4,5.6-4.4c0.2,0,0.4,0,0.6,0.1c2,0.6,2.3,3.7,2.6,7.1c0.2,2.5,0.5,5.3,1.6,6c0.3,0.2,0.8,0.3,1.5,0.3  c1.3,0,3.1-0.4,4.9-0.8c1.8-0.4,3.7-0.9,5.2-0.9c1.2,0,2.1,0.3,2.6,1c1.2,1.6-0.4,4.5-2.2,7.6c-1.3,2.3-2.9,5-2.4,6.3  c0.4,1.2,3.2,2.4,5.6,3.4c3.3,1.4,6.5,2.7,6.5,4.9c0,2.2-3.2,3.5-6.5,4.9c-2.4,1-5.2,2.2-5.6,3.4c-0.4,1.3,1.1,4,2.4,6.3  c1.7,3,3.4,5.9,2.2,7.6c-0.5,0.6-1.3,1-2.6,1c-1.5,0-3.3-0.4-5.2-0.9c-1.8-0.4-3.6-0.8-4.9-0.8c-0.7,0-1.2,0.1-1.5,0.3  c-1,0.7-1.3,3.5-1.6,6c-0.3,3.4-0.7,6.5-2.6,7.1c-0.2,0.1-0.4,0.1-0.6,0.1c-1.7,0-3.6-2.1-5.6-4.4c-1.7-2-3.7-4.2-5.1-4.2  s-3.3,2.2-5.1,4.2C42.9,82.8,41,84.9,39.3,84.9C39.3,84.9,39.3,84.9,39.3,84.9z M50,75.3c1.8,0,3.8,2.2,5.8,4.6  c1.8,2.1,3.9,4.4,5.1,4c1.3-0.4,1.6-3.5,1.9-6.2c0.3-3,0.6-5.7,2-6.7c0.5-0.3,1.2-0.5,2-0.5c1.4,0,3.3,0.4,5.1,0.9  c1.8,0.4,3.6,0.8,4.9,0.8c0.9,0,1.5-0.2,1.8-0.6c0.8-1.1-0.8-4-2.2-6.5c-1.6-2.8-3.1-5.4-2.5-7.1c0.6-1.7,3.3-2.8,6.1-4  c2.8-1.2,5.9-2.5,5.9-4c0-1.5-3.1-2.8-5.9-4c-2.9-1.2-5.6-2.3-6.1-4c-0.6-1.7,0.9-4.4,2.5-7.1c1.4-2.5,3.1-5.4,2.2-6.5  c-0.3-0.4-0.9-0.6-1.8-0.6c-1.3,0-3.2,0.4-4.9,0.8c-1.8,0.4-3.7,0.9-5.1,0.9c-0.9,0-1.6-0.2-2-0.5c-1.4-1-1.7-3.8-2-6.7  c-0.3-2.7-0.6-5.9-1.9-6.2c-1.2-0.4-3.3,2-5.1,4c-2.1,2.3-4,4.6-5.8,4.6s-3.8-2.2-5.8-4.6c-1.8-2.1-3.9-4.4-5.1-4  c-1.3,0.4-1.6,3.5-1.9,6.2c-0.3,3-0.6,5.7-2,6.7c-0.5,0.3-1.2,0.5-2,0.5c-1.4,0-3.3-0.4-5.1-0.9c-1.8-0.4-3.6-0.8-4.9-0.8  c-0.9,0-1.5,0.2-1.8,0.6c-0.8,1.1,0.8,4,2.2,6.5c1.6,2.8,3.1,5.4,2.5,7.1c-0.6,1.7-3.3,2.8-6.1,4c-2.8,1.2-5.9,2.5-5.9,4  s3.1,2.8,5.9,4c2.9,1.2,5.6,2.3,6.1,4c0.6,1.7-0.9,4.4-2.5,7.1c-1.4,2.5-3.1,5.4-2.2,6.5c0.3,0.4,0.9,0.6,1.8,0.6  c1.3,0,3.2-0.4,4.9-0.8c1.8-0.4,3.7-0.9,5.1-0.9c0.9,0,1.6,0.2,2,0.5c1.4,1,1.7,3.8,2,6.7c0.3,2.7,0.6,5.9,1.9,6.2  c1.2,0.4,3.3-2,5.1-4C46.2,77.5,48.2,75.3,50,75.3z"/><path d="M38.1,88.8c-0.2,0-0.4,0-0.6-0.1c-2.1-0.7-2.5-4.2-2.8-8c-0.3-2.8-0.6-6-1.7-6.8c-0.4-0.3-0.9-0.4-1.7-0.4  c-1.5,0-3.5,0.5-5.5,0.9c-2,0.5-4.1,1-5.7,1c-1.4,0-2.3-0.3-2.8-1.1c-1.3-1.8,0.5-4.9,2.5-8.3c1.5-2.6,3.2-5.5,2.7-7  c-0.5-1.4-3.4-2.6-6.2-3.8c-3.7-1.5-7.1-3-7.1-5.3s3.5-3.8,7.1-5.3c2.8-1.2,5.7-2.4,6.2-3.8c0.5-1.5-1.2-4.4-2.7-7  c-1.9-3.3-3.8-6.5-2.5-8.3c0.5-0.7,1.4-1.1,2.8-1.1c1.6,0,3.7,0.5,5.7,1c2,0.5,4,0.9,5.5,0.9c0.8,0,1.3-0.1,1.7-0.4  c1.2-0.8,1.5-4,1.7-6.8c0.4-3.8,0.7-7.3,2.8-8c0.2-0.1,0.4-0.1,0.6-0.1c1.9,0,4,2.4,6.2,4.9c1.9,2.2,4.1,4.8,5.7,4.8  c1.6,0,3.8-2.5,5.7-4.8c2.2-2.5,4.3-4.9,6.2-4.9c0.2,0,0.4,0,0.6,0.1c2.1,0.7,2.5,4.2,2.8,8c0.3,2.8,0.6,6,1.7,6.8  c0.4,0.3,0.9,0.4,1.7,0.4c1.5,0,3.5-0.5,5.5-0.9c2-0.5,4.1-1,5.7-1c1.4,0,2.3,0.3,2.8,1.1c1.3,1.8-0.5,4.9-2.5,8.3  c-1.5,2.6-3.2,5.5-2.7,7c0.5,1.4,3.4,2.6,6.2,3.8c3.7,1.5,7.1,3,7.1,5.3s-3.5,3.8-7.1,5.3c-2.8,1.2-5.7,2.4-6.2,3.8  c-0.5,1.5,1.2,4.4,2.7,7c1.9,3.3,3.8,6.5,2.5,8.3c-0.5,0.7-1.4,1.1-2.8,1.1c-1.6,0-3.7-0.5-5.7-1c-2-0.5-4-0.9-5.5-0.9  c-0.8,0-1.3,0.1-1.7,0.4c-1.2,0.8-1.5,4-1.7,6.8c-0.4,3.8-0.7,7.3-2.8,8c-0.2,0.1-0.4,0.1-0.6,0.1c-1.9,0-4-2.4-6.2-4.9  c-1.9-2.2-4.1-4.8-5.7-4.8c-1.6,0-3.8,2.5-5.7,4.8C42.1,86.4,40,88.8,38.1,88.8C38.1,88.8,38.1,88.8,38.1,88.8z M50,78.1  c2,0,4.2,2.5,6.5,5.1c2.1,2.4,4.4,5,5.8,4.5c1.5-0.5,1.8-4,2.1-7.1c0.3-3.3,0.6-6.5,2.2-7.6c0.5-0.4,1.3-0.6,2.3-0.6  c1.6,0,3.7,0.5,5.7,1c2,0.5,4,0.9,5.5,0.9c1,0,1.7-0.2,2-0.6c0.9-1.3-0.9-4.4-2.5-7.2c-1.8-3-3.4-5.9-2.8-7.8  c0.6-1.8,3.6-3.1,6.7-4.4c3.1-1.3,6.5-2.7,6.5-4.4c0-1.7-3.5-3.1-6.5-4.4c-3.1-1.3-6.1-2.6-6.7-4.4c-0.6-1.9,1-4.8,2.8-7.8  c1.6-2.8,3.4-5.9,2.5-7.2c-0.3-0.4-1-0.6-2-0.6c-1.5,0-3.5,0.5-5.5,0.9c-2,0.5-4.1,1-5.7,1c-1,0-1.7-0.2-2.3-0.6  c-1.6-1.1-1.8-4.2-2.2-7.6c-0.3-3.1-0.6-6.7-2.1-7.1c-1.4-0.4-3.6,2.1-5.8,4.5c-2.3,2.6-4.4,5.1-6.5,5.1s-4.2-2.5-6.5-5.1  c-2.1-2.4-4.4-5-5.8-4.5c-1.5,0.5-1.8,4-2.1,7.1c-0.3,3.3-0.6,6.5-2.2,7.6c-0.5,0.4-1.3,0.6-2.3,0.6c-1.6,0-3.7-0.5-5.7-1  c-2-0.5-4-0.9-5.5-0.9c-1,0-1.7,0.2-2,0.6c-0.9,1.3,0.9,4.4,2.5,7.2c1.8,3,3.4,5.9,2.8,7.8c-0.6,1.8-3.6,3.1-6.7,4.4  c-3.1,1.3-6.5,2.7-6.5,4.4c0,1.7,3.5,3.1,6.5,4.4c3.1,1.3,6.1,2.6,6.7,4.4c0.6,1.9-1,4.8-2.8,7.8c-1.6,2.8-3.4,5.9-2.5,7.2  c0.3,0.4,1,0.6,2,0.6c1.5,0,3.5-0.5,5.5-0.9c2-0.5,4.1-1,5.7-1c1,0,1.7,0.2,2.3,0.6c1.6,1.1,1.8,4.2,2.2,7.6  c0.3,3.1,0.6,6.7,2.1,7.1c1.4,0.4,3.6-2.1,5.8-4.5C45.8,80.6,48,78.1,50,78.1z"/><path d="M63.1,92.6c-2.1,0-4.3-2.6-6.8-5.4c-2.2-2.5-4.6-5.3-6.3-5.3c-1.7,0-4.2,2.8-6.3,5.3c-2.4,2.8-4.7,5.4-6.8,5.4  c-0.2,0-0.5,0-0.7-0.1c-2.3-0.7-2.7-4.7-3-8.9c-0.3-3.3-0.6-6.7-1.9-7.7c-0.4-0.3-1.1-0.4-1.9-0.4c-1.7,0-3.9,0.5-6.1,1  c-2.2,0.5-4.5,1.1-6.3,1.1c-1.5,0-2.5-0.4-3-1.1c-1.4-1.9,0.6-5.3,2.7-8.9c1.8-2.9,3.6-6,3-7.6c-0.5-1.5-3.7-2.9-6.7-4.1  c-4-1.7-7.7-3.3-7.7-5.8s3.8-4.1,7.7-5.8c3.1-1.3,6.2-2.6,6.7-4.1c0.5-1.6-1.3-4.7-3-7.6c-2.1-3.6-4.2-7-2.7-8.9  c0.6-0.8,1.6-1.1,3-1.1c1.8,0,4.1,0.5,6.3,1.1c2.2,0.5,4.4,1,6.1,1c0.9,0,1.5-0.1,1.9-0.4c1.3-0.9,1.6-4.4,1.9-7.7  c0.4-4.2,0.7-8.1,3-8.9c0.2-0.1,0.4-0.1,0.7-0.1c2.1,0,4.3,2.6,6.8,5.4c2.2,2.5,4.6,5.3,6.3,5.3s4.2-2.8,6.3-5.3  c2.4-2.8,4.7-5.4,6.8-5.4c0.2,0,0.5,0,0.7,0.1c2.3,0.7,2.7,4.7,3,8.9c0.3,3.3,0.6,6.7,1.9,7.7c0.4,0.3,1.1,0.4,1.9,0.4  c1.7,0,3.9-0.5,6.1-1c2.2-0.5,4.5-1.1,6.3-1.1c1.5,0,2.5,0.4,3,1.1c1.4,1.9-0.6,5.3-2.8,8.9c-1.8,2.9-3.6,6-3,7.6  c0.5,1.5,3.7,2.9,6.7,4.1c4,1.7,7.7,3.3,7.7,5.8s-3.8,4.1-7.7,5.8c-3.1,1.3-6.2,2.6-6.7,4.1c-0.5,1.6,1.3,4.7,3,7.6  c2.1,3.6,4.2,7,2.8,8.9c-0.6,0.8-1.6,1.1-3,1.1c-1.8,0-4.1-0.5-6.3-1.1c-2.2-0.5-4.4-1-6.1-1c-0.9,0-1.5,0.1-1.9,0.4  c-1.3,0.9-1.6,4.4-1.9,7.7c-0.4,4.2-0.7,8.1-3,8.9C63.6,92.6,63.3,92.6,63.1,92.6L63.1,92.6z M50,80.9c2.2,0,4.6,2.7,7.1,5.6  c2.2,2.5,4.4,5.1,6,5.1c0,0,0,0,0,0c0.1,0,0.3,0,0.4-0.1c1.7-0.5,2-4.5,2.4-8c0.3-3.7,0.6-7.2,2.3-8.4c0.6-0.4,1.4-0.6,2.5-0.6  c1.8,0,4.1,0.5,6.3,1.1c2.2,0.5,4.4,1,6.1,1c1.1,0,1.9-0.2,2.2-0.7c1-1.4-1-4.8-2.8-7.8c-2-3.3-3.8-6.4-3.1-8.4  c0.6-2,3.9-3.3,7.3-4.8c3.3-1.4,7.1-3,7.1-4.9s-3.8-3.4-7.1-4.9c-3.4-1.4-6.7-2.8-7.3-4.8c-0.7-2,1.2-5.2,3.1-8.4  c1.8-3,3.8-6.4,2.8-7.8c-0.4-0.5-1.1-0.7-2.2-0.7c-1.7,0-3.9,0.5-6.1,1c-2.2,0.5-4.5,1.1-6.3,1.1c-1.1,0-1.9-0.2-2.5-0.6  c-1.7-1.2-2-4.7-2.3-8.4c-0.3-3.5-0.7-7.5-2.4-8c-1.6-0.5-4,2.3-6.4,5c-2.5,2.9-4.9,5.6-7.1,5.6c-2.2,0-4.6-2.7-7.1-5.6  c-2.4-2.7-4.8-5.5-6.4-5c-1.7,0.5-2,4.5-2.4,8c-0.3,3.7-0.6,7.2-2.3,8.4c-0.6,0.4-1.4,0.6-2.5,0.6c-1.8,0-4.1-0.5-6.3-1.1  c-2.2-0.5-4.4-1-6.1-1c-1.1,0-1.9,0.2-2.2,0.7c-1,1.4,1,4.8,2.8,7.8c2,3.3,3.8,6.4,3.1,8.4c-0.6,2-3.9,3.3-7.3,4.8  c-3.3,1.4-7.1,3-7.1,4.9s3.8,3.4,7.1,4.9c3.4,1.4,6.7,2.8,7.3,4.8c0.7,2-1.2,5.2-3.1,8.4c-1.8,3-3.8,6.4-2.8,7.8  c0.4,0.5,1.1,0.7,2.2,0.7c1.7,0,3.9-0.5,6.1-1c2.2-0.5,4.5-1.1,6.3-1.1c1.1,0,1.9,0.2,2.5,0.6c1.7,1.2,2,4.7,2.3,8.4  c0.3,3.5,0.7,7.5,2.4,8c1.6,0.5,4-2.3,6.4-5C45.4,83.6,47.8,80.9,50,80.9z"/><path d="M64.3,96.4c-2.2,0-4.7-2.9-7.4-5.9c-2.5-2.9-5-5.8-6.9-5.8s-4.5,3-6.9,5.8c-2.6,3.1-5.1,5.9-7.4,5.9c-0.3,0-0.5,0-0.7-0.1  c-2.5-0.8-2.9-5.2-3.3-9.8c-0.3-3.7-0.6-7.4-2.1-8.5c-0.5-0.3-1.2-0.5-2.1-0.5c-1.8,0-4.3,0.6-6.7,1.1c-2.4,0.6-5,1.2-6.9,1.2  c-1.6,0-2.7-0.4-3.3-1.2c-1.5-2.1,0.7-5.7,3-9.6c1.9-3.2,3.9-6.5,3.3-8.3c-0.5-1.7-4-3.1-7.3-4.5c-4.3-1.8-8.4-3.5-8.4-6.2  c0-2.7,4.1-4.4,8.4-6.2c3.3-1.4,6.8-2.9,7.3-4.5c0.6-1.8-1.4-5.1-3.3-8.3c-2.3-3.9-4.6-7.6-3-9.6c0.6-0.8,1.7-1.2,3.3-1.2  c1.9,0,4.5,0.6,6.9,1.2c2.4,0.6,4.8,1.1,6.7,1.1c1,0,1.7-0.2,2.1-0.5c1.5-1.1,1.8-4.8,2.1-8.5c0.4-4.6,0.8-8.9,3.3-9.8  c0.2-0.1,0.5-0.1,0.7-0.1c2.2,0,4.7,2.9,7.4,5.9c2.5,2.9,5,5.8,6.9,5.8c1.9,0,4.5-3,6.9-5.8c2.6-3.1,5.1-5.9,7.4-5.9  c0.3,0,0.5,0,0.7,0.1c2.5,0.8,2.9,5.2,3.3,9.8c0.3,3.7,0.6,7.4,2.1,8.5c0.5,0.3,1.2,0.5,2.1,0.5c1.8,0,4.3-0.6,6.7-1.1  c2.4-0.6,5-1.2,6.9-1.2c1.6,0,2.7,0.4,3.3,1.2c1.5,2.1-0.7,5.7-3,9.6c-1.9,3.2-3.9,6.5-3.3,8.3c0.5,1.7,4,3.1,7.3,4.5  c4.3,1.8,8.4,3.5,8.4,6.2c0,2.7-4.1,4.4-8.4,6.2c-3.3,1.4-6.8,2.9-7.3,4.5c-0.6,1.8,1.4,5.1,3.3,8.3c2.3,3.9,4.6,7.6,3,9.6  c-0.6,0.8-1.7,1.2-3.3,1.2c-1.9,0-4.5-0.6-6.9-1.2c-2.4-0.6-4.9-1.1-6.7-1.1c-1,0-1.7,0.2-2.1,0.5c-1.5,1.1-1.8,4.8-2.1,8.5  c-0.4,4.6-0.8,8.9-3.3,9.8C64.8,96.4,64.6,96.4,64.3,96.4L64.3,96.4z M50,83.7c2.4,0,5,3,7.7,6.2c2.4,2.7,4.8,5.6,6.6,5.6h0  c0.2,0,0.3,0,0.4-0.1c1.9-0.6,2.2-5,2.6-8.9c0.3-4.1,0.7-7.9,2.5-9.2c0.6-0.5,1.5-0.7,2.7-0.7c1.9,0,4.5,0.6,6.9,1.2  c2.4,0.6,4.9,1.1,6.7,1.1c1.3,0,2.1-0.3,2.5-0.8c1.1-1.5-1.1-5.3-3.1-8.5c-2.1-3.5-4.1-6.9-3.4-9.1c0.7-2.1,4.2-3.6,7.9-5.1  c3.6-1.5,7.7-3.3,7.7-5.3s-4.1-3.8-7.7-5.3c-3.7-1.6-7.2-3-7.9-5.1c-0.7-2.2,1.3-5.5,3.4-9.1c2-3.3,4.2-7,3.1-8.5  c-0.4-0.6-1.2-0.8-2.5-0.8c-1.8,0-4.3,0.6-6.7,1.1c-2.4,0.6-5,1.2-6.9,1.2c-1.2,0-2.1-0.2-2.7-0.7c-1.8-1.3-2.1-5.2-2.5-9.2  c-0.3-3.9-0.7-8.3-2.6-8.9c-1.7-0.6-4.5,2.5-7,5.5c-2.7,3.2-5.3,6.2-7.7,6.2s-5-3-7.7-6.2c-2.6-3-5.3-6.1-7-5.5  c-1.9,0.6-2.2,5-2.6,8.9c-0.3,4.1-0.7,7.9-2.5,9.2c-0.6,0.5-1.5,0.7-2.7,0.7c-1.9,0-4.5-0.6-6.9-1.2c-2.4-0.6-4.9-1.1-6.7-1.1  c-1.3,0-2.1,0.3-2.5,0.8c-1.1,1.5,1.1,5.3,3.1,8.5c2.1,3.5,4.1,6.9,3.4,9.1c-0.7,2.1-4.2,3.6-7.9,5.1C6.4,46.2,2.3,48,2.3,50  s4.1,3.8,7.7,5.3c3.7,1.6,7.2,3,7.9,5.1c0.7,2.2-1.3,5.5-3.4,9.1c-2,3.3-4.2,7-3.1,8.5c0.4,0.6,1.2,0.8,2.5,0.8  c1.8,0,4.3-0.6,6.7-1.1c2.4-0.6,5-1.2,6.9-1.2c1.2,0,2.1,0.2,2.7,0.7c1.8,1.3,2.1,5.2,2.5,9.2c0.3,3.9,0.7,8.3,2.6,8.9  c1.7,0.6,4.5-2.5,7-5.5C45,86.7,47.6,83.7,50,83.7z"/><text x="0" y="115" fill="#000000" font-size="5px" font-weight="bold" font-family="'Helvetica Neue', Helvetica, Arial-Unicode, Arial, Sans-serif">Created by EliRatus</text><text x="0" y="120" fill="#000000" font-size="5px" font-weight="bold" font-family="'Helvetica Neue', Helvetica, Arial-Unicode, Arial, Sans-serif">from the Noun Project</text></svg>