<svg id="Filled_cutting_Ex" height="512" viewBox="0 0 512 512" width="512" xmlns="http://www.w3.org/2000/svg" data-name="Filled cutting Ex"><g><path d="m392 40h24v104h-24z" fill="#127bb3"/><path d="m80 24h312v448h-312z" fill="#25b1fa"/><g fill="#f0fbff"><path d="m112 56h112v120h-112z"/><path d="m256 56h104v40h-104z"/><rect height="64" rx="32" width="64" x="112" y="376"/><rect height="64" rx="32" width="64" x="208" y="376"/></g><path d="m376 488v-128l-72-96 8.765-7.012a40 40 0 0 1 56.223 6.247l7.012 8.765h16v-128h10.377a30 30 0 0 1 28.461 20.513l41.162 123.487v16l-24 64v120z" fill="#ffd4cf"/><g><path d="m88 184h-16v288a8 8 0 0 0 8 8h272v-16h-264z"/><path d="m224 184a8 8 0 0 0 8-8v-120a8 8 0 0 0 -8-8h-112a8 8 0 0 0 -8 8v120a8 8 0 0 0 8 8zm-104-120h96v104h-96z"/><path d="m248 128h120v16h-120z"/><path d="m248 168h120v16h-120z"/><path d="m104 208h80v16h-80z"/><path d="m200 208h128v16h-128z"/><path d="m104 248h176v16h-176z"/><path d="m104 288h80v16h-80z"/><path d="m200 288h96v16h-96z"/><path d="m296 328h24v16h-24z"/><path d="m104 328h176v16h-176z"/><path d="m368 56a8 8 0 0 0 -8-8h-104a8 8 0 0 0 -8 8v40a8 8 0 0 0 8 8h104a8 8 0 0 0 8-8zm-16 32h-88v-24h88z"/><path d="m104 408a40 40 0 1 0 40-40 40.045 40.045 0 0 0 -40 40zm64 0a24 24 0 1 1 -24-24 24.028 24.028 0 0 1 24 24z"/><path d="m200 408a40 40 0 1 0 40-40 40.045 40.045 0 0 0 -40 40zm64 0a24 24 0 1 1 -24-24 24.028 24.028 0 0 1 24 24z"/><path d="m479.589 285.47-41.162-123.487a37.951 37.951 0 0 0 -36.05-25.983h-10.377a8 8 0 0 0 -8 8v120h-4.155l-4.61-5.763a48 48 0 0 0 -67.467-7.5l-8.768 7.016a8 8 0 0 0 -1.4 11.047l70.4 93.867v125.333a8 8 0 0 0 8 8h72a8 8 0 0 0 8-8v-72h-16v64h-56v-120a8 8 0 0 0 -1.6-4.8l-67.348-89.8 2.711-2.168a32 32 0 0 1 44.978 5l7.012 8.768a8 8 0 0 0 6.247 3h16a8 8 0 0 0 8-8v-120h2.377a21.973 21.973 0 0 1 20.872 15.043l40.751 122.257v13.251l-23.491 62.642a8 8 0 0 0 -.509 2.807v32h16v-30.549l23.491-62.642a8 8 0 0 0 .509-2.809v-16a8 8 0 0 0 -.411-2.53z"/><path d="m296 384h64v16h-64z"/><path d="m296 416h16v16h-16z"/><path d="m328 416h32v16h-32z"/><path d="m88 32h296v88h16v-72h8v72h16v-80a8 8 0 0 0 -8-8h-16v-8a8 8 0 0 0 -8-8h-312a8 8 0 0 0 -8 8v144h16z"/></g></g></svg>