<svg height="511pt" viewBox="-101 0 511 511.99961" width="511pt" xmlns="http://www.w3.org/2000/svg"><path d="m287.171875 2.070312-3.886719-1.039062c-16-4.289062-32.449218 5.207031-36.738281 21.207031l-33.925781 126.644531-6.179688-2.253906c-2.882812-1.042968-5.816406-1.605468-8.722656-1.726562l-.050781-.023438h-119.03125l-24.984375-94.832031c-3.5625-13.515625-17.4375-21.5625-30.941406-17.945313l-3.503907.941407c-13.425781 3.601562-21.414062 17.382812-17.863281 30.824219l31.078125 117.617187v96.835937c0 21.296876 16.320313 38.78125 37.136719 40.628907 1.203125.105469 2.421875.171875 3.652344.171875 1.789062 0 3.394531.714844 4.5625 1.882812 1.167968 1.167969 1.898437 2.789063 1.898437 4.5625v186.433594h160.578125v-172.757812l3.945312-20.292969 25.1875-129.515625 3.617188-18.582032 35.382812-132.042968c4.285157-16.003906-5.207031-32.449219-21.210937-36.738282zm0 0" fill="#ffc999"/><path d="m287.171875 2.070312-3.886719-1.042968c-6.878906-1.839844-13.832031-1.132813-19.875 1.539062 14.996094 4.941406 23.699219 20.796875 19.558594 36.238282l-35.382812 132.046874-3.613282 18.582032-25.1875 129.515625-3.949218 20.289062v172.761719h25.414062v-172.757812l3.945312-20.292969 25.1875-129.515625 3.613282-18.582032 35.386718-132.042968c4.285157-16.003906-5.207031-32.449219-21.210937-36.738282zm0 0" fill="#e89c5d"/><path d="m53.992188 371.226562v56.636719c0 12.492188 10.128906 22.621094 22.621093 22.621094h168.796875c12.492188 0 22.621094-10.128906 22.621094-22.621094v-56.636719c0-12.492187-10.128906-22.621093-22.621094-22.621093h-168.796875c-12.496093 0-22.621093 10.128906-22.621093 22.621093zm0 0" fill="#4a4a68"/><path d="m245.410156 348.605469h-26.976562c12.492187 0 22.621094 10.128906 22.621094 22.621093v56.636719c0 12.492188-10.128907 22.621094-22.621094 22.621094h26.976562c12.492188 0 22.621094-10.128906 22.621094-22.621094v-56.636719c0-12.492187-10.128906-22.621093-22.621094-22.621093zm0 0" fill="#333356"/><g fill="#fffddc"><path d="m112.261719 399.542969c0 9.050781-7.339844 16.386719-16.386719 16.386719-9.050781 0-16.386719-7.335938-16.386719-16.386719 0-9.046875 7.335938-16.386719 16.386719-16.386719 9.046875 0 16.386719 7.339844 16.386719 16.386719zm0 0"/><path d="m177.398438 399.542969c0 9.050781-7.335938 16.386719-16.386719 16.386719s-16.386719-7.335938-16.386719-16.386719c0-9.046875 7.335938-16.386719 16.386719-16.386719s16.386719 7.339844 16.386719 16.386719zm0 0"/><path d="m242.535156 399.542969c0 9.050781-7.339844 16.386719-16.386718 16.386719-9.050782 0-16.390626-7.335938-16.390626-16.386719 0-9.046875 7.339844-16.386719 16.390626-16.386719 9.046874 0 16.386718 7.339844 16.386718 16.386719zm0 0"/></g><path d="m77.511719 146.410156v60.617188c0 18.792968 15.234375 34.023437 34.027343 34.023437 18.792969 0 34.027344-15.230469 34.027344-34.023437v-60.617188c0-18.792968-15.234375-34.027344-34.027344-34.027344-18.789062 0-34.027343 15.234376-34.027343 34.027344zm0 0" fill="#f4ad73"/><path d="m145.566406 146.410156v60.617188c0 18.792968 15.234375 34.023437 34.027344 34.023437 18.789062 0 34.023438-15.230469 34.023438-34.023437v-60.617188c0-18.792968-15.234376-34.027344-34.023438-34.027344-18.792969 0-34.027344 15.234376-34.027344 34.027344zm0 0" fill="#e5955a"/><path d="m274.761719 175.832031-92.097657-28.195312c-7.492187-2.292969-15.421874 1.917969-17.714843 9.410156-6.644531 21.703125 5.5625 44.683594 27.269531 51.328125l22.535156 6.902344c-23.644531 7.511718-40.425781 29.996094-39.578125 56.015625 1.019531 31.382812 27.285157 55.996093 58.667969 54.976562 31.378906-1.019531 48.050781-28.042969 54.976562-58.667969 2.855469-12.632812 6.324219-36.960937 8.847657-56.144531 2.089843-15.878906-7.59375-30.9375-22.90625-35.625zm0 0" fill="#ffdbbd"/><path d="m274.761719 175.832031-19.09375-5.84375c11.523437 6.828125 18.238281 20.007813 16.421875 33.789063-2.625 19.964844-6.234375 45.285156-9.207032 58.433594-6.722656 29.730468-22.277343 56.191406-50.84375 60.476562 6.765626 2.539062 14.128907 3.832031 21.804688 3.582031 31.382812-1.019531 48.050781-28.042969 54.976562-58.667969 2.859376-12.636718 6.324219-36.960937 8.847657-56.148437 2.089843-15.875-7.59375-30.933594-22.90625-35.621094zm0 0" fill="#eaad7a"/></svg>