<?xml version="1.0"?>
<svg xmlns="http://www.w3.org/2000/svg" viewBox="0 0 64 64" width="512" height="512"><g id="Local_search" data-name="Local search"><circle cx="32" cy="32" r="29" style="fill:#2488ff"/><path d="M40.852,4.381C39.466,26.9,27.507,45.581,11.305,52.308A29,29,0,1,0,40.852,4.381Z" style="fill:#006df0"/><circle cx="37" cy="25" r="16" transform="translate(-0.397 49.402) rotate(-67.171)" style="fill:none"/><path d="M43.32,51.58l-.81-.2A1.992,1.992,0,0,1,41,49.44V48a2.006,2.006,0,0,0-2-2H33.69a2.006,2.006,0,0,0-1.97,1.67l-.44,2.66A2.006,2.006,0,0,1,29.31,52H25.36a1,1,0,0,0-.64.23l-4.5,3.76a4.947,4.947,0,0,0-1.01,2.036,28.913,28.913,0,0,0,25.172.18l.448-4.486A2,2,0,0,0,43.32,51.58Z" style="fill:#4e901e"/><path d="M50.856,17a16.033,16.033,0,1,0-.014,16h0A15.98,15.98,0,0,0,50.856,17Z" style="fill:none"/><path d="M23.144,33A16,16,0,1,0,36,9.045v0A15.975,15.975,0,0,0,23.144,33Z" style="fill:none"/><path d="M36,3.281V9.045A15.976,15.976,0,0,1,50.842,33H53a2.006,2.006,0,0,1,2,2v1a2.006,2.006,0,0,0,2,2h3.356A28.916,28.916,0,0,0,36,3.281Z" style="fill:#91dc5a"/><path d="M15.32,43.61l.5,2.5a3.018,3.018,0,0,0,.82,1.53l1.65,1.65a1,1,0,0,0,1.71-.7V40.67a1.969,1.969,0,0,1,.4-1.2l2-2.67A2.013,2.013,0,0,1,24,36h1l.4,0a15.794,15.794,0,0,1-4.385-11H15a2.015,2.015,0,0,1-2-2,2.006,2.006,0,0,1,2-2h2a2.006,2.006,0,0,0,2-2V14a2.015,2.015,0,0,1,2-2,4,4,0,0,0,4-4V3.855A29.027,29.027,0,0,0,4.77,42h8.59A2,2,0,0,1,15.32,43.61Z" style="fill:#5eac24"/><path d="M45,38.856a16.02,16.02,0,0,1-1.822.889l3.59,6.174,3.464-2-3.609-6.152A15.728,15.728,0,0,1,45,38.856Z" style="fill:#ff5023"/><path d="M45,38.86A16,16,0,1,1,50.86,17,16.016,16.016,0,0,1,45,38.86Z" style="fill:#9bc9ff"/><path d="M43,35.39A12,12,0,1,1,47.39,19,12.01,12.01,0,0,1,43,35.39Z" style="fill:#ffcd00"/><path d="M50.232,43.919l-3.464,2-1.732,1,4.65,8.054,0,0,0,0,2.264,3.921a4,4,0,0,0,5.464,1.464h0a4,4,0,0,0,1.464-5.464l-3.4-5.885h0l-3.517-6.09Z" style="fill:#005ece"/><path d="M47.39,19a11.956,11.956,0,0,0-7.667-5.667,61.553,61.553,0,0,1-8.774,22.014A11.99,11.99,0,0,0,47.39,19Z" style="fill:#ddb200"/><path d="M41.823,4.721Q41.65,7.2,41.3,9.606A15.962,15.962,0,0,1,50.842,33H53a2.006,2.006,0,0,1,2,2v1a2.006,2.006,0,0,0,2,2h3.356A28.9,28.9,0,0,0,41.823,4.721Z" style="fill:#7ed63e"/><path d="M43,22c0,3.31-6,12-6,12s-6-8.69-6-12a6,6,0,0,1,12,0Z" style="fill:#ed1c24"/><circle cx="37" cy="22" r="2" style="fill:#f1f2f2"/><path d="M37.021,38a13,13,0,1,0-11.28-6.5A12.921,12.921,0,0,0,37.021,38ZM31.5,15.474A11,11,0,1,1,27.474,30.5,10.93,10.93,0,0,1,31.5,15.474Z"/><path d="M56.657,49.048A29.689,29.689,0,0,0,62,32,30,30,0,1,0,32,62a29.628,29.628,0,0,0,17.369-5.576L51.084,59.4a5,5,0,1,0,8.66-5Zm-3.827-6.63a1,1,0,0,0-1.366-.366l-.866.5-2.641-4.573A16.85,16.85,0,0,0,51.412,34H53a1,1,0,0,1,1,1v1a3,3,0,0,0,3,3h2.107a27.629,27.629,0,0,1-3.563,8.119Zm-5.7,2.134-2.516-4.358c.3-.149.592-.3.882-.471s.562-.361.841-.544l2.525,4.373ZM24.01,32.5a15,15,0,1,1,9.108,6.989A15.017,15.017,0,0,1,24.01,32.5ZM60,32a28.24,28.24,0,0,1-.46,5H57a1,1,0,0,1-1-1V35a3,3,0,0,0-3-3h-.533A16.949,16.949,0,0,0,37,8.011V4.456A28.04,28.04,0,0,1,60,32ZM35,4.163V8.119A16.975,16.975,0,0,0,20.042,24H15a.978.978,0,0,1-.713-.306A.965.965,0,0,1,14,23a1,1,0,0,1,1-1h2a3,3,0,0,0,3-3V14a.978.978,0,0,1,.306-.712A.957.957,0,0,1,21,13a5.006,5.006,0,0,0,5-5V4.654a27.8,27.8,0,0,1,9-.491ZM24,5.171V8a3,3,0,0,1-3,3,3.017,3.017,0,0,0-3,3v5a1,1,0,0,1-1,1H15a3,3,0,0,0-3,3,3.015,3.015,0,0,0,3,3h5.049a16.877,16.877,0,0,0,2.228,7.5,17.541,17.541,0,0,0,1.042,1.581A3.049,3.049,0,0,0,21.6,36.2l-1.993,2.661A2.945,2.945,0,0,0,19,40.67l0,7.913-1.65-1.65a2.009,2.009,0,0,1-.546-1.019l-.5-2.5A3.013,3.013,0,0,0,13.36,41H5.492A27.976,27.976,0,0,1,24,5.171ZM20.5,57.52a.979.979,0,0,1,.36-.762L25.36,53h3.95a2.99,2.99,0,0,0,2.957-2.507l.439-2.659A1.008,1.008,0,0,1,33.69,47H39a1,1,0,0,1,1,1v1.44a2.988,2.988,0,0,0,2.27,2.911l.81.2a.991.991,0,0,1,.755,1.07l-.393,3.935A27.952,27.952,0,0,1,20.5,57.52Zm25.058-1.031.266-2.669a2.977,2.977,0,0,0-2.264-3.211l-.811-.2A.993.993,0,0,1,42,49.44V48a3,3,0,0,0-3-3H33.69a2.99,2.99,0,0,0-2.957,2.507l-.439,2.659A1.008,1.008,0,0,1,29.31,51H25.36a2.018,2.018,0,0,0-1.282.462l-4.493,3.755a2.969,2.969,0,0,0-.939,1.388A28.175,28.175,0,0,1,6.254,43H13.36a1.007,1.007,0,0,1,.98.806l.5,2.506a4.016,4.016,0,0,0,1.092,2.035L17.583,50A2,2,0,0,0,21,48.59V40.67a.967.967,0,0,1,.2-.6l2-2.665A1.019,1.019,0,0,1,24,37h.974A16.891,16.891,0,0,0,32.6,41.421a17.109,17.109,0,0,0,4.427.586,16.8,16.8,0,0,0,5.74-1.018L45.4,45.553l-.865.5a1,1,0,0,0-.366,1.366l4.2,7.268A28.179,28.179,0,0,1,45.559,56.489Zm12.753,1.182a3,3,0,0,1-5.5.724L46.4,47.285l5.2-3,3.025,5.24,3.389,5.87A2.984,2.984,0,0,1,58.312,57.671Z"/><path d="M37,35a1,1,0,0,0,.823-.432C38.455,33.653,44,25.523,44,22a7,7,0,0,0-14,0c0,3.523,5.545,11.653,6.177,12.568A1,1,0,0,0,37,35Zm0-18a5.006,5.006,0,0,1,5,5c0,1.934-2.8,6.843-5,10.207C34.8,28.844,32,23.935,32,22A5.006,5.006,0,0,1,37,17Z"/><path d="M40,22a3,3,0,1,0-3,3A3,3,0,0,0,40,22Zm-4,0a1,1,0,1,1,1,1A1,1,0,0,1,36,22Z"/></g></svg>
