<?xml version="1.0"?>
<svg xmlns="http://www.w3.org/2000/svg" viewBox="0 0 512 512" width="512" height="512"><g id="Filled_outline" data-name="Filled outline"><path d="M440,232a208.338,208.338,0,0,1-2.93,34.93C420.47,365.18,334.98,440,232,440A207.8,207.8,0,0,1,24.01,234.01C24,233.34,24,232.67,24,232a208,208,0,1,1,416,0Z" style="fill:#348fd9"/><path d="M440,232a208.338,208.338,0,0,1-2.93,34.93C420.47,365.18,334.98,440,232,440A208.077,208.077,0,0,1,35.79,301.19a198.97,198.97,0,0,0,84.05,18.49c110.37,0,199.84-89.47,199.84-199.84a198.97,198.97,0,0,0-18.49-84.05A206.236,206.236,0,0,1,336,51.83,208.02,208.02,0,0,1,440,232Z" style="fill:#3086cd"/><path d="M224,160v32H192l-32,48H96v48L24.01,234.01C24,233.34,24,232.67,24,232A207.308,207.308,0,0,1,81.9,88H112l24,40h64Z" style="fill:#4db7e5"/><polygon points="184 336 160 392 120 392 120 336 96 336 96 288 152 288 152 336 184 336" style="fill:#4db7e5"/><path d="M336,51.83V88H296l-16,32H256V64H216L195.02,27.28a209.323,209.323,0,0,1,106.17,8.51A206.236,206.236,0,0,1,336,51.83Z" style="fill:#4db7e5"/><path d="M440,232a208.338,208.338,0,0,1-2.93,34.93L408,296H368V224H312V160l24-24h40l25.12-25.12A207.069,207.069,0,0,1,440,232Z" style="fill:#4db7e5"/><path d="M152,336h32l-24,56H120V336H96V318.27a201.742,201.742,0,0,0,23.84,1.41A200.535,200.535,0,0,0,152,317.1Z" style="fill:#4aafdb"/><path d="M317.15,88a197.679,197.679,0,0,0-15.96-52.21A206.236,206.236,0,0,1,336,51.83V88Z" style="fill:#4aafdb"/><path d="M440,232a208.338,208.338,0,0,1-2.93,34.93L408,296H368V224H312V174.89q2.715-9.51,4.51-19.4L336,136h40l25.12-25.12A207.069,207.069,0,0,1,440,232Z" style="fill:#4aafdb"/><path d="M368,400l81.373,81.373a22.627,22.627,0,0,0,16,6.627h0A22.628,22.628,0,0,0,488,465.373h0a22.627,22.627,0,0,0-6.627-16L400,368Z" style="fill:#de4132"/><circle cx="328" cy="328" r="112" style="fill:#f35244"/><circle cx="328" cy="328" r="80" style="fill:#5ac6d4"/><circle cx="328" cy="328" r="56" style="fill:#60d1e0"/><path d="M79.949,385.418A214.674,214.674,0,0,0,232,448c5.524,0,11.111-.212,16.606-.63l-1.212-15.953C242.3,431.8,237.121,432,232,432a198.7,198.7,0,0,1-108.606-32H160a8,8,0,0,0,7.354-4.849l24-56A8,8,0,0,0,184,328H160V288a8,8,0,0,0-8-8H104V248h56a8,8,0,0,0,6.656-3.562L196.281,200H224a8,8,0,0,0,8-8V160a8.006,8.006,0,0,0-1.6-4.8l-24-32A8,8,0,0,0,200,120H140.529L118.86,83.884A8,8,0,0,0,112,80H101.978A197.89,197.89,0,0,1,190.92,36.232l18.134,31.737A8,8,0,0,0,216,72h32v48a8,8,0,0,0,8,8h24a8,8,0,0,0,7.155-4.422L300.944,96H336a8,8,0,0,0,8-8V66.308a202.974,202.974,0,0,1,46.567,43.811L372.687,128H336a8,8,0,0,0-5.657,2.343l-24,24A8,8,0,0,0,304,160v32h16V163.313L339.313,144H376a8,8,0,0,0,5.657-2.343l18.292-18.291A198.549,198.549,0,0,1,432,232c0,5.137-.2,10.314-.584,15.391l15.953,1.218c.419-5.479.631-11.068.631-16.609a214.52,214.52,0,0,0-40.38-125.784,218.484,218.484,0,0,0-67.613-61.311A216.023,216.023,0,0,0,16,232c0,.709,0,1.418.01,2.086A214.659,214.659,0,0,0,79.949,385.418Zm11.264-11.363a198.594,198.594,0,0,1-58.342-123.4L88,292v44a8,8,0,0,0,8,8h16v48.027A202.816,202.816,0,0,1,91.213,374.055ZM152,344h19.868l-17.143,40H128V336a8,8,0,0,0-8-8H104V296h40v40A8,8,0,0,0,152,344ZM328,56.532V80H296a8,8,0,0,0-7.155,4.422L275.056,112H264V64a8,8,0,0,0-8-8H220.643L207.767,33.466A202.537,202.537,0,0,1,232,32,199.947,199.947,0,0,1,328,56.532ZM85.366,96h22.105l21.669,36.116A8,8,0,0,0,136,136h60l20,26.667V184H192a8,8,0,0,0-6.656,3.562L155.719,232H96a8,8,0,0,0-8,8v32L32.023,230.02A198.985,198.985,0,0,1,85.366,96Z"/><path d="M101.1,126.672,88.645,116.625a185.088,185.088,0,0,0-10.907,15l13.4,8.744A168.69,168.69,0,0,1,101.1,126.672Z"/><path d="M64.5,219a166.348,166.348,0,0,1,17.792-63.359l-14.248-7.282a182.283,182.283,0,0,0-19.5,69.422Z"/><path d="M487.027,443.713l-55.35-55.351a120.085,120.085,0,1,0-43.315,43.315l55.351,55.35a30.628,30.628,0,1,0,43.314-43.314ZM224,328A104,104,0,1,1,328,432,104.118,104.118,0,0,1,224,328ZM475.706,475.72a14.62,14.62,0,0,1-20.679-.007l-53.186-53.186a121.089,121.089,0,0,0,20.686-20.686l53.186,53.186a14.62,14.62,0,0,1-.007,20.693Z"/><path d="M328,240a88,88,0,1,0,88,88A88.1,88.1,0,0,0,328,240Zm-72,88a72,72,0,1,1,129.785,42.9L370.9,385.785A71.962,71.962,0,0,1,256,328Z"/><path d="M314.665,290.274A39.953,39.953,0,0,1,328,288V272a55.889,55.889,0,0,0-18.665,3.188Z"/><path d="M301.335,298.184l-10.67-11.922a56,56,0,0,0,0,83.476l10.67-11.922a40,40,0,0,1,0-59.632Z"/><path d="M185.592,459.359A233.1,233.1,0,0,1,35.71,355.728l-13.527,8.544A249.17,249.17,0,0,0,182.408,475.039Z"/><path d="M232,464c-7.74,0-15.55-.386-23.21-1.146l-1.58,15.922c8.184.812,16.524,1.224,24.79,1.224Z"/><path d="M478.776,256.79C479.588,248.606,480,240.266,480,232A248.452,248.452,0,0,0,423.929,74.93L411.552,85.07A232.408,232.408,0,0,1,464,232c0,7.74-.386,15.55-1.146,23.21Z"/><path d="M380.96,54.131c5.8,4.86,11.424,10.064,16.722,15.47l11.425-11.2c-5.662-5.775-11.672-11.337-17.868-16.53Z"/></g></svg>
