<?xml version="1.0"?>
<svg xmlns="http://www.w3.org/2000/svg" id="Capa_1" enable-background="new 0 0 512 512" height="512px" viewBox="0 0 512 512" width="512px" class=""><g transform="matrix(0.9999 0 0 0.9999 0.0256 0.0256)"><g><path d="m451.62 260.116c4.109-.123 7.277-3.707 7.277-7.817v-219.771c-.001-17.965-14.564-32.528-32.529-32.528h-311.398c-17.965 0-32.528 14.563-32.528 32.528v59.776h-6.265c-12.195 0-22.595 9.464-23.056 21.65-.485 12.812 9.797 23.389 22.503 23.389h6.818v47.292h-6.265c-12.195 0-22.595 9.464-23.056 21.65-.485 12.812 9.797 23.389 22.503 23.389h6.818v47.292h-6.265c-12.195 0-22.595 9.464-23.056 21.65-.485 12.812 9.797 23.389 22.503 23.389h6.818v47.295h-6.265c-12.195 0-22.595 9.464-23.056 21.65-.485 12.812 9.797 23.389 22.503 23.389h6.818v65.132c0 17.965 14.563 32.528 32.528 32.528h311.398c17.965 0 32.528-14.564 32.528-32.528v-191.276c0-4.111-3.168-7.695-7.277-7.817-4.251-.127-7.737 3.281-7.737 7.503v191.591c0 9.673-7.842 17.515-17.515 17.515h-311.397c-9.673 0-17.515-7.842-17.515-17.515v-6.001l7.642 6.038c4.367 3.45 10.468 3.451 14.835 0l15.149-11.969 15.147 11.968c4.366 3.452 10.468 3.452 14.836.001l15.15-11.97 15.149 11.97c4.349 3.436 10.488 3.436 14.837-.001l15.145-11.968 15.148 11.969c4.367 3.45 10.467 3.451 14.836 0l15.148-11.97 15.152 11.971c4.367 3.45 10.465 3.45 14.834 0l15.153-11.971 15.153 11.971c4.348 3.435 10.486 3.435 14.834 0l15.154-11.971 15.155 11.971c2.184 1.725 4.8 2.588 7.418 2.588 2.617 0 5.233-.863 7.417-2.588l15.67-12.379c4.444-3.51 6.992-8.77 6.992-14.433v-11.117c0-4.111-3.168-7.695-7.277-7.817-4.251-.127-7.737 3.281-7.737 7.503v11.429c0 1.034-.474 2.012-1.285 2.653l-13.782 10.886-15.155-11.971c-4.368-3.451-10.468-3.452-14.834 0l-15.153 11.971-15.153-11.971c-4.37-3.453-10.47-3.449-14.834 0l-15.152 11.971-15.153-11.971c-4.365-3.45-10.464-3.45-14.835 0l-15.148 11.97-15.148-11.969c-4.366-3.449-10.466-3.451-14.836.001l-15.145 11.968-15.151-11.97c-4.367-3.45-10.465-3.448-14.834 0l-15.149 11.97-15.15-11.97c-4.369-3.451-10.469-3.45-14.834.001l-15.149 11.969-13.777-10.884c-.211-.153-.385-.335-.538-.535-.522-.686-.746-1.553-.746-2.414v-38.061s19.876-.025 20.394-.06c5.601 4.798 12.808 7.501 20.236 7.501 17.132 0 31.07-13.938 31.07-31.069 0-17.132-13.938-31.07-31.07-31.07-8.484 0-16.66 3.52-22.506 9.66h-18.123v-47.292s19.485-.011 19.811-.025c5.68 5.121 13.121 8.02 20.819 8.02 17.896 0 32.306-15.208 30.986-33.378-1.03-14.178-11.805-26.025-25.831-28.337-10.136-1.671-20.114 1.675-27.115 8.681h-18.67v-47.292s19.09-.008 19.221-.01c5.746 5.458 13.451 8.559 21.409 8.559 17.132 0 31.07-13.938 31.07-31.069 0-17.132-13.938-31.07-31.07-31.07-7.955 0-15.664 3.102-21.412 8.56-.13-.002-.258-.01-.388-.01h-18.83v-47.292h18.67c5.801 5.794 13.743 9.105 21.959 9.105 17.693 0 31.979-14.865 31.025-32.762-.815-15.279-12.941-27.893-28.181-29.251-8.791-.783-17.252 2.087-23.669 7.894-.324-.014-.648-.025-.975-.025h-18.829v-59.78c0-9.673 7.842-17.515 17.515-17.515h311.398c9.673 0 17.515 7.842 17.515 17.515v220.084c0 4.223 3.486 7.631 7.737 7.504zm-383.503 131.704c0-4.139 3.367-7.507 7.507-7.507h40.661c4.139 0 7.507 3.367 7.507 7.507 0 4.139-3.367 7.507-7.507 7.507h-40.662c-4.139-.001-7.506-3.368-7.506-7.507zm86.024-1.11c0 8.853-7.204 16.056-16.057 16.056-1.526 0-3.009-.225-4.431-.629 3.216-3.894 5.15-8.884 5.15-14.317 0-6.256-2.567-11.923-6.7-16.008 1.872-.75 3.887-1.158 5.98-1.158 8.855-.001 16.058 7.203 16.058 16.056zm-86.024-91.222c0-4.139 3.367-7.507 7.507-7.507h40.661c4.139 0 7.507 3.367 7.507 7.507 0 4.139-3.367 7.507-7.507 7.507h-40.662c-4.139-.001-7.506-3.368-7.506-7.507zm86.024-.555c0 8.853-7.204 16.057-16.057 16.057-1.667 0-3.286-.252-4.823-.732 3.447-3.957 5.542-9.122 5.542-14.77 0-6.05-2.402-11.545-6.298-15.596 1.765-.654 3.646-1.016 5.578-1.016 8.855.001 16.058 7.203 16.058 16.057zm-86.024-91.777c0-4.139 3.367-7.507 7.507-7.507h40.661c4.139 0 7.507 3.367 7.507 7.507 0 4.139-3.367 7.507-7.507 7.507h-40.662c-4.139 0-7.506-3.368-7.506-7.507zm86.024 0c0 8.853-7.204 16.056-16.057 16.056-1.802 0-3.546-.304-5.193-.864 3.669-4.008 5.913-9.342 5.913-15.192 0-5.849-2.243-11.184-5.913-15.192 1.648-.561 3.392-.865 5.193-.865 8.854 0 16.057 7.204 16.057 16.057zm-86.024-92.332c0-4.139 3.367-7.507 7.507-7.507h40.661c4.139 0 7.507 3.367 7.507 7.507s-3.367 7.507-7.507 7.507h-40.662c-4.139 0-7.506-3.367-7.506-7.507zm86.024.554c0 8.853-7.204 16.057-16.057 16.057-1.945 0-3.822-.359-5.583-1.01 3.898-4.051 6.303-9.549 6.303-15.601 0-5.643-2.092-10.805-5.534-14.761 1.54-.483 3.158-.742 4.815-.742 8.853 0 16.056 7.204 16.056 16.057z" data-original="#000000" class="active-path" data-old_color="#000000" fill="#FB5252"/><path d="m405.903 413.657c4.146 0 7.507-3.36 7.507-7.507v-364.335c0-3.954-2.211-7.481-5.77-9.205-3.562-1.724-7.699-1.272-10.799 1.18l-13.512 10.673-15.157-11.974c-4.367-3.446-10.465-3.448-14.832.002l-15.153 11.971-15.155-11.973c-4.367-3.446-10.465-3.448-14.832.002l-15.153 11.971-15.15-11.969c-4.365-3.45-10.466-3.451-14.837-.001l-15.148 11.97-15.148-11.97c-4.366-3.448-10.466-3.45-14.836 0l-15.146 11.97-15.148-11.969c-4.366-3.45-10.468-3.451-14.836-.001l-15.149 11.97-15.149-11.97c-4.367-3.45-10.469-3.453-14.836-.001l-4.83 3.817c-3.253 2.571-3.807 7.291-1.236 10.543 2.571 3.253 7.291 3.807 10.543 1.236l2.94-2.323 15.148 11.969c4.366 3.451 10.468 3.452 14.836.001l15.15-11.97 15.15 11.97c4.367 3.45 10.467 3.45 14.836-.002l15.145-11.968 15.15 11.972c4.365 3.446 10.463 3.446 14.834-.002l15.148-11.97 15.15 11.969c4.367 3.451 10.469 3.452 14.836.001l15.153-11.971 15.151 11.97c4.369 3.451 10.47 3.454 14.835.001l15.154-11.971 15.157 11.974c4.366 3.447 10.464 3.447 14.832-.002l7.649-6.042v354.457c.001 4.147 3.362 7.507 7.508 7.507z" data-original="#000000" class="active-path" data-old_color="#000000" fill="#FB5252"/><path d="m358.237 245.731h-103.305c-4.146 0-7.507 3.36-7.507 7.507 0 4.146 3.36 7.507 7.507 7.507h103.305c4.146 0 7.507-3.36 7.507-7.507s-3.361-7.507-7.507-7.507z" data-original="#000000" class="active-path" data-old_color="#000000" fill="#FB5252"/><path d="m358.237 378.102h-103.305c-4.146 0-7.507 3.36-7.507 7.507s3.36 7.507 7.507 7.507h103.305c4.146 0 7.507-3.36 7.507-7.507s-3.361-7.507-7.507-7.507z" data-original="#000000" class="active-path" data-old_color="#000000" fill="#FB5252"/><path d="m189.979 106.871c-4.146 0-7.507 3.36-7.507 7.507v64.672c0 3.658 2.637 6.783 6.243 7.399.534.092 16.609.149 23.97.108 4.145-.023 7.487-3.402 7.465-7.549-.023-4.132-3.379-7.465-7.506-7.465-.015 0-.028 0-.043 0-5.226.029-10.837.05-15.116.054v-57.219c.001-4.147-3.359-7.507-7.506-7.507z" data-original="#000000" class="active-path" data-old_color="#000000" fill="#FB5252"/><path d="m250.665 179.103v-64.726c0-4.146-3.36-7.507-7.507-7.507s-7.507 3.36-7.507 7.507v64.726c0 4.146 3.36 7.507 7.507 7.507s7.507-3.361 7.507-7.507z" data-original="#000000" class="active-path" data-old_color="#000000" fill="#FB5252"/><path d="m296.708 172.732c-6.596 0-12.949-2.664-16.993-7.128-2.785-3.073-7.533-3.305-10.603-.522-3.072 2.784-3.306 7.531-.522 10.603 6.843 7.552 17.355 12.06 28.118 12.06 13.357 0 24.569-8.502 26.661-20.215 1.57-8.792-2.451-20.288-18.443-26.186-8.048-2.969-15.534-6.205-17.726-7.165-2.058-1.602-1.993-3.863-1.858-4.799.18-1.253 1.082-4.314 5.558-5.662 9.435-2.845 18.12 4.04 18.352 4.225 3.174 2.634 7.882 2.218 10.54-.945 2.667-3.174 2.258-7.909-.916-10.577-.601-.504-14.923-12.314-32.307-7.079-8.716 2.626-14.88 9.487-16.088 17.904-1.187 8.208 2.663 16.407 9.959 20.361.373.166 9.27 4.127 19.29 7.822 2.976 1.098 9.796 4.218 8.859 9.462-.688 3.854-5.32 7.841-11.881 7.841z" data-original="#000000" class="active-path" data-old_color="#000000" fill="#FB5252"/><path d="m383.617 115.513c0-4.146-3.36-7.507-7.507-7.507h-35.746c-4.146 0-7.507 3.36-7.507 7.507s3.36 7.507 7.507 7.507h10.294v57.219c0 4.146 3.36 7.507 7.507 7.507s7.507-3.36 7.507-7.507v-57.219h10.439c4.145 0 7.506-3.361 7.506-7.507z" data-original="#000000" class="active-path" data-old_color="#000000" fill="#FB5252"/><path d="m233.2 235.926c-2.932-2.93-7.684-2.93-10.617 0l-18.933 18.934-6.93-6.931c-2.932-2.93-7.684-2.93-10.617 0-2.931 2.932-2.931 7.684 0 10.617l12.238 12.238c1.466 1.465 3.388 2.198 5.308 2.198s3.842-.733 5.308-2.198l24.241-24.241c2.933-2.932 2.933-7.684.002-10.617z" data-original="#000000" class="active-path" data-old_color="#000000" fill="#FB5252"/><path d="m358.237 311.798h-103.305c-4.146 0-7.507 3.36-7.507 7.507s3.36 7.507 7.507 7.507h103.305c4.146 0 7.507-3.36 7.507-7.507s-3.361-7.507-7.507-7.507z" data-original="#000000" class="active-path" data-old_color="#000000" fill="#FB5252"/><path d="m233.2 301.994c-2.932-2.93-7.684-2.93-10.617 0l-18.933 18.934-6.93-6.931c-2.932-2.93-7.684-2.93-10.617 0-2.931 2.932-2.931 7.684 0 10.617l12.238 12.238c1.466 1.465 3.388 2.198 5.308 2.198s3.842-.733 5.308-2.198l24.241-24.241c2.933-2.933 2.933-7.685.002-10.617z" data-original="#000000" class="active-path" data-old_color="#000000" fill="#FB5252"/><path d="m222.583 368.061-18.933 18.934-6.93-6.931c-2.932-2.93-7.684-2.93-10.617 0-2.931 2.932-2.931 7.684 0 10.617l12.238 12.238c1.466 1.465 3.388 2.198 5.308 2.198s3.842-.733 5.308-2.198l24.241-24.241c2.931-2.932 2.931-7.684 0-10.617-2.93-2.93-7.683-2.93-10.615 0z" data-original="#000000" class="active-path" data-old_color="#000000" fill="#FB5252"/></g></g> </svg>
