<?xml version="1.0"?>
<svg xmlns="http://www.w3.org/2000/svg" height="512px" viewBox="0 0 256 256" width="512px" class=""><g transform="matrix(1.10462 0 0 1.10462 -13.3916 -13.3916)"><path d="m115.891 206.039c0-3.314.9-6 2.018-6-1.114 0-2.018-2.686-2.018-6s.9-6 2.018-6h-19.909a6 6 0 0 0 0 12 6 6 0 0 0 0 12h19.91c-1.11 0-2.019-2.686-2.019-6z" fill="#a4d4a0" data-original="#A4D4A0" class="" style="fill:#A4D4A0"/><path d="m158 200.039a6 6 0 1 0 0-12h-19.91c1.115 0 2.018 2.686 2.018 6s-.9 6-2.018 6c1.115 0 2.018 2.686 2.018 6s-.9 6-2.018 6h19.91a6 6 0 1 0 0-12z" fill="#419b46" data-original="#419B46" style="fill:#419B46" class=""/><path d="m140.107 206.039c0-3.314-.9-6-2.018-6 1.115 0 2.018-2.686 2.018-6s-.9-6-2.018-6h-20.18c-1.114 0-2.018 2.686-2.018 6s.9 6 2.018 6c-1.114 0-2.018 2.686-2.018 6s.9 6 2.018 6h20.18c1.111 0 2.018-2.686 2.018-6z" fill="#65bc49" data-original="#65BC49" style="fill:#65BC49"/><path d="m155 74.039h-27a30 30 0 0 1 30 30v54a30 30 0 0 1 -30 30h27a57 57 0 0 0 57-57 57 57 0 0 0 -57-57z" fill="#4b67b0" data-original="#4B67B0" class="" style="fill:#4B67B0"/><path d="m98 158.039v-54a30 30 0 0 1 30-30h-27a57 57 0 0 0 -57 57 57 57 0 0 0 57 57h27a30 30 0 0 1 -30-30z" fill="#89aadb" data-original="#89AADB" style="fill:#89AADB"/><path d="m158 158.039v-54a30 30 0 0 0 -60 0v54a30 30 0 0 0 60 0z" fill="#6287c5" data-original="#6287C5" style="fill:#6287C5"/><path d="m98 104.039a29.863 29.863 0 0 1 6-18h-3a45 45 0 0 0 0 90h3a29.863 29.863 0 0 1 -6-18z" fill="#ef7f72" data-original="#EF7F72" style="fill:#EF7F72" class=""/><path d="m155 86.039h-3a29.868 29.868 0 0 1 6 18v54a29.868 29.868 0 0 1 -6 18h3a45 45 0 1 0 0-90z" fill="#e8383b" data-original="#E8383B" class="" style="fill:#E8383B"/><path d="m158 104.039a29.868 29.868 0 0 0 -6-18h-48a29.863 29.863 0 0 0 -6 18v54a29.863 29.863 0 0 0 6 18h48a29.868 29.868 0 0 0 6-18z" fill="#e95947" data-original="#E95947" class="" style="fill:#E95947"/><path d="m155 191.039h-54a60 60 0 0 1 0-120h54a60 60 0 1 1 0 120zm-54-114a54 54 0 0 0 0 108h54a54 54 0 1 0 0-108z" fill="#1c2d6b" data-original="#1C2D6B" class="" style="fill:#1C2D6B" data-old_color="#1c2d6b"/><path d="m155 179.039h-54a48 48 0 0 1 0-96h54a48 48 0 1 1 0 96zm-54-90a42 42 0 0 0 0 84h54a42 42 0 1 0 0-84z" fill="#1c2d6b" data-original="#1C2D6B" class="" style="fill:#1C2D6B" data-old_color="#1c2d6b"/><path d="m158 104.039c1.763 0 3.193 5.373 3.193 12s-1.43 12-3.193 12a12 12 0 1 0 0-24z" fill="#d3ba2a" data-original="#D3BA2A" class="" style="fill:#D3BA2A"/><path d="m154.807 116.039c0-6.627 1.429-12 3.192-12a12 12 0 0 0 0 24c-1.763 0-3.192-5.372-3.192-12z" fill="#ede49d" data-original="#EDE49D" style="fill:#EDE49D"/><ellipse cx="157.999" cy="116.039" fill="#eee045" rx="3.193" ry="12" data-original="#EEE045" class="active-path" style="fill:#EEE045"/><path d="m98 104.039c1.763 0 3.193 5.373 3.193 12s-1.43 12-3.193 12a12 12 0 1 0 0-24z" fill="#d3ba2a" data-original="#D3BA2A" class="" style="fill:#D3BA2A"/><path d="m94.807 116.039c0-6.627 1.429-12 3.192-12a12 12 0 0 0 0 24c-1.763 0-3.192-5.372-3.192-12z" fill="#ede49d" data-original="#EDE49D" style="fill:#EDE49D"/><ellipse cx="97.999" cy="116.039" fill="#eee045" rx="3.193" ry="12" data-original="#EEE045" class="active-path" style="fill:#EEE045"/><path d="m98 131.039a15 15 0 1 1 15-15 15.017 15.017 0 0 1 -15 15zm0-24a9 9 0 1 0 9 9 9.01 9.01 0 0 0 -9-9z" fill="#1c2d6b" data-original="#1C2D6B" class="" style="fill:#1C2D6B" data-old_color="#1c2d6b"/><path d="m158 131.039a15 15 0 1 1 15-15 15.017 15.017 0 0 1 -15 15zm0-24a9 9 0 1 0 9 9 9.01 9.01 0 0 0 -9-9z" fill="#1c2d6b" data-original="#1C2D6B" class="" style="fill:#1C2D6B" data-old_color="#1c2d6b"/><path d="m110 152.147v-6.216a5.892 5.892 0 0 1 5.892-5.892h-20.892a9 9 0 0 0 0 18h20.892a5.892 5.892 0 0 1 -5.892-5.892z" fill="#ede49d" data-original="#EDE49D" style="fill:#EDE49D"/><path d="m161 140.039h-20.893a5.892 5.892 0 0 1 5.893 5.892v6.216a5.892 5.892 0 0 1 -5.892 5.892h20.892a9 9 0 1 0 0-18z" fill="#d3ba2a" data-original="#D3BA2A" class="" style="fill:#D3BA2A"/><rect fill="#eee045" height="18" rx="5.892" width="36" x="109.999" y="140.039" data-original="#EEE045" class="active-path" style="fill:#EEE045"/><g fill="#1c2d6b"><path d="m161 161.039h-66a12 12 0 0 1 0-24h66a12 12 0 1 1 0 24zm-66-18a6 6 0 0 0 0 12h66a6 6 0 1 0 0-12z" data-original="#1C2D6B" class="" style="fill:#1C2D6B" data-old_color="#1C2D6B"/><path d="m101 161.039a3 3 0 0 1 -3-3v-18a3 3 0 0 1 6 0v18a3 3 0 0 1 -3 3z" data-original="#1C2D6B" class="" style="fill:#1C2D6B" data-old_color="#1C2D6B"/><path d="m119 161.039a3 3 0 0 1 -3-3v-18a3 3 0 0 1 6 0v18a3 3 0 0 1 -3 3z" data-original="#1C2D6B" class="" style="fill:#1C2D6B" data-old_color="#1C2D6B"/><path d="m137 161.039a3 3 0 0 1 -3-3v-18a3 3 0 0 1 6 0v18a3 3 0 0 1 -3 3z" data-original="#1C2D6B" class="" style="fill:#1C2D6B" data-old_color="#1C2D6B"/><path d="m155 161.039a3 3 0 0 1 -3-3v-18a3 3 0 0 1 6 0v18a3 3 0 0 1 -3 3z" data-original="#1C2D6B" class="" style="fill:#1C2D6B" data-old_color="#1C2D6B"/></g><path d="m37 107.039a5 5 0 0 0 -5 5v11.875c0-1.035 2.239-1.875 5-1.875h7.72a56.766 56.766 0 0 1 4.578-15z" fill="#a4d4a0" data-original="#A4D4A0" class="" style="fill:#A4D4A0"/><path d="m32 138.164v11.875a5 5 0 0 0 5 5h12.3a56.743 56.743 0 0 1 -4.578-15h-7.722c-2.762 0-5-.839-5-1.875z" fill="#419b46" data-original="#419B46" style="fill:#419B46" class=""/><path d="m219 140.039h-7.72a56.743 56.743 0 0 1 -4.578 15h12.298a5 5 0 0 0 5-5v-11.875c0 1.036-2.238 1.875-5 1.875z" fill="#419b46" data-original="#419B46" style="fill:#419B46" class=""/><path d="m219 107.039h-12.3a56.766 56.766 0 0 1 4.578 15h7.722c2.761 0 5 .84 5 1.875v-11.875a5 5 0 0 0 -5-5z" fill="#a4d4a0" data-original="#A4D4A0" class="" style="fill:#A4D4A0"/><path d="m32 123.914v14.25c0 1.036 2.239 1.875 5 1.875h7.72a57.167 57.167 0 0 1 -.721-9 57.167 57.167 0 0 1 .721-9h-7.72c-2.762 0-5 .84-5 1.875z" fill="#65bc49" data-original="#65BC49" style="fill:#65BC49"/><path d="m219 122.039h-7.72a57.167 57.167 0 0 1 .721 9 57.167 57.167 0 0 1 -.721 9h7.72c2.761 0 5-.839 5-1.875v-14.25c0-1.035-2.238-1.875-5-1.875z" fill="#65bc49" data-original="#65BC49" style="fill:#65BC49"/><path d="m49.3 158.039h-12.3a8.009 8.009 0 0 1 -8-8v-38a8.009 8.009 0 0 1 8-8h12.3a3 3 0 0 1 2.721 4.265 53.992 53.992 0 0 0 0 45.47 3 3 0 0 1 -2.721 4.265zm-12.3-48a2 2 0 0 0 -2 2v38a2 2 0 0 0 2 2h7.789a60.089 60.089 0 0 1 0-42z" fill="#1c2d6b" data-original="#1C2D6B" class="" style="fill:#1C2D6B" data-old_color="#1c2d6b"/><path d="m219 158.039h-12.3a3 3 0 0 1 -2.721-4.265 53.992 53.992 0 0 0 0-45.47 3 3 0 0 1 2.721-4.265h12.3a8.009 8.009 0 0 1 8 8v38a8.009 8.009 0 0 1 -8 8zm-7.789-6h7.789a2 2 0 0 0 2-2v-38a2 2 0 0 0 -2-2h-7.789a60.089 60.089 0 0 1 0 42z" fill="#1c2d6b" data-original="#1C2D6B" class="" style="fill:#1C2D6B" data-old_color="#1c2d6b"/><path d="m103.999 61.961h18v12.078h-18z" fill="#a4d4a0" data-original="#A4D4A0" class="" style="fill:#A4D4A0"/><path d="m133.999 61.961h18v12.078h-18z" fill="#419b46" data-original="#419B46" style="fill:#419B46" class=""/><path d="m121.999 61.961h12v12.078h-12z" fill="#65bc49" data-original="#65BC49" style="fill:#65BC49"/><path d="m152 77.039h-48a3 3 0 0 1 -3-3v-12.078a3 3 0 0 1 3-3h48a3 3 0 0 1 3 3v12.078a3 3 0 0 1 -3 3zm-45-6h42v-6.078h-42z" fill="#1c2d6b" data-original="#1C2D6B" class="" style="fill:#1C2D6B" data-old_color="#1c2d6b"/><path d="m128 64.961a3 3 0 0 1 -3-3v-12a3 3 0 1 1 6 0v12a3 3 0 0 1 -3 3z" fill="#1c2d6b" data-original="#1C2D6B" class="" style="fill:#1C2D6B" data-old_color="#1c2d6b"/><path d="m123.649 37.961c0-6.628 1.947-12 4.35-12a12 12 0 0 0 0 24c-2.399 0-4.35-5.373-4.35-12z" fill="#ef7f72" data-original="#EF7F72" style="fill:#EF7F72" class=""/><path d="m128 25.961c2.4 0 4.351 5.372 4.351 12s-1.948 12-4.351 12a12 12 0 0 0 0-24z" fill="#e8383b" data-original="#E8383B" class="" style="fill:#E8383B"/><ellipse cx="127.999" cy="37.961" fill="#e95947" rx="4.351" ry="12" data-original="#E95947" class="" style="fill:#E95947"/><path d="m128 52.961a15 15 0 1 1 15-15 15.017 15.017 0 0 1 -15 15zm0-24a9 9 0 1 0 9 9 9.01 9.01 0 0 0 -9-9z" fill="#1c2d6b" data-original="#1C2D6B" class="" style="fill:#1C2D6B" data-old_color="#1c2d6b"/><path d="m158 203.039h-60a9 9 0 0 1 0-18h60a9 9 0 1 1 0 18zm-60-12a3 3 0 0 0 0 6h60a3 3 0 1 0 0-6z" fill="#1c2d6b" data-original="#1C2D6B" class="" style="fill:#1C2D6B" data-old_color="#1c2d6b"/><path d="m158 215.039h-60a9 9 0 0 1 0-18h60a9 9 0 1 1 0 18zm-60-12a3 3 0 0 0 0 6h60a3 3 0 1 0 0-6z" fill="#1c2d6b" data-original="#1C2D6B" class="" style="fill:#1C2D6B" data-old_color="#1c2d6b"/><path d="m102.225 212.039h-51.155a7.071 7.071 0 0 0 -7.07 7.071v10.929h54v-13.774a4.226 4.226 0 0 1 4.225-4.226z" fill="#89aadb" data-original="#89AADB" style="fill:#89AADB"/><path d="m204.928 212.039h-51.155a4.226 4.226 0 0 1 4.227 4.226v13.774h54v-10.929a7.071 7.071 0 0 0 -7.072-7.071z" fill="#4b67b0" data-original="#4B67B0" class="" style="fill:#4B67B0"/><path d="m153.773 212.039h-51.548a4.226 4.226 0 0 0 -4.225 4.226v13.774h60v-13.774a4.226 4.226 0 0 0 -4.227-4.226z" fill="#6287c5" data-original="#6287C5" style="fill:#6287C5"/><path d="m212 233.039h-168a3 3 0 0 1 -3-3v-10.929a10.083 10.083 0 0 1 10.07-10.071h153.858a10.083 10.083 0 0 1 10.072 10.071v10.929a3 3 0 0 1 -3 3zm-165-6h162v-7.929a4.075 4.075 0 0 0 -4.071-4.071h-153.859a4.075 4.075 0 0 0 -4.07 4.071z" fill="#1c2d6b" data-original="#1C2D6B" class="" style="fill:#1C2D6B" data-old_color="#1c2d6b"/><path d="m171.306 218.406c0-6.381 1.175-11.554 2.623-11.554a11.555 11.555 0 0 0 0 23.109c-1.448 0-2.623-5.173-2.623-11.555z" fill="#ef7f72" data-original="#EF7F72" style="fill:#EF7F72" class=""/><path d="m173.929 206.852c1.449 0 2.623 5.173 2.623 11.554s-1.174 11.555-2.623 11.555a11.555 11.555 0 1 0 0-23.109z" fill="#e8383b" data-original="#E8383B" class="" style="fill:#E8383B"/><ellipse cx="173.929" cy="218.406" fill="#e95947" rx="2.623" ry="11.555" data-original="#E95947" class="" style="fill:#E95947"/><path d="m209.822 218.406c0-6.381 1.174-11.554 2.623-11.554a11.555 11.555 0 1 0 0 23.109c-1.445 0-2.623-5.173-2.623-11.555z" fill="#ef7f72" data-original="#EF7F72" style="fill:#EF7F72" class=""/><path d="m212.445 206.852c1.448 0 2.623 5.173 2.623 11.554s-1.175 11.555-2.623 11.555a11.555 11.555 0 0 0 0-23.109z" fill="#e8383b" data-original="#E8383B" class="" style="fill:#E8383B"/><ellipse cx="212.445" cy="218.406" fill="#e95947" rx="2.623" ry="11.555" data-original="#E95947" class="" style="fill:#E95947"/><path d="m173.93 232.961a14.555 14.555 0 1 1 14.553-14.555 14.571 14.571 0 0 1 -14.553 14.555zm0-23.109a8.555 8.555 0 1 0 8.553 8.554 8.564 8.564 0 0 0 -8.553-8.554z" fill="#1c2d6b" data-original="#1C2D6B" class="" style="fill:#1C2D6B" data-old_color="#1c2d6b"/><path d="m185.483 221.406a3 3 0 0 1 -3-3v-42.367a3 3 0 0 1 6 0v42.367a3 3 0 0 1 -3 3z" fill="#1c2d6b" data-original="#1C2D6B" class="" style="fill:#1C2D6B" data-old_color="#1c2d6b"/><path d="m212.444 232.961a14.555 14.555 0 1 1 14.556-14.555 14.571 14.571 0 0 1 -14.556 14.555zm0-23.109a8.555 8.555 0 1 0 8.556 8.554 8.564 8.564 0 0 0 -8.556-8.554z" fill="#1c2d6b" data-original="#1C2D6B" class="" style="fill:#1C2D6B" data-old_color="#1c2d6b"/><path d="m224 221.406a3 3 0 0 1 -3-3v-42.367a3 3 0 0 1 6 0v42.367a3 3 0 0 1 -3 3z" fill="#1c2d6b" data-original="#1C2D6B" class="" style="fill:#1C2D6B" data-old_color="#1c2d6b"/><path d="m185.484 176.039h14.178v15.834h-14.178z" fill="#ef7f72" data-original="#EF7F72" style="fill:#EF7F72" class=""/><path d="m209.822 176.039h14.178v15.834h-14.178z" fill="#e8383b" data-original="#E8383B" class="" style="fill:#E8383B"/><path d="m199.661 176.039h10.16v15.834h-10.16z" fill="#e95947" data-original="#E95947" class="" style="fill:#E95947"/><path d="m224 194.873h-38.517a3 3 0 0 1 -3-3v-15.834a3 3 0 0 1 3-3h38.517a3 3 0 0 1 3 3v15.834a3 3 0 0 1 -3 3zm-35.516-6h32.516v-9.834h-32.517z" fill="#1c2d6b" data-original="#1C2D6B" class="" style="fill:#1C2D6B" data-old_color="#1c2d6b"/></g> </svg>
