<?xml version="1.0"?>
<svg xmlns="http://www.w3.org/2000/svg" xmlns:xlink="http://www.w3.org/1999/xlink" version="1.1" id="Capa_1" x="0px" y="0px" viewBox="0 0 186 186" style="enable-background:new 0 0 186 186;" xml:space="preserve" width="512px" height="512px" class=""><g transform="matrix(1.05972 0 0 1.05972 -5.55368 -5.55368)"><path d="M102.932,62.086c11.267,11.268,11.267,29.6,0,40.866c-11.266,11.268-29.6,11.268-40.865,0  c-11.268-11.267-11.268-29.599,0-40.865c5.633-5.634,13.033-8.45,20.433-8.45S97.299,56.453,102.932,62.086L102.932,62.086z   M186,161.667C186,175.106,175.106,186,161.667,186H24.333C10.894,186,0,175.106,0,161.667V24.333C0,10.894,10.894,0,24.333,0  h137.333C175.106,0,186,10.894,186,24.333V161.667z M145.847,134.553l-27.177-27.177c11.754-17.09,10.052-40.713-5.13-55.896V51.48  c-17.115-17.115-44.965-17.115-62.08,0s-17.115,44.965,0,62.08c8.558,8.558,19.799,12.836,31.04,12.836  c9.028,0,18.052-2.766,25.69-8.285l27.051,27.05c1.465,1.464,3.385,2.196,5.304,2.196s3.839-0.732,5.304-2.196  C148.776,142.231,148.776,137.483,145.847,134.553z" data-original="#000000" class="active-path" data-old_color="#000000" fill="#FFCE00"/></g> </svg>
